<svg width="21" height="21" viewBox="0 0 21 21" fill="none" xmlns="http://www.w3.org/2000/svg">
<path d="M16.625 6.125C15.6625 6.125 14.875 6.9125 14.875 7.875V9.625C14.875 10.5875 15.6625 11.375 16.625 11.375H18.375V13.125H14.875V14.875H18.375C19.3375 14.875 20.125 14.0875 20.125 13.125V11.375C20.125 10.4125 19.3375 9.625 18.375 9.625H16.625V7.875H20.125V6.125H16.625ZM7.875 6.125V14.875H11.375C12.3375 14.875 13.125 14.0875 13.125 13.125V7.875C13.125 6.9125 12.3375 6.125 11.375 6.125H7.875ZM9.625 7.875H11.375V13.125H9.625V7.875ZM2.625 6.125C1.6625 6.125 0.875 6.9125 0.875 7.875V14.875H2.625V11.375H4.375V14.875H6.125V7.875C6.125 6.9125 5.3375 6.125 4.375 6.125H2.625ZM2.625 7.875H4.375V9.625H2.625V7.875Z" fill="#1A1A1A"/>
</svg>
