<svg width="21" height="21" viewBox="0 0 21 21" fill="none" xmlns="http://www.w3.org/2000/svg">
<path d="M15.75 7.875V9.1875H5.25V7.875H15.75ZM13.125 2.625V3.9375H5.25V2.625H13.125ZM10.5 18.375V11.8125H15.75V18.375H10.5ZM11.8125 13.125V17.0625H14.4375V13.125H11.8125ZM15.75 5.25V6.5625H5.25V5.25H15.75ZM2.625 0H18.375V21H2.625V0ZM17.0625 19.6875V1.3125H3.9375V19.6875H17.0625ZM9.1875 17.0625V18.375H5.25V17.0625H9.1875ZM9.1875 11.8125V13.125H5.25V11.8125H9.1875ZM9.1875 14.4375V15.75H5.25V14.4375H9.1875Z" fill="#1A1A1A"/>
</svg>
