<svg xmlns="http://www.w3.org/2000/svg" xmlns:xlink="http://www.w3.org/1999/xlink" width="350" zoomAndPan="magnify" viewBox="0 0 262.5 277.500005" height="370" preserveAspectRatio="xMidYMid meet" version="1.0"><defs><clipPath id="c2c9888bef"><path d="M 5.886719 13.386719 L 255.910156 13.386719 L 255.910156 263.410156 L 5.886719 263.410156 Z M 5.886719 13.386719 " clip-rule="nonzero"/></clipPath></defs><g clip-path="url(#c2c9888bef)"><path fill="#1e1e1e" d="M 244.761719 75.949219 C 251.628906 69.328125 255.910156 60.046875 255.910156 49.78125 C 255.910156 29.714844 239.585938 13.386719 219.519531 13.386719 C 205.546875 13.386719 193.398438 21.3125 187.304688 32.902344 C 170.019531 23.65625 150.613281 18.785156 130.898438 18.785156 C 111.1875 18.785156 91.78125 23.65625 74.492188 32.902344 C 68.402344 21.3125 56.25 13.386719 42.28125 13.386719 C 22.214844 13.386719 5.886719 29.714844 5.886719 49.78125 C 5.886719 60.046875 10.171875 69.328125 17.039062 75.949219 C 17.230469 76.179688 17.449219 76.386719 17.6875 76.566406 C 20.003906 78.695312 22.597656 80.519531 25.402344 81.992188 C 16.148438 99.261719 11.273438 118.671875 11.273438 138.398438 C 11.273438 158.132812 16.148438 177.539062 25.398438 194.808594 C 13.8125 200.902344 5.886719 213.058594 5.886719 227.035156 C 5.886719 237.300781 10.171875 246.582031 17.039062 253.199219 C 17.230469 253.429688 17.449219 253.640625 17.691406 253.820312 C 24.171875 259.773438 32.808594 263.410156 42.28125 263.410156 C 51.753906 263.410156 60.394531 259.765625 66.875 253.808594 C 67.105469 253.636719 67.3125 253.4375 67.496094 253.21875 C 70.296875 250.519531 72.660156 247.371094 74.488281 243.898438 C 91.757812 253.152344 111.167969 258.027344 130.898438 258.027344 C 150.621094 258.027344 170.03125 253.152344 187.3125 243.898438 C 189.140625 247.371094 191.503906 250.519531 194.304688 253.21875 C 194.488281 253.4375 194.695312 253.636719 194.925781 253.808594 C 201.40625 259.765625 210.042969 263.410156 219.519531 263.410156 C 228.992188 263.410156 237.628906 259.773438 244.109375 253.820312 C 244.351562 253.640625 244.570312 253.429688 244.761719 253.199219 C 251.628906 246.582031 255.914062 237.300781 255.914062 227.035156 C 255.914062 213.058594 247.988281 200.902344 236.402344 194.808594 C 245.644531 177.53125 250.515625 158.125 250.515625 138.398438 C 250.515625 118.679688 245.644531 99.273438 236.394531 81.996094 C 239.199219 80.519531 241.796875 78.695312 244.113281 76.566406 C 244.351562 76.386719 244.570312 76.179688 244.761719 75.949219 Z M 13.695312 49.78125 C 13.695312 34.019531 26.519531 21.195312 42.28125 21.195312 C 58.035156 21.195312 70.851562 34.019531 70.851562 49.78125 C 70.851562 55.929688 68.890625 61.625 65.574219 66.292969 C 63.445312 62.9375 60.457031 60.199219 56.933594 58.371094 C 58.984375 55.460938 60.191406 51.914062 60.191406 48.089844 C 60.191406 38.207031 52.15625 30.164062 42.28125 30.164062 C 32.394531 30.164062 24.351562 38.207031 24.351562 48.089844 C 24.351562 51.914062 25.5625 55.460938 27.613281 58.375 C 24.089844 60.199219 21.101562 62.9375 18.972656 66.292969 C 15.65625 61.625 13.695312 55.929688 13.695312 49.78125 Z M 42.28125 58.195312 C 36.699219 58.195312 32.160156 53.664062 32.160156 48.089844 C 32.160156 42.511719 36.699219 37.972656 42.28125 37.972656 C 47.851562 37.972656 52.386719 42.511719 52.386719 48.089844 C 52.386719 53.664062 47.851562 58.195312 42.28125 58.195312 Z M 42.28125 235.449219 C 36.699219 235.449219 32.160156 230.910156 32.160156 225.332031 C 32.160156 219.757812 36.699219 215.226562 42.28125 215.226562 C 47.851562 215.226562 52.386719 219.757812 52.386719 225.332031 C 52.386719 230.910156 47.851562 235.449219 42.28125 235.449219 Z M 65.578125 243.542969 C 63.449219 240.179688 60.460938 237.441406 56.9375 235.617188 C 58.984375 232.703125 60.191406 229.15625 60.191406 225.332031 C 60.191406 215.453125 52.15625 207.417969 42.28125 207.417969 C 32.394531 207.417969 24.355469 215.453125 24.355469 225.332031 C 24.355469 229.15625 25.5625 232.703125 27.613281 235.617188 C 24.089844 237.445312 21.101562 240.179688 18.972656 243.539062 C 15.652344 238.875 13.695312 233.179688 13.695312 227.035156 C 13.695312 211.273438 26.519531 198.449219 42.28125 198.449219 C 58.035156 198.449219 70.851562 211.269531 70.851562 227.035156 C 70.851562 233.179688 68.894531 238.875 65.578125 243.542969 Z M 219.519531 235.449219 C 213.945312 235.449219 209.414062 230.910156 209.414062 225.332031 C 209.414062 219.757812 213.949219 215.226562 219.519531 215.226562 C 225.097656 215.226562 229.636719 219.757812 229.636719 225.332031 C 229.636719 230.910156 225.097656 235.449219 219.519531 235.449219 Z M 248.105469 227.035156 C 248.105469 233.179688 246.144531 238.875 242.828125 243.539062 C 240.699219 240.183594 237.710938 237.445312 234.1875 235.617188 C 236.238281 232.703125 237.445312 229.15625 237.445312 225.332031 C 237.445312 215.453125 229.402344 207.417969 219.519531 207.417969 C 209.640625 207.417969 201.605469 215.453125 201.605469 225.332031 C 201.605469 229.15625 202.8125 232.703125 204.863281 235.617188 C 201.339844 237.441406 198.351562 240.179688 196.222656 243.542969 C 192.90625 238.875 190.949219 233.179688 190.949219 227.03125 C 190.949219 211.269531 203.765625 198.449219 219.519531 198.449219 C 235.28125 198.449219 248.105469 211.269531 248.105469 227.035156 Z M 242.703125 138.398438 C 242.703125 157.144531 238 175.582031 229.082031 191.925781 C 226.03125 191.09375 222.828125 190.640625 219.519531 190.640625 C 199.460938 190.640625 183.140625 206.964844 183.140625 227.035156 C 183.140625 230.339844 183.589844 233.539062 184.421875 236.585938 C 168.074219 245.511719 149.636719 250.21875 130.898438 250.21875 C 112.148438 250.21875 93.714844 245.511719 77.378906 236.585938 C 78.207031 233.539062 78.65625 230.339844 78.65625 227.03125 C 78.65625 206.964844 62.339844 190.640625 42.28125 190.640625 C 38.96875 190.640625 35.765625 191.09375 32.714844 191.925781 C 23.789062 175.589844 19.082031 157.152344 19.082031 138.398438 C 19.082031 119.648438 23.792969 101.214844 32.722656 84.875 C 35.769531 85.707031 38.972656 86.160156 42.28125 86.160156 C 51.753906 86.160156 60.394531 82.511719 66.875 76.554688 C 67.105469 76.378906 67.3125 76.183594 67.496094 75.964844 C 74.371094 69.34375 78.660156 60.054688 78.660156 49.78125 C 78.660156 46.472656 78.207031 43.265625 77.375 40.21875 C 93.730469 31.296875 112.167969 26.59375 130.898438 26.59375 C 149.632812 26.59375 168.066406 31.296875 184.425781 40.21875 C 183.59375 43.265625 183.140625 46.472656 183.140625 49.78125 C 183.140625 60.054688 187.429688 69.34375 194.304688 75.964844 C 194.488281 76.183594 194.695312 76.378906 194.925781 76.554688 C 201.40625 82.511719 210.042969 86.160156 219.519531 86.160156 C 222.828125 86.160156 226.027344 85.707031 229.074219 84.875 C 238 101.222656 242.703125 119.65625 242.703125 138.398438 Z M 219.519531 58.195312 C 213.945312 58.195312 209.414062 53.664062 209.414062 48.089844 C 209.414062 42.511719 213.949219 37.972656 219.519531 37.972656 C 225.097656 37.972656 229.636719 42.511719 229.636719 48.089844 C 229.636719 53.664062 225.097656 58.195312 219.519531 58.195312 Z M 234.183594 58.375 C 236.234375 55.460938 237.445312 51.914062 237.445312 48.089844 C 237.445312 38.207031 229.402344 30.164062 219.519531 30.164062 C 209.640625 30.164062 201.605469 38.207031 201.605469 48.089844 C 201.605469 51.914062 202.816406 55.460938 204.863281 58.371094 C 201.339844 60.199219 198.351562 62.9375 196.226562 66.292969 C 192.90625 61.625 190.949219 55.929688 190.949219 49.78125 C 190.949219 34.019531 203.765625 21.195312 219.519531 21.195312 C 235.28125 21.195312 248.105469 34.019531 248.105469 49.78125 C 248.105469 55.929688 246.144531 61.625 242.824219 66.292969 C 240.695312 62.9375 237.707031 60.199219 234.183594 58.375 Z M 214.714844 94.289062 C 214.382812 92.730469 213.464844 91.398438 212.125 90.53125 C 210.789062 89.667969 209.199219 89.371094 207.648438 89.703125 C 207.644531 89.703125 207.644531 89.703125 207.644531 89.703125 L 187.382812 94.035156 C 184.445312 94.660156 182.476562 97.367188 182.675781 100.292969 L 176.195312 101.679688 C 157.996094 91.09375 137.972656 88.175781 115.035156 92.753906 C 115.03125 92.753906 115.027344 92.753906 115.023438 92.757812 C 115.019531 92.757812 115.015625 92.757812 115.011719 92.757812 C 106.75 94.453125 98.898438 96.914062 91.304688 99.296875 C 88.933594 100.039062 86.675781 100.746094 84.417969 101.425781 L 79.113281 100.292969 C 79.210938 99.015625 78.898438 97.742188 78.191406 96.644531 C 77.324219 95.296875 75.984375 94.371094 74.421875 94.039062 L 54.15625 89.703125 C 54.15625 89.703125 54.15625 89.703125 54.152344 89.703125 C 50.96875 89.03125 47.796875 91.0625 47.074219 94.285156 L 35.042969 150.613281 C 34.714844 152.164062 35.003906 153.75 35.863281 155.085938 C 36.726562 156.4375 38.066406 157.363281 39.625 157.691406 L 59.894531 162.027344 C 60.308594 162.113281 60.726562 162.15625 61.132812 162.15625 C 63.710938 162.15625 66.046875 160.476562 66.828125 157.972656 C 68.675781 158.296875 70.542969 158.722656 72.445312 159.265625 C 72.460938 161.945312 73.417969 164.5 75.199219 166.515625 C 77.15625 168.742188 79.867188 170.070312 82.835938 170.257812 C 83.074219 170.273438 83.3125 170.28125 83.554688 170.28125 C 84.792969 170.28125 86.007812 170.066406 87.152344 169.671875 C 87.617188 170.988281 88.332031 172.214844 89.277344 173.285156 C 91.230469 175.507812 93.941406 176.835938 96.90625 177.027344 C 97.148438 177.042969 97.390625 177.050781 97.632812 177.050781 C 99.796875 177.050781 101.875 176.417969 103.667969 175.25 C 104.121094 176.285156 104.734375 177.273438 105.519531 178.164062 C 107.710938 180.644531 110.773438 181.910156 113.851562 181.910156 C 115.746094 181.910156 117.644531 181.425781 119.347656 180.453125 C 119.808594 181.546875 120.4375 182.578125 121.246094 183.496094 C 123.4375 185.976562 126.5 187.242188 129.574219 187.242188 C 132.179688 187.242188 134.800781 186.332031 136.902344 184.472656 L 142.421875 179.605469 C 154.9375 177.550781 168.152344 171.40625 182.753906 160.859375 L 195.058594 158.222656 C 195.914062 160.585938 198.175781 162.160156 200.664062 162.160156 C 201.078125 162.160156 201.492188 162.113281 201.910156 162.027344 L 222.144531 157.695312 C 223.707031 157.371094 225.046875 156.453125 225.917969 155.117188 C 226.789062 153.777344 227.089844 152.179688 226.753906 150.609375 Z M 85.695312 161.660156 C 85.695312 161.664062 85.695312 161.664062 85.695312 161.664062 C 85.046875 162.234375 84.210938 162.519531 83.328125 162.464844 C 82.445312 162.410156 81.640625 162.019531 81.058594 161.355469 C 80.480469 160.703125 80.195312 159.855469 80.25 158.972656 C 80.304688 158.097656 80.695312 157.296875 81.351562 156.71875 L 90.820312 148.359375 C 91.417969 147.832031 92.175781 147.546875 92.980469 147.546875 C 93.050781 147.546875 93.125 147.550781 93.195312 147.554688 C 94.082031 147.613281 94.890625 148.003906 95.472656 148.664062 C 96.046875 149.316406 96.332031 150.160156 96.273438 151.039062 C 96.222656 151.890625 95.855469 152.664062 95.246094 153.234375 L 90.5625 157.371094 Z M 109.316406 160.011719 L 106.5 162.496094 C 106.460938 162.527344 106.429688 162.566406 106.394531 162.597656 L 99.789062 168.429688 C 99.132812 169.003906 98.28125 169.289062 97.402344 169.234375 C 96.519531 169.179688 95.71875 168.785156 95.136719 168.125 C 93.9375 166.769531 94.070312 164.6875 95.429688 163.488281 L 100.34375 159.152344 C 100.367188 159.132812 100.386719 159.109375 100.410156 159.085938 L 104.890625 155.132812 C 105.515625 154.582031 106.292969 154.3125 107.066406 154.3125 C 107.980469 154.3125 108.894531 154.691406 109.546875 155.433594 C 110.726562 156.769531 110.617188 158.800781 109.316406 160.011719 Z M 125.503906 164.933594 L 122.230469 167.816406 C 122.230469 167.820312 122.226562 167.824219 122.222656 167.824219 L 116.027344 173.289062 C 114.660156 174.488281 112.574219 174.355469 111.371094 172.996094 C 110.222656 171.695312 110.324219 169.648438 111.5625 168.449219 L 114.421875 165.921875 C 114.445312 165.902344 114.464844 165.882812 114.484375 165.863281 L 121.128906 160.003906 C 121.757812 159.453125 122.539062 159.179688 123.316406 159.179688 C 124.226562 159.179688 125.132812 159.554688 125.78125 160.285156 C 126.980469 161.652344 126.851562 163.734375 125.503906 164.933594 Z M 138.6875 171.195312 C 138.632812 172.078125 138.242188 172.882812 137.59375 173.457031 L 131.738281 178.617188 C 131.734375 178.621094 131.734375 178.621094 131.734375 178.621094 C 130.378906 179.816406 128.300781 179.6875 127.101562 178.332031 C 126.523438 177.671875 126.234375 176.820312 126.289062 175.9375 C 126.34375 175.0625 126.730469 174.265625 127.378906 173.6875 L 130.660156 170.796875 C 130.664062 170.792969 130.664062 170.789062 130.667969 170.789062 L 133.234375 168.527344 C 133.835938 167.992188 134.601562 167.707031 135.40625 167.707031 C 135.476562 167.707031 135.546875 167.707031 135.621094 167.714844 C 136.5 167.769531 137.304688 168.160156 137.886719 168.820312 C 138.457031 169.46875 138.742188 170.3125 138.6875 171.195312 Z M 146.492188 170.75 C 146.441406 168.125 145.488281 165.632812 143.742188 163.660156 C 141.785156 161.433594 139.078125 160.105469 136.113281 159.921875 C 135.441406 159.878906 134.777344 159.902344 134.125 159.976562 C 133.726562 158.234375 132.898438 156.5625 131.636719 155.125 C 127.953125 150.953125 121.796875 150.226562 117.253906 153.1875 C 116.804688 152.148438 116.195312 151.164062 115.40625 150.273438 C 112.351562 146.796875 107.585938 145.695312 103.453125 147.113281 C 102.988281 145.800781 102.277344 144.574219 101.328125 143.503906 C 99.375 141.277344 96.660156 139.949219 93.6875 139.761719 C 90.726562 139.578125 87.867188 140.550781 85.652344 142.503906 L 76.191406 150.859375 C 75.816406 151.191406 75.472656 151.550781 75.148438 151.925781 C 72.894531 151.261719 70.683594 150.734375 68.488281 150.335938 L 77.542969 107.941406 L 83.765625 109.273438 C 84.035156 109.328125 84.308594 109.359375 84.582031 109.359375 C 84.960938 109.359375 85.335938 109.304688 85.699219 109.195312 C 88.328125 108.410156 91.027344 107.5625 93.640625 106.746094 C 96.363281 105.890625 99.121094 105.027344 101.910156 104.195312 L 94.253906 111.335938 C 89.886719 115.367188 88.085938 119.136719 88.898438 122.535156 C 89.257812 124.027344 90.464844 126.707031 94.542969 127.863281 C 100.984375 129.691406 112.390625 126.824219 121.992188 119.109375 C 129.191406 129.542969 140.261719 135.109375 151.003906 140.515625 C 159.699219 144.890625 168.648438 149.394531 175.386719 156.5 C 164.996094 163.671875 155.464844 168.382812 146.492188 170.75 Z M 182.652344 152.894531 C 174.8125 143.753906 164.503906 138.566406 154.511719 133.539062 C 143 127.75 132.121094 122.277344 126.359375 111.257812 C 125.78125 110.160156 124.71875 109.398438 123.492188 109.210938 C 122.265625 109.019531 121.023438 109.425781 120.144531 110.304688 C 111.191406 119.222656 99.921875 121.390625 96.730469 120.414062 C 97.039062 119.8125 97.78125 118.707031 99.566406 117.058594 L 117.640625 100.199219 C 138.6875 96.21875 156.96875 99.148438 173.492188 109.152344 C 174.34375 109.667969 175.355469 109.839844 176.328125 109.632812 L 184.242188 107.945312 L 193.367188 150.597656 Z M 182.652344 152.894531 " fill-opacity="1" fill-rule="nonzero"/></g></svg>