<svg xmlns="http://www.w3.org/2000/svg" xmlns:xlink="http://www.w3.org/1999/xlink" width="270" zoomAndPan="magnify" viewBox="0 0 202.5 225" height="300" preserveAspectRatio="xMidYMid meet" version="1.0"><defs><clipPath id="ef27069dbf"><path d="M 97 137 L 194.523438 137 L 194.523438 221.347656 L 97 221.347656 Z M 97 137 " clip-rule="nonzero"/></clipPath><clipPath id="2ba82c8a61"><path d="M 97 3.636719 L 167 3.636719 L 167 71 L 97 71 Z M 97 3.636719 " clip-rule="nonzero"/></clipPath><clipPath id="a69ab717a5"><path d="M 5.988281 136 L 104 136 L 104 221.347656 L 5.988281 221.347656 Z M 5.988281 136 " clip-rule="nonzero"/></clipPath><clipPath id="467e787bb6"><path d="M 33 3.636719 L 104 3.636719 L 104 71 L 33 71 Z M 33 3.636719 " clip-rule="nonzero"/></clipPath></defs><g clip-path="url(#ef27069dbf)"><path fill="#000000" d="M 180.648438 221.347656 L 100.253906 221.347656 C 98.671875 221.347656 97.378906 220.054688 97.378906 218.472656 L 97.378906 169.078125 C 97.378906 168.3125 97.714844 167.542969 98.242188 167.015625 L 128.394531 137.8125 C 129.019531 137.191406 129.929688 136.902344 130.839844 137.046875 C 131.75 137.191406 132.519531 137.71875 132.949219 138.53125 L 137.503906 147.019531 L 164.300781 154.070312 C 178.203125 157.714844 188.65625 169.320312 190.910156 183.511719 L 194.3125 205.378906 C 194.933594 209.410156 193.785156 213.4375 191.148438 216.554688 C 188.558594 219.574219 184.722656 221.347656 180.648438 221.347656 Z M 103.132812 215.59375 L 180.648438 215.59375 C 183.046875 215.59375 185.25 214.539062 186.832031 212.765625 C 188.367188 210.945312 189.039062 208.59375 188.703125 206.242188 L 185.300781 184.375 C 183.429688 172.386719 174.65625 162.652344 162.910156 159.585938 L 134.867188 152.199219 C 134.101562 152.007812 133.429688 151.480469 133.046875 150.808594 L 129.691406 144.574219 L 103.132812 170.277344 Z M 103.132812 215.59375 " fill-opacity="1" fill-rule="nonzero"/></g><path fill="#000000" d="M 161.953125 220.101562 C 160.371094 220.101562 159.078125 218.808594 159.078125 217.226562 L 159.078125 194.640625 C 159.078125 193.054688 160.371094 191.761719 161.953125 191.761719 C 163.535156 191.761719 164.828125 193.054688 164.828125 194.640625 L 164.828125 217.226562 C 164.828125 218.855469 163.535156 220.101562 161.953125 220.101562 Z M 161.953125 220.101562 " fill-opacity="1" fill-rule="nonzero"/><path fill="#000000" d="M 122.929688 184.375 C 122.453125 184.375 121.972656 184.28125 121.539062 184.042969 L 98.867188 171.621094 C 97.476562 170.855469 96.949219 169.128906 97.714844 167.738281 C 98.480469 166.347656 100.207031 165.820312 101.597656 166.585938 L 121.398438 177.421875 L 132.855469 148.363281 C 133.429688 146.875 135.109375 146.15625 136.59375 146.734375 C 138.078125 147.308594 138.796875 148.988281 138.222656 150.472656 L 125.566406 182.554688 C 125.28125 183.320312 124.65625 183.945312 123.890625 184.183594 C 123.554688 184.28125 123.265625 184.375 122.929688 184.375 Z M 122.929688 184.375 " fill-opacity="1" fill-rule="nonzero"/><path fill="#000000" d="M 100.253906 144 C 98.671875 144 97.378906 142.703125 97.378906 141.121094 C 97.378906 139.539062 98.671875 138.246094 100.253906 138.246094 C 106.871094 138.246094 114.492188 135.222656 121.683594 129.757812 C 128.875 124.242188 135.441406 116.519531 140.046875 108.035156 C 141.769531 104.820312 143.304688 101.222656 144.597656 97.242188 C 145.078125 95.710938 146.707031 94.894531 148.242188 95.375 C 149.777344 95.851562 150.589844 97.484375 150.113281 99.019531 C 148.722656 103.285156 147.042969 107.265625 145.175781 110.765625 C 134.484375 130.332031 116.027344 144 100.253906 144 Z M 100.253906 144 " fill-opacity="1" fill-rule="nonzero"/><path fill="#000000" d="M 142.105469 123.523438 L 121.875 123.523438 C 120.292969 123.523438 119 122.226562 119 120.644531 C 119 119.0625 120.292969 117.769531 121.875 117.769531 L 142.105469 117.769531 C 148.242188 117.769531 153.324219 113.164062 153.898438 107.027344 C 154.042969 105.445312 155.433594 104.292969 157.0625 104.4375 C 158.644531 104.582031 159.796875 106.019531 159.652344 107.601562 C 158.789062 116.664062 151.214844 123.523438 142.105469 123.523438 Z M 142.105469 123.523438 " fill-opacity="1" fill-rule="nonzero"/><path fill="#000000" d="M 112.71875 130.378906 L 109.21875 130.378906 C 104.140625 130.378906 100.015625 126.257812 100.015625 121.171875 L 100.015625 120.933594 C 100.015625 115.851562 104.140625 111.726562 109.21875 111.726562 L 112.71875 111.726562 C 117.800781 111.726562 121.925781 115.851562 121.925781 120.933594 L 121.925781 121.171875 C 121.925781 126.257812 117.800781 130.378906 112.71875 130.378906 Z M 109.21875 117.433594 C 107.304688 117.433594 105.769531 118.96875 105.769531 120.886719 L 105.769531 121.125 C 105.769531 123.042969 107.304688 124.578125 109.21875 124.578125 L 112.71875 124.578125 C 114.636719 124.578125 116.171875 123.042969 116.171875 121.125 L 116.171875 120.886719 C 116.171875 118.96875 114.636719 117.433594 112.71875 117.433594 Z M 109.21875 117.433594 " fill-opacity="1" fill-rule="nonzero"/><path fill="#000000" d="M 157.640625 108.371094 L 147.859375 108.371094 C 146.277344 108.371094 144.984375 107.074219 144.984375 105.492188 L 144.984375 66.167969 C 144.984375 64.585938 146.277344 63.292969 147.859375 63.292969 L 157.640625 63.292969 C 167.324219 63.292969 175.183594 71.15625 175.183594 80.84375 L 175.183594 90.816406 C 175.183594 100.503906 167.324219 108.371094 157.640625 108.371094 Z M 150.734375 102.613281 L 157.640625 102.613281 C 164.160156 102.613281 169.433594 97.339844 169.433594 90.816406 L 169.433594 80.84375 C 169.433594 74.320312 164.160156 69.046875 157.640625 69.046875 L 150.734375 69.046875 Z M 150.734375 102.613281 " fill-opacity="1" fill-rule="nonzero"/><g clip-path="url(#2ba82c8a61)"><path fill="#000000" d="M 164.015625 70.535156 C 162.433594 70.535156 161.136719 69.238281 161.136719 67.65625 C 161.136719 61.757812 158.980469 47.226562 150.925781 34.566406 C 140.285156 17.878906 123.21875 9.390625 100.253906 9.390625 C 98.671875 9.390625 97.378906 8.097656 97.378906 6.515625 C 97.378906 4.933594 98.671875 3.636719 100.253906 3.636719 C 113.773438 3.636719 125.617188 6.464844 135.492188 12.027344 C 143.6875 16.679688 150.496094 23.203125 155.769531 31.449219 C 164.542969 45.261719 166.890625 60.703125 166.890625 67.65625 C 166.890625 69.238281 165.597656 70.535156 164.015625 70.535156 Z M 164.015625 70.535156 " fill-opacity="1" fill-rule="nonzero"/></g><path fill="#000000" d="M 147.859375 69.09375 C 146.277344 69.09375 144.984375 67.800781 144.984375 66.21875 C 144.984375 43.152344 124.511719 23.632812 100.253906 23.632812 C 98.671875 23.632812 97.378906 22.339844 97.378906 20.757812 C 97.378906 19.175781 98.671875 17.878906 100.253906 17.878906 C 113.824219 17.878906 126.574219 23.105469 136.210938 32.601562 C 145.460938 41.710938 150.734375 53.988281 150.734375 66.21875 C 150.734375 67.800781 149.441406 69.09375 147.859375 69.09375 Z M 147.859375 69.09375 " fill-opacity="1" fill-rule="nonzero"/><g clip-path="url(#a69ab717a5)"><path fill="#000000" d="M 100.253906 221.347656 L 19.863281 221.347656 C 15.789062 221.347656 11.953125 219.574219 9.316406 216.507812 C 6.679688 213.4375 5.527344 209.359375 6.152344 205.332031 L 9.554688 183.464844 C 11.761719 169.222656 22.210938 157.667969 36.160156 154.023438 L 62.960938 146.972656 L 67.511719 138.484375 C 67.945312 137.667969 68.710938 137.140625 69.621094 136.996094 C 70.535156 136.855469 71.398438 137.140625 72.066406 137.765625 L 102.222656 166.96875 C 102.796875 167.496094 103.085938 168.265625 103.085938 169.03125 L 103.085938 218.425781 C 103.132812 220.054688 101.835938 221.347656 100.253906 221.347656 Z M 70.820312 144.574219 L 67.464844 150.808594 C 67.082031 151.527344 66.457031 152.007812 65.644531 152.199219 L 37.597656 159.585938 C 25.902344 162.652344 17.082031 172.386719 15.210938 184.375 L 11.808594 206.242188 C 11.425781 208.59375 12.097656 210.992188 13.679688 212.765625 C 15.210938 214.589844 17.464844 215.59375 19.863281 215.59375 L 97.378906 215.59375 L 97.378906 170.277344 Z M 64.925781 149.417969 Z M 64.925781 149.417969 " fill-opacity="1" fill-rule="nonzero"/></g><path fill="#000000" d="M 38.558594 220.101562 C 36.976562 220.101562 35.683594 218.808594 35.683594 217.226562 L 35.683594 194.640625 C 35.683594 193.054688 36.976562 191.761719 38.558594 191.761719 C 40.140625 191.761719 41.433594 193.054688 41.433594 194.640625 L 41.433594 217.226562 C 41.433594 218.855469 40.140625 220.101562 38.558594 220.101562 Z M 38.558594 220.101562 " fill-opacity="1" fill-rule="nonzero"/><path fill="#000000" d="M 77.582031 184.375 C 77.246094 184.375 76.910156 184.328125 76.621094 184.183594 C 75.855469 183.898438 75.230469 183.320312 74.945312 182.554688 L 62.289062 150.472656 C 61.710938 148.988281 62.433594 147.308594 63.917969 146.734375 C 65.402344 146.15625 67.082031 146.875 67.65625 148.363281 L 79.113281 177.421875 L 98.914062 166.585938 C 100.304688 165.820312 102.078125 166.347656 102.796875 167.738281 C 103.5625 169.128906 103.035156 170.902344 101.644531 171.621094 L 78.972656 184.042969 C 78.539062 184.234375 78.058594 184.375 77.582031 184.375 Z M 77.582031 184.375 " fill-opacity="1" fill-rule="nonzero"/><path fill="#000000" d="M 100.253906 144 C 84.484375 144 66.027344 130.332031 55.433594 110.765625 C 53.515625 107.265625 51.835938 103.285156 50.496094 99.019531 C 50.015625 97.484375 50.832031 95.902344 52.363281 95.375 C 53.898438 94.894531 55.480469 95.710938 56.007812 97.242188 C 57.300781 101.175781 58.835938 104.820312 60.5625 108.035156 C 65.210938 116.570312 71.730469 124.289062 78.921875 129.757812 C 86.113281 135.222656 93.734375 138.246094 100.351562 138.246094 C 101.933594 138.246094 103.226562 139.539062 103.226562 141.121094 C 103.226562 142.703125 101.835938 144 100.253906 144 Z M 100.253906 144 " fill-opacity="1" fill-rule="nonzero"/><path fill="#000000" d="M 52.652344 108.371094 L 42.871094 108.371094 C 33.1875 108.371094 25.328125 100.503906 25.328125 90.816406 L 25.328125 80.84375 C 25.328125 71.15625 33.1875 63.292969 42.871094 63.292969 L 52.652344 63.292969 C 54.234375 63.292969 55.527344 64.585938 55.527344 66.167969 L 55.527344 105.492188 C 55.527344 107.121094 54.234375 108.371094 52.652344 108.371094 Z M 42.871094 69.09375 C 36.351562 69.09375 31.078125 74.371094 31.078125 80.890625 L 31.078125 90.867188 C 31.078125 97.386719 36.351562 102.664062 42.871094 102.664062 L 49.777344 102.664062 L 49.777344 69.09375 Z M 42.871094 69.09375 " fill-opacity="1" fill-rule="nonzero"/><g clip-path="url(#467e787bb6)"><path fill="#000000" d="M 36.496094 70.535156 C 34.914062 70.535156 33.621094 69.238281 33.621094 67.65625 C 33.621094 60.703125 35.96875 45.261719 44.742188 31.449219 C 50.015625 23.203125 56.824219 16.679688 65.019531 12.027344 C 74.894531 6.464844 86.738281 3.636719 100.253906 3.636719 C 101.835938 3.636719 103.132812 4.933594 103.132812 6.515625 C 103.132812 8.097656 101.835938 9.390625 100.253906 9.390625 C 77.292969 9.390625 60.226562 17.832031 49.632812 34.519531 C 41.53125 47.226562 39.421875 61.710938 39.421875 67.609375 C 39.375 69.238281 38.078125 70.535156 36.496094 70.535156 Z M 36.496094 70.535156 " fill-opacity="1" fill-rule="nonzero"/></g><path fill="#000000" d="M 52.652344 69.09375 C 51.070312 69.09375 49.777344 67.800781 49.777344 66.21875 C 49.777344 53.941406 55.097656 41.710938 64.300781 32.601562 C 73.9375 23.105469 86.6875 17.878906 100.253906 17.878906 C 101.835938 17.878906 103.132812 19.175781 103.132812 20.757812 C 103.132812 22.339844 101.835938 23.632812 100.253906 23.632812 C 76 23.632812 55.527344 43.152344 55.527344 66.21875 C 55.527344 67.800781 54.234375 69.09375 52.652344 69.09375 Z M 52.652344 69.09375 " fill-opacity="1" fill-rule="nonzero"/><path fill="#000000" d="M 126.863281 145.964844 C 125.28125 145.964844 123.984375 144.671875 123.984375 143.089844 L 123.984375 131.195312 C 123.984375 129.613281 125.28125 128.316406 126.863281 128.316406 C 128.445312 128.316406 129.738281 129.613281 129.738281 131.195312 L 129.738281 143.089844 C 129.738281 144.671875 128.445312 145.964844 126.863281 145.964844 Z M 126.863281 145.964844 " fill-opacity="1" fill-rule="nonzero"/><path fill="#000000" d="M 73.648438 145.964844 C 72.066406 145.964844 70.773438 144.671875 70.773438 143.089844 L 70.773438 131.195312 C 70.773438 129.613281 72.066406 128.316406 73.648438 128.316406 C 75.230469 128.316406 76.527344 129.613281 76.527344 131.195312 L 76.527344 143.089844 C 76.527344 144.671875 75.230469 145.964844 73.648438 145.964844 Z M 73.648438 145.964844 " fill-opacity="1" fill-rule="nonzero"/><path fill="#000000" d="M 61.136719 84.582031 L 54.042969 84.582031 C 52.460938 84.582031 51.167969 83.289062 51.167969 81.707031 C 51.167969 80.125 52.460938 78.828125 54.042969 78.828125 L 58.308594 78.828125 C 58.597656 74.128906 59.9375 65.546875 66.265625 63.003906 C 68.136719 62.238281 71.011719 61.855469 74.703125 61.375 C 85.632812 59.886719 103.851562 57.441406 112.71875 42.046875 C 113.246094 41.089844 114.300781 40.5625 115.355469 40.609375 C 116.460938 40.65625 117.417969 41.328125 117.847656 42.335938 C 123.601562 55.761719 130.265625 59.742188 136.113281 63.195312 L 136.304688 63.339844 C 141.628906 66.503906 142.441406 73.507812 142.394531 77.679688 L 145.03125 77.679688 C 146.613281 77.679688 147.90625 78.972656 147.90625 80.554688 C 147.90625 82.136719 146.613281 83.433594 145.03125 83.433594 L 139.324219 83.433594 C 138.511719 83.433594 137.695312 83.050781 137.167969 82.425781 C 136.640625 81.800781 136.355469 80.988281 136.496094 80.125 C 136.832031 77.726562 136.929688 70.390625 133.332031 68.230469 L 133.140625 68.085938 C 127.53125 64.777344 120.773438 60.703125 114.734375 49.195312 C 103.945312 63.148438 86.351562 65.5 75.421875 66.984375 C 72.308594 67.417969 69.621094 67.75 68.375 68.28125 C 64.734375 69.765625 63.820312 77.871094 63.964844 81.515625 C 64.015625 82.28125 63.726562 83.050781 63.152344 83.625 C 62.671875 84.296875 61.90625 84.582031 61.136719 84.582031 Z M 61.136719 84.582031 " fill-opacity="1" fill-rule="nonzero"/></svg>