<svg width="14" height="14" viewBox="0 0 14 14" fill="none" xmlns="http://www.w3.org/2000/svg">
<g clip-path="url(#clip0_1867_9143)">
<path d="M7 0.875C8.62445 0.875 10.1824 1.52031 11.331 2.66897C12.4797 3.81763 13.125 5.37555 13.125 7C13.125 8.62445 12.4797 10.1824 11.331 11.331C10.1824 12.4797 8.62445 13.125 7 13.125C5.37555 13.125 3.81763 12.4797 2.66897 11.331C1.52031 10.1824 0.875 8.62445 0.875 7C0.875 5.37555 1.52031 3.81763 2.66897 2.66897C3.81763 1.52031 5.37555 0.875 7 0.875ZM7 1.75C6.31056 1.75 5.62787 1.8858 4.99091 2.14963C4.35395 2.41347 3.7752 2.80018 3.28769 3.28769C2.80018 3.7752 2.41347 4.35395 2.14963 4.99091C1.8858 5.62787 1.75 6.31056 1.75 7C1.75 7.68944 1.8858 8.37213 2.14963 9.00909C2.41347 9.64605 2.80018 10.2248 3.28769 10.7123C3.7752 11.1998 4.35395 11.5865 4.99091 11.8504C5.62787 12.1142 6.31056 12.25 7 12.25C8.39239 12.25 9.72774 11.6969 10.7123 10.7123C11.6969 9.72774 12.25 8.39239 12.25 7C12.25 5.60761 11.6969 4.27226 10.7123 3.28769C9.72774 2.30312 8.39239 1.75 7 1.75ZM6.88713 3.07037C7.07806 3.0434 7.27254 3.08091 7.43975 3.17696C7.60697 3.27301 7.73735 3.4221 7.81025 3.60062L8.652 5.61837L8.65462 5.62537L8.73512 5.81962C9.05013 6.57475 9.05013 7.42437 8.73512 8.1795L7.80938 10.3994C7.51013 11.1169 6.49337 11.1169 6.19413 10.3994L5.2675 8.1795C5.11143 7.80569 5.03107 7.40464 5.03107 6.99956C5.03107 6.59448 5.11143 6.19343 5.2675 5.81962L6.195 3.60062C6.25248 3.45831 6.34711 3.33403 6.46901 3.24076C6.59091 3.14749 6.7356 3.08865 6.888 3.07037M5.99375 7.60812C6.01592 7.68746 6.04275 7.76563 6.07425 7.84263L7.00175 10.0616L7.9275 7.84263C7.95842 7.76621 7.98496 7.68833 8.00712 7.609C7.88461 7.68571 7.75211 7.74518 7.61338 7.78575C7.21392 7.90208 6.78958 7.90208 6.39012 7.78575C6.25013 7.74521 6.11731 7.68543 5.99375 7.60812Z" fill="#1A1A1A" fill-opacity="0.5"/>
</g>
<defs>
<clipPath id="clip0_1867_9143">
<rect width="14" height="14" fill="white"/>
</clipPath>
</defs>
</svg>
