<svg width="16" height="16" viewBox="0 0 16 16" fill="none" xmlns="http://www.w3.org/2000/svg">
<g clip-path="url(#clip0_6274_12182)">
<path d="M15.208 5.0897L14.6667 4.66504V1.33304H13.3333V3.62104L9.272 0.439035C8.52267 -0.148298 7.47667 -0.148298 6.72867 0.439035L0.792 5.0897C0.288667 5.4837 0 6.07637 0 6.7157V15.9997H16V6.7157C16 6.07637 15.7113 5.48304 15.208 5.0897ZM14.6667 14.6664H1.33333V6.7157C1.33333 6.48904 1.43533 6.27904 1.614 6.13904L7.55067 1.48837C7.81533 1.28037 8.18467 1.28104 8.45 1.48837L14.3867 6.1397C14.5647 6.27904 14.6667 6.48904 14.6667 6.7157V14.6664ZM11.3333 11.6664C11.3333 12.2184 10.8853 12.6664 10.3333 12.6664C9.78133 12.6664 9.33333 12.2184 9.33333 11.6664C9.33333 11.1144 9.78133 10.6664 10.3333 10.6664C10.8853 10.6664 11.3333 11.1144 11.3333 11.6664ZM5.66667 8.66637C5.11467 8.66637 4.66667 8.21837 4.66667 7.66637C4.66667 7.11437 5.11467 6.66637 5.66667 6.66637C6.21867 6.66637 6.66667 7.11437 6.66667 7.66637C6.66667 8.21837 6.21867 8.66637 5.66667 8.66637ZM10.7693 6.66637L6.88067 12.6664H5.23133L9.12 6.66637H10.7693Z" fill="#1A1A1A"/>
</g>
<defs>
<clipPath id="clip0_6274_12182">
<rect width="16" height="16" fill="white"/>
</clipPath>
</defs>
</svg>
