<svg width="48" height="48" viewBox="0 0 48 48" fill="none" xmlns="http://www.w3.org/2000/svg">
<path d="M27.22 24.4856C27.2079 25.1192 27.008 25.7349 26.6456 26.2547C26.2832 26.7745 25.7746 27.1751 25.1843 27.4055C24.594 27.636 23.9486 27.686 23.3298 27.5492C22.7111 27.4124 22.1469 27.095 21.7087 26.6372C21.2706 26.1794 20.9782 25.6018 20.8687 24.9776C20.7592 24.3535 20.8375 23.7109 21.0936 23.1312C21.3497 22.5516 21.7721 22.0611 22.3074 21.7218C22.8426 21.3826 23.4665 21.2099 24.1 21.2256C24.9418 21.2568 25.7383 21.6146 26.3208 22.2232C26.9032 22.8317 27.2258 23.6432 27.22 24.4856Z" fill="black"/>
<path d="M29.5259 14.4658H18.6759C17.6023 14.4658 16.5727 14.8923 15.8136 15.6515C15.0544 16.4106 14.6279 17.4402 14.6279 18.5138V29.6078C14.6279 30.1394 14.7326 30.6658 14.9361 31.1569C15.1395 31.648 15.4377 32.0943 15.8136 32.4702C16.1895 32.8461 16.6357 33.1443 17.1268 33.3477C17.618 33.5511 18.1443 33.6558 18.6759 33.6558H29.5259C30.0575 33.6558 30.5839 33.5511 31.075 33.3477C31.5662 33.1443 32.0124 32.8461 32.3883 32.4702C32.7642 32.0943 33.0624 31.648 33.2658 31.1569C33.4692 30.6658 33.5739 30.1394 33.5739 29.6078V18.5338C33.576 18.0007 33.4729 17.4724 33.2705 16.9792C33.068 16.486 32.7703 16.0376 32.3942 15.6597C32.0182 15.2818 31.5712 14.9818 31.079 14.7769C30.5868 14.5721 30.0591 14.4663 29.5259 14.4658ZM24.0999 29.9118C23.0259 29.9361 21.9689 29.6397 21.064 29.0606C20.1591 28.4816 19.4472 27.646 19.0193 26.6605C18.5914 25.6751 18.4668 24.5845 18.6614 23.5279C18.856 22.4714 19.361 21.4967 20.1119 20.7285C20.8629 19.9602 21.8257 19.433 22.8776 19.2144C23.9294 18.9957 25.0226 19.0954 26.0175 19.5007C27.0125 19.9061 27.8641 20.5987 28.4637 21.4901C29.0633 22.3816 29.3837 23.4315 29.3839 24.5058C29.3926 25.2079 29.2628 25.9049 29.0019 26.5567C28.7409 27.2086 28.3539 27.8026 27.8631 28.3047C27.3723 28.8069 26.7873 29.2073 26.1416 29.483C25.4958 29.7588 24.8021 29.9045 24.0999 29.9118ZM29.9719 19.1018C29.84 19.1018 29.7093 19.0755 29.5876 19.0244C29.466 18.9733 29.3557 18.8985 29.2633 18.8042C29.1709 18.71 29.0983 18.5983 29.0496 18.4756C29.001 18.3529 28.9773 18.2218 28.9799 18.0898C28.9799 17.8214 29.0865 17.564 29.2763 17.3742C29.4661 17.1844 29.7235 17.0778 29.9919 17.0778C30.2603 17.0778 30.5177 17.1844 30.7075 17.3742C30.8973 17.564 31.0039 17.8214 31.0039 18.0898C31.0079 18.2327 30.981 18.3747 30.9249 18.5062C30.8689 18.6377 30.7851 18.7556 30.6793 18.8517C30.5735 18.9478 30.4482 19.0199 30.312 19.0631C30.1757 19.1062 30.0318 19.1195 29.8899 19.1018H29.9719Z" fill="black"/>
<path d="M24.1 4.00025C18.7957 3.97373 13.6981 6.05543 9.92858 9.7874C6.1591 13.5194 4.02653 18.5959 4.00001 23.9002C3.97348 29.2046 6.05519 34.3022 9.78716 38.0717C13.5191 41.8412 18.5957 43.9737 23.9 44.0003C26.5264 44.0134 29.1297 43.5091 31.5613 42.5161C33.9928 41.5231 36.205 40.061 38.0714 38.2131C39.9379 36.3652 41.4221 34.1678 42.4393 31.7463C43.4566 29.3248 43.9869 26.7267 44 24.1003C44.0131 21.4738 43.5088 18.8705 42.5159 16.439C41.5229 14.0074 40.0607 11.7953 38.2129 9.92883C36.365 8.06237 34.1675 6.57815 31.7461 5.56093C29.3246 4.5437 26.7264 4.01338 24.1 4.00025ZM36.246 29.4042C36.2516 30.3015 36.079 31.191 35.7383 32.021C35.3975 32.8511 34.8954 33.6053 34.261 34.2399C33.6266 34.8744 32.8726 35.3768 32.0426 35.7177C31.2127 36.0587 30.3233 36.2316 29.426 36.2263H18.778C17.8807 36.2318 16.9913 36.0592 16.1612 35.7185C15.3312 35.3778 14.577 34.8756 13.9424 34.2413C13.3078 33.6069 12.8055 32.8529 12.4645 32.0229C12.1235 31.1929 11.9507 30.3035 11.956 29.4062V18.7563C11.9504 17.859 12.123 16.9695 12.4638 16.1395C12.8045 15.3094 13.3066 14.5552 13.941 13.9207C14.5754 13.2861 15.3294 12.7837 16.1594 12.4428C16.9893 12.1018 17.8787 11.9289 18.776 11.9343H29.426C30.3231 11.9289 31.2123 12.1017 32.0422 12.4426C32.872 12.7834 33.626 13.2856 34.2603 13.9199C34.8947 14.5543 35.3968 15.3082 35.7377 16.1381C36.0785 16.9679 36.2513 17.8572 36.246 18.7543V29.4042Z" fill="black"/>
</svg>
