<svg width="26" height="32" viewBox="0 0 26 32" fill="none" xmlns="http://www.w3.org/2000/svg">
<path d="M1 30.1667V1H17.7708L24.3333 8.65625V30.1667H1Z" stroke="#FF0000" stroke-width="2" stroke-linecap="round" stroke-linejoin="round"/>
<path d="M7.5625 11.2083L17.7708 21.4166M19.9583 16.3124C19.9583 20.3396 16.6939 23.6041 12.6667 23.6041C8.63948 23.6041 5.375 20.3396 5.375 16.3124C5.375 12.2852 8.63948 9.02076 12.6667 9.02076C14.5285 9.01859 16.3202 9.73083 17.6724 11.0107C18.3953 11.6914 18.9711 12.513 19.3643 13.4249C19.7574 14.3367 19.9596 15.3194 19.9583 16.3124Z" stroke="#FF0000" stroke-width="2" stroke-linecap="round" stroke-linejoin="round"/>
<path d="M19.9583 16.3124C19.9583 20.3396 16.6939 23.6041 12.6667 23.6041M5.375 16.3124C5.375 12.2852 8.63948 9.02075 12.6667 9.02075" stroke="#FF0000" stroke-width="2" stroke-linecap="round" stroke-linejoin="round"/>
</svg>
