<svg xmlns="http://www.w3.org/2000/svg" xmlns:xlink="http://www.w3.org/1999/xlink" width="350" zoomAndPan="magnify" viewBox="0 0 262.5 277.500005" height="370" preserveAspectRatio="xMidYMid meet" version="1.0"><defs><clipPath id="49dd250564"><path d="M 109 246 L 153 246 L 153 271.890625 L 109 271.890625 Z M 109 246 " clip-rule="nonzero"/></clipPath><clipPath id="d50e0dccb4"><path d="M 24 110 L 237 110 L 237 271.890625 L 24 271.890625 Z M 24 110 " clip-rule="nonzero"/></clipPath><clipPath id="748c82b160"><path d="M 8.046875 5.398438 L 253.582031 5.398438 L 253.582031 119 L 8.046875 119 Z M 8.046875 5.398438 " clip-rule="nonzero"/></clipPath></defs><path fill="#000000" d="M 130.816406 254.058594 C 130.292969 254.058594 129.792969 253.960938 129.3125 253.761719 C 128.832031 253.5625 128.410156 253.277344 128.042969 252.910156 C 127.671875 252.539062 127.390625 252.113281 127.191406 251.632812 C 126.992188 251.152344 126.890625 250.648438 126.890625 250.128906 L 126.890625 179.445312 C 126.890625 178.925781 126.992188 178.421875 127.191406 177.941406 C 127.390625 177.460938 127.671875 177.035156 128.042969 176.667969 C 128.410156 176.296875 128.832031 176.011719 129.3125 175.8125 C 129.792969 175.613281 130.292969 175.515625 130.816406 175.515625 C 131.335938 175.515625 131.835938 175.613281 132.316406 175.8125 C 132.796875 176.011719 133.21875 176.296875 133.589844 176.667969 C 133.957031 177.035156 134.238281 177.460938 134.4375 177.941406 C 134.636719 178.421875 134.738281 178.925781 134.738281 179.445312 L 134.738281 250.128906 C 134.738281 250.648438 134.636719 251.152344 134.4375 251.632812 C 134.238281 252.113281 133.957031 252.539062 133.589844 252.910156 C 133.21875 253.277344 132.796875 253.5625 132.316406 253.761719 C 131.835938 253.960938 131.335938 254.058594 130.816406 254.058594 Z M 130.816406 254.058594 " fill-opacity="1" fill-rule="nonzero"/><g clip-path="url(#49dd250564)"><path fill="#000000" d="M 148.492188 271.785156 C 147.972656 271.785156 147.472656 271.683594 146.992188 271.484375 C 146.511719 271.285156 146.085938 271 145.71875 270.632812 C 145.351562 270.261719 145.066406 269.839844 144.867188 269.355469 C 144.671875 268.875 144.570312 268.371094 144.570312 267.851562 C 144.570312 266.945312 144.480469 266.050781 144.304688 265.160156 C 144.128906 264.273438 143.867188 263.410156 143.523438 262.574219 C 143.175781 261.738281 142.753906 260.941406 142.253906 260.1875 C 141.75 259.4375 141.179688 258.738281 140.542969 258.097656 C 139.902344 257.460938 139.207031 256.886719 138.457031 256.382812 C 137.707031 255.882812 136.914062 255.457031 136.078125 255.109375 C 135.246094 254.761719 134.382812 254.5 133.5 254.324219 C 132.613281 254.148438 131.71875 254.058594 130.816406 254.058594 C 129.910156 254.058594 129.015625 254.148438 128.132812 254.324219 C 127.246094 254.5 126.386719 254.761719 125.550781 255.109375 C 124.714844 255.457031 123.921875 255.882812 123.171875 256.382812 C 122.421875 256.886719 121.726562 257.460938 121.085938 258.097656 C 120.449219 258.738281 119.878906 259.4375 119.378906 260.1875 C 118.875 260.941406 118.453125 261.738281 118.105469 262.574219 C 117.761719 263.410156 117.5 264.273438 117.324219 265.160156 C 117.148438 266.050781 117.058594 266.945312 117.058594 267.851562 C 117.058594 268.371094 116.960938 268.875 116.761719 269.355469 C 116.5625 269.839844 116.277344 270.261719 115.910156 270.632812 C 115.542969 271 115.117188 271.285156 114.636719 271.484375 C 114.15625 271.683594 113.65625 271.785156 113.136719 271.785156 C 112.617188 271.785156 112.117188 271.683594 111.636719 271.484375 C 111.15625 271.285156 110.730469 271 110.363281 270.632812 C 109.996094 270.261719 109.710938 269.839844 109.511719 269.355469 C 109.3125 268.875 109.214844 268.371094 109.214844 267.851562 C 109.214844 267.140625 109.25 266.433594 109.316406 265.730469 C 109.386719 265.023438 109.492188 264.320312 109.628906 263.625 C 109.765625 262.929688 109.9375 262.242188 110.144531 261.566406 C 110.351562 260.886719 110.585938 260.21875 110.859375 259.5625 C 111.128906 258.910156 111.429688 258.269531 111.765625 257.644531 C 112.097656 257.015625 112.460938 256.410156 112.855469 255.820312 C 113.246094 255.230469 113.667969 254.660156 114.117188 254.113281 C 114.566406 253.566406 115.039062 253.039062 115.539062 252.539062 C 116.042969 252.035156 116.566406 251.5625 117.113281 251.109375 C 117.660156 250.660156 118.226562 250.238281 118.8125 249.84375 C 119.402344 249.449219 120.007812 249.085938 120.632812 248.753906 C 121.257812 248.417969 121.894531 248.117188 122.546875 247.84375 C 123.203125 247.574219 123.867188 247.332031 124.542969 247.128906 C 125.222656 246.921875 125.90625 246.75 126.601562 246.613281 C 127.292969 246.472656 127.992188 246.371094 128.699219 246.300781 C 129.402344 246.230469 130.105469 246.195312 130.816406 246.195312 C 131.523438 246.195312 132.226562 246.230469 132.933594 246.300781 C 133.636719 246.371094 134.335938 246.472656 135.027344 246.613281 C 135.722656 246.75 136.40625 246.921875 137.085938 247.128906 C 137.761719 247.332031 138.425781 247.574219 139.082031 247.84375 C 139.734375 248.117188 140.371094 248.417969 140.996094 248.753906 C 141.621094 249.085938 142.226562 249.449219 142.816406 249.84375 C 143.402344 250.238281 143.972656 250.660156 144.519531 251.109375 C 145.066406 251.5625 145.589844 252.035156 146.089844 252.539062 C 146.589844 253.039062 147.0625 253.566406 147.511719 254.113281 C 147.960938 254.660156 148.382812 255.230469 148.773438 255.820312 C 149.167969 256.410156 149.53125 257.015625 149.863281 257.644531 C 150.199219 258.269531 150.5 258.910156 150.769531 259.5625 C 151.042969 260.21875 151.28125 260.886719 151.484375 261.566406 C 151.691406 262.242188 151.863281 262.929688 152 263.625 C 152.136719 264.320312 152.242188 265.023438 152.3125 265.730469 C 152.378906 266.433594 152.414062 267.140625 152.414062 267.851562 C 152.414062 268.371094 152.316406 268.875 152.117188 269.355469 C 151.917969 269.839844 151.632812 270.261719 151.265625 270.632812 C 150.898438 271 150.472656 271.285156 149.992188 271.484375 C 149.511719 271.683594 149.011719 271.785156 148.492188 271.785156 Z M 148.492188 271.785156 " fill-opacity="1" fill-rule="nonzero"/></g><path fill="#000000" d="M 181.359375 174.957031 L 139.21875 174.957031 C 138.699219 174.957031 138.199219 174.859375 137.71875 174.660156 C 137.238281 174.460938 136.8125 174.175781 136.445312 173.804688 C 136.078125 173.4375 135.792969 173.011719 135.597656 172.53125 C 135.398438 172.050781 135.296875 171.546875 135.296875 171.027344 C 135.296875 170.503906 135.398438 170.003906 135.597656 169.519531 C 135.792969 169.039062 136.078125 168.613281 136.445312 168.246094 C 136.8125 167.875 137.238281 167.59375 137.71875 167.394531 C 138.199219 167.191406 138.699219 167.09375 139.21875 167.09375 L 181.367188 167.09375 C 181.886719 167.09375 182.386719 167.191406 182.867188 167.394531 C 183.347656 167.59375 183.773438 167.875 184.140625 168.246094 C 184.507812 168.613281 184.792969 169.039062 184.992188 169.519531 C 185.1875 170.003906 185.289062 170.503906 185.289062 171.027344 C 185.289062 171.546875 185.1875 172.050781 184.992188 172.53125 C 184.792969 173.011719 184.507812 173.4375 184.140625 173.804688 C 183.773438 174.175781 183.347656 174.460938 182.867188 174.660156 C 182.386719 174.859375 181.886719 174.957031 181.367188 174.957031 Z M 181.359375 174.957031 " fill-opacity="1" fill-rule="nonzero"/><path fill="#000000" d="M 122.410156 174.957031 L 80.273438 174.957031 C 79.753906 174.957031 79.253906 174.859375 78.773438 174.660156 C 78.292969 174.460938 77.867188 174.175781 77.5 173.804688 C 77.132812 173.4375 76.847656 173.011719 76.648438 172.53125 C 76.449219 172.050781 76.351562 171.546875 76.351562 171.027344 C 76.351562 170.503906 76.449219 170.003906 76.648438 169.519531 C 76.847656 169.039062 77.132812 168.613281 77.5 168.246094 C 77.867188 167.875 78.292969 167.59375 78.773438 167.394531 C 79.253906 167.191406 79.753906 167.09375 80.273438 167.09375 L 122.410156 167.09375 C 122.929688 167.09375 123.429688 167.191406 123.910156 167.394531 C 124.390625 167.59375 124.816406 167.875 125.183594 168.246094 C 125.550781 168.613281 125.835938 169.039062 126.035156 169.519531 C 126.234375 170.003906 126.332031 170.503906 126.332031 171.027344 C 126.332031 171.546875 126.234375 172.050781 126.035156 172.53125 C 125.835938 173.011719 125.550781 173.4375 125.183594 173.804688 C 124.816406 174.175781 124.390625 174.460938 123.910156 174.660156 C 123.429688 174.859375 122.929688 174.957031 122.410156 174.957031 Z M 122.410156 174.957031 " fill-opacity="1" fill-rule="nonzero"/><path fill="#000000" d="M 87.960938 207.410156 C 87.574219 207.410156 87.195312 207.355469 86.824219 207.242188 C 86.449219 207.128906 86.105469 206.964844 85.78125 206.75 C 85.457031 206.535156 85.175781 206.273438 84.929688 205.972656 C 84.683594 205.671875 84.484375 205.34375 84.335938 204.984375 L 73.128906 177.828125 C 72.929688 177.347656 72.832031 176.84375 72.832031 176.320312 C 72.832031 175.800781 72.929688 175.296875 73.128906 174.816406 C 73.328125 174.332031 73.613281 173.90625 73.980469 173.539062 C 74.351562 173.167969 74.773438 172.886719 75.257812 172.6875 C 75.738281 172.484375 76.238281 172.386719 76.757812 172.386719 C 77.28125 172.386719 77.78125 172.488281 78.261719 172.6875 C 78.742188 172.886719 79.167969 173.171875 79.535156 173.539062 C 79.902344 173.910156 80.1875 174.335938 80.386719 174.816406 L 91.59375 201.972656 C 91.714844 202.273438 91.800781 202.582031 91.847656 202.902344 C 91.894531 203.222656 91.902344 203.542969 91.871094 203.863281 C 91.839844 204.1875 91.769531 204.5 91.660156 204.804688 C 91.554688 205.109375 91.410156 205.394531 91.230469 205.664062 C 91.050781 205.933594 90.839844 206.175781 90.601562 206.394531 C 90.363281 206.609375 90.101562 206.796875 89.816406 206.949219 C 89.53125 207.101562 89.234375 207.214844 88.921875 207.292969 C 88.605469 207.371094 88.289062 207.410156 87.96875 207.410156 Z M 87.960938 207.410156 " fill-opacity="1" fill-rule="nonzero"/><path fill="#000000" d="M 61.15625 207.410156 C 60.832031 207.410156 60.515625 207.371094 60.203125 207.292969 C 59.890625 207.214844 59.589844 207.101562 59.304688 206.949219 C 59.019531 206.796875 58.757812 206.609375 58.519531 206.394531 C 58.28125 206.175781 58.070312 205.933594 57.894531 205.664062 C 57.714844 205.394531 57.570312 205.109375 57.460938 204.804688 C 57.351562 204.5 57.28125 204.1875 57.25 203.863281 C 57.21875 203.542969 57.226562 203.222656 57.273438 202.902344 C 57.320312 202.582031 57.40625 202.273438 57.53125 201.972656 L 68.738281 174.816406 C 68.828125 174.570312 68.945312 174.335938 69.085938 174.113281 C 69.226562 173.890625 69.386719 173.683594 69.566406 173.492188 C 69.75 173.300781 69.945312 173.132812 70.164062 172.980469 C 70.378906 172.832031 70.605469 172.703125 70.847656 172.597656 C 71.089844 172.492188 71.335938 172.414062 71.59375 172.359375 C 71.851562 172.304688 72.109375 172.277344 72.375 172.273438 C 72.636719 172.273438 72.898438 172.296875 73.15625 172.347656 C 73.414062 172.398438 73.664062 172.472656 73.90625 172.574219 C 74.148438 172.671875 74.378906 172.796875 74.597656 172.945312 C 74.816406 173.089844 75.015625 173.257812 75.199219 173.445312 C 75.382812 173.632812 75.546875 173.839844 75.691406 174.058594 C 75.835938 174.28125 75.957031 174.511719 76.050781 174.757812 C 76.148438 175.003906 76.222656 175.253906 76.265625 175.511719 C 76.3125 175.773438 76.332031 176.035156 76.328125 176.296875 C 76.320312 176.5625 76.289062 176.820312 76.230469 177.078125 C 76.171875 177.335938 76.089844 177.582031 75.980469 177.824219 L 64.773438 204.984375 C 64.625 205.34375 64.429688 205.671875 64.183594 205.972656 C 63.9375 206.273438 63.65625 206.53125 63.332031 206.746094 C 63.011719 206.964844 62.664062 207.128906 62.292969 207.242188 C 61.921875 207.355469 61.542969 207.410156 61.15625 207.410156 Z M 61.15625 207.410156 " fill-opacity="1" fill-rule="nonzero"/><path fill="#000000" d="M 74.558594 225.207031 C 73.847656 225.207031 73.140625 225.171875 72.433594 225.101562 C 71.730469 225.03125 71.027344 224.925781 70.332031 224.785156 C 69.636719 224.648438 68.949219 224.472656 68.269531 224.265625 C 67.589844 224.058594 66.921875 223.820312 66.269531 223.546875 C 65.613281 223.273438 64.972656 222.972656 64.347656 222.636719 C 63.71875 222.300781 63.113281 221.933594 62.523438 221.539062 C 61.933594 221.144531 61.363281 220.71875 60.816406 220.269531 C 60.265625 219.816406 59.742188 219.339844 59.238281 218.835938 C 58.738281 218.335938 58.261719 217.808594 57.8125 217.257812 C 57.363281 216.707031 56.9375 216.136719 56.542969 215.546875 C 56.148438 214.953125 55.785156 214.34375 55.449219 213.71875 C 55.117188 213.089844 54.8125 212.449219 54.542969 211.789062 C 54.269531 211.132812 54.03125 210.464844 53.824219 209.785156 C 53.617188 209.101562 53.445312 208.414062 53.304688 207.714844 C 53.167969 207.019531 53.0625 206.316406 52.992188 205.609375 C 52.921875 204.898438 52.886719 204.191406 52.886719 203.480469 C 52.886719 202.957031 52.984375 202.457031 53.183594 201.972656 C 53.382812 201.492188 53.667969 201.066406 54.035156 200.699219 C 54.402344 200.328125 54.824219 200.046875 55.304688 199.847656 C 55.785156 199.644531 56.289062 199.546875 56.808594 199.546875 L 92.308594 199.546875 C 92.828125 199.546875 93.328125 199.644531 93.808594 199.847656 C 94.289062 200.046875 94.714844 200.328125 95.082031 200.699219 C 95.449219 201.066406 95.734375 201.492188 95.933594 201.972656 C 96.132812 202.457031 96.230469 202.957031 96.230469 203.480469 C 96.230469 204.191406 96.195312 204.898438 96.125 205.609375 C 96.054688 206.316406 95.949219 207.019531 95.8125 207.714844 C 95.671875 208.414062 95.5 209.101562 95.292969 209.785156 C 95.085938 210.464844 94.847656 211.132812 94.574219 211.789062 C 94.304688 212.449219 94 213.089844 93.664062 213.71875 C 93.332031 214.34375 92.964844 214.953125 92.570312 215.546875 C 92.179688 216.136719 91.753906 216.707031 91.304688 217.257812 C 90.855469 217.808594 90.378906 218.335938 89.878906 218.835938 C 89.375 219.339844 88.851562 219.816406 88.300781 220.269531 C 87.753906 220.71875 87.183594 221.144531 86.59375 221.539062 C 86.003906 221.933594 85.394531 222.300781 84.769531 222.636719 C 84.144531 222.972656 83.503906 223.273438 82.847656 223.546875 C 82.195312 223.820312 81.527344 224.058594 80.847656 224.265625 C 80.167969 224.472656 79.480469 224.648438 78.785156 224.785156 C 78.089844 224.925781 77.386719 225.03125 76.683594 225.101562 C 75.976562 225.171875 75.269531 225.207031 74.558594 225.207031 Z M 61.296875 207.410156 C 61.503906 208.125 61.769531 208.816406 62.089844 209.484375 C 62.414062 210.15625 62.785156 210.796875 63.207031 211.40625 C 63.632812 212.015625 64.101562 212.585938 64.617188 213.121094 C 65.132812 213.65625 65.6875 214.144531 66.28125 214.589844 C 66.875 215.035156 67.5 215.429688 68.15625 215.773438 C 68.8125 216.117188 69.492188 216.40625 70.195312 216.640625 C 70.898438 216.875 71.617188 217.054688 72.347656 217.171875 C 73.082031 217.289062 73.816406 217.351562 74.558594 217.351562 C 75.300781 217.351562 76.035156 217.289062 76.769531 217.171875 C 77.5 217.054688 78.21875 216.875 78.921875 216.640625 C 79.625 216.40625 80.304688 216.117188 80.960938 215.773438 C 81.617188 215.429688 82.242188 215.035156 82.835938 214.589844 C 83.429688 214.144531 83.984375 213.65625 84.5 213.121094 C 85.015625 212.585938 85.484375 212.015625 85.910156 211.40625 C 86.332031 210.796875 86.703125 210.15625 87.023438 209.484375 C 87.347656 208.816406 87.613281 208.125 87.820312 207.410156 Z M 61.296875 207.410156 " fill-opacity="1" fill-rule="nonzero"/><path fill="#000000" d="M 200.472656 207.410156 C 200.085938 207.410156 199.707031 207.355469 199.335938 207.242188 C 198.964844 207.128906 198.617188 206.964844 198.292969 206.75 C 197.972656 206.535156 197.6875 206.273438 197.441406 205.972656 C 197.195312 205.671875 196.996094 205.34375 196.847656 204.984375 L 185.640625 177.824219 C 185.460938 177.34375 185.378906 176.851562 185.390625 176.339844 C 185.402344 175.828125 185.511719 175.339844 185.710938 174.871094 C 185.914062 174.402344 186.199219 173.988281 186.5625 173.632812 C 186.925781 173.273438 187.339844 172.996094 187.8125 172.800781 C 188.28125 172.605469 188.773438 172.507812 189.28125 172.503906 C 189.792969 172.5 190.28125 172.589844 190.757812 172.777344 C 191.230469 172.96875 191.652344 173.238281 192.019531 173.589844 C 192.386719 173.941406 192.675781 174.351562 192.886719 174.816406 L 204.09375 201.972656 C 204.21875 202.273438 204.300781 202.582031 204.351562 202.902344 C 204.398438 203.222656 204.40625 203.542969 204.375 203.863281 C 204.339844 204.1875 204.273438 204.5 204.164062 204.804688 C 204.054688 205.109375 203.910156 205.394531 203.730469 205.664062 C 203.550781 205.933594 203.34375 206.175781 203.101562 206.394531 C 202.863281 206.609375 202.601562 206.796875 202.316406 206.949219 C 202.035156 207.101562 201.734375 207.214844 201.421875 207.292969 C 201.109375 207.371094 200.789062 207.410156 200.46875 207.410156 Z M 200.472656 207.410156 " fill-opacity="1" fill-rule="nonzero"/><path fill="#000000" d="M 173.667969 207.410156 C 173.34375 207.410156 173.027344 207.371094 172.714844 207.292969 C 172.402344 207.214844 172.101562 207.101562 171.816406 206.949219 C 171.535156 206.796875 171.273438 206.609375 171.03125 206.394531 C 170.792969 206.175781 170.585938 205.933594 170.40625 205.664062 C 170.226562 205.394531 170.082031 205.109375 169.972656 204.804688 C 169.863281 204.5 169.792969 204.1875 169.761719 203.863281 C 169.730469 203.542969 169.738281 203.222656 169.785156 202.902344 C 169.832031 202.582031 169.917969 202.273438 170.042969 201.972656 L 181.25 174.8125 C 181.449219 174.328125 181.730469 173.902344 182.101562 173.53125 C 182.46875 173.160156 182.894531 172.875 183.375 172.671875 C 183.859375 172.472656 184.359375 172.371094 184.882812 172.371094 C 185.40625 172.371094 185.90625 172.46875 186.390625 172.667969 C 186.871094 172.867188 187.296875 173.152344 187.667969 173.523438 C 188.039062 173.890625 188.324219 174.320312 188.523438 174.800781 C 188.722656 175.285156 188.824219 175.789062 188.824219 176.3125 C 188.824219 176.835938 188.726562 177.339844 188.527344 177.824219 L 177.320312 204.980469 C 177.171875 205.339844 176.972656 205.671875 176.726562 205.976562 C 176.476562 206.277344 176.191406 206.539062 175.867188 206.753906 C 175.539062 206.972656 175.191406 207.136719 174.816406 207.246094 C 174.441406 207.359375 174.058594 207.414062 173.667969 207.410156 Z M 173.667969 207.410156 " fill-opacity="1" fill-rule="nonzero"/><path fill="#000000" d="M 187.070312 225.207031 C 186.359375 225.207031 185.652344 225.171875 184.945312 225.101562 C 184.242188 225.03125 183.539062 224.925781 182.84375 224.785156 C 182.148438 224.648438 181.460938 224.472656 180.78125 224.265625 C 180.101562 224.058594 179.4375 223.820312 178.78125 223.546875 C 178.125 223.273438 177.484375 222.972656 176.859375 222.636719 C 176.234375 222.300781 175.625 221.933594 175.035156 221.539062 C 174.445312 221.144531 173.875 220.71875 173.328125 220.269531 C 172.777344 219.816406 172.253906 219.339844 171.753906 218.835938 C 171.25 218.335938 170.773438 217.808594 170.324219 217.257812 C 169.875 216.707031 169.453125 216.136719 169.058594 215.546875 C 168.664062 214.953125 168.296875 214.34375 167.964844 213.71875 C 167.628906 213.089844 167.324219 212.449219 167.054688 211.789062 C 166.78125 211.132812 166.542969 210.464844 166.335938 209.785156 C 166.128906 209.101562 165.957031 208.414062 165.816406 207.714844 C 165.679688 207.019531 165.574219 206.316406 165.503906 205.609375 C 165.433594 204.898438 165.398438 204.191406 165.398438 203.480469 C 165.398438 202.957031 165.496094 202.457031 165.695312 201.972656 C 165.894531 201.492188 166.179688 201.066406 166.546875 200.699219 C 166.914062 200.328125 167.339844 200.046875 167.820312 199.847656 C 168.300781 199.644531 168.800781 199.546875 169.320312 199.546875 L 204.820312 199.546875 C 205.34375 199.546875 205.84375 199.644531 206.324219 199.847656 C 206.804688 200.046875 207.226562 200.328125 207.59375 200.699219 C 207.964844 201.066406 208.246094 201.492188 208.445312 201.972656 C 208.644531 202.457031 208.742188 202.957031 208.742188 203.480469 C 208.742188 204.191406 208.707031 204.898438 208.636719 205.609375 C 208.566406 206.316406 208.460938 207.019531 208.324219 207.714844 C 208.183594 208.414062 208.011719 209.101562 207.804688 209.785156 C 207.597656 210.464844 207.359375 211.132812 207.089844 211.789062 C 206.816406 212.449219 206.511719 213.089844 206.179688 213.71875 C 205.84375 214.34375 205.480469 214.953125 205.085938 215.546875 C 204.691406 216.136719 204.269531 216.707031 203.816406 217.257812 C 203.367188 217.808594 202.890625 218.335938 202.390625 218.835938 C 201.886719 219.339844 201.363281 219.816406 200.8125 220.269531 C 200.265625 220.71875 199.695312 221.144531 199.105469 221.539062 C 198.515625 221.933594 197.910156 222.300781 197.28125 222.636719 C 196.65625 222.972656 196.015625 223.273438 195.359375 223.546875 C 194.707031 223.820312 194.039062 224.058594 193.359375 224.265625 C 192.679688 224.472656 191.992188 224.648438 191.296875 224.785156 C 190.601562 224.925781 189.902344 225.03125 189.195312 225.101562 C 188.488281 225.171875 187.78125 225.207031 187.070312 225.207031 Z M 173.808594 207.410156 C 174.019531 208.125 174.285156 208.816406 174.605469 209.484375 C 174.925781 210.15625 175.296875 210.796875 175.71875 211.40625 C 176.144531 212.015625 176.613281 212.585938 177.128906 213.121094 C 177.644531 213.65625 178.199219 214.144531 178.792969 214.589844 C 179.386719 215.035156 180.011719 215.429688 180.667969 215.773438 C 181.324219 216.117188 182.003906 216.40625 182.707031 216.640625 C 183.410156 216.875 184.128906 217.054688 184.859375 217.171875 C 185.59375 217.289062 186.328125 217.351562 187.070312 217.351562 C 187.8125 217.351562 188.546875 217.289062 189.28125 217.171875 C 190.011719 217.054688 190.730469 216.875 191.433594 216.640625 C 192.136719 216.40625 192.816406 216.117188 193.472656 215.773438 C 194.128906 215.429688 194.757812 215.035156 195.351562 214.589844 C 195.945312 214.144531 196.496094 213.65625 197.011719 213.121094 C 197.527344 212.585938 197.996094 212.015625 198.421875 211.40625 C 198.84375 210.796875 199.214844 210.15625 199.539062 209.484375 C 199.859375 208.816406 200.125 208.125 200.332031 207.410156 Z M 173.808594 207.410156 " fill-opacity="1" fill-rule="nonzero"/><path fill="#000000" d="M 130.816406 183.378906 C 130.003906 183.378906 129.203125 183.300781 128.410156 183.140625 C 127.617188 182.984375 126.84375 182.75 126.097656 182.4375 C 125.347656 182.128906 124.640625 181.746094 123.964844 181.296875 C 123.292969 180.84375 122.671875 180.332031 122.097656 179.757812 C 121.527344 179.183594 121.015625 178.5625 120.566406 177.886719 C 120.117188 177.210938 119.734375 176.5 119.425781 175.75 C 119.117188 175 118.882812 174.226562 118.722656 173.429688 C 118.566406 172.636719 118.488281 171.832031 118.488281 171.019531 C 118.488281 170.207031 118.566406 169.40625 118.722656 168.609375 C 118.882812 167.8125 119.117188 167.039062 119.425781 166.289062 C 119.734375 165.539062 120.117188 164.828125 120.566406 164.152344 C 121.015625 163.480469 121.527344 162.855469 122.097656 162.28125 C 122.671875 161.707031 123.292969 161.195312 123.964844 160.746094 C 124.640625 160.292969 125.347656 159.914062 126.097656 159.601562 C 126.84375 159.292969 127.617188 159.058594 128.410156 158.898438 C 129.203125 158.742188 130.003906 158.660156 130.816406 158.660156 C 131.625 158.660156 132.425781 158.742188 133.21875 158.898438 C 134.011719 159.058594 134.785156 159.292969 135.53125 159.601562 C 136.28125 159.914062 136.988281 160.292969 137.664062 160.746094 C 138.335938 161.195312 138.957031 161.707031 139.53125 162.28125 C 140.101562 162.855469 140.613281 163.480469 141.0625 164.152344 C 141.515625 164.828125 141.894531 165.539062 142.203125 166.289062 C 142.511719 167.039062 142.746094 167.8125 142.90625 168.609375 C 143.0625 169.40625 143.140625 170.207031 143.140625 171.019531 C 143.140625 171.832031 143.0625 172.636719 142.90625 173.429688 C 142.746094 174.226562 142.511719 175 142.203125 175.75 C 141.894531 176.5 141.515625 177.210938 141.0625 177.886719 C 140.613281 178.5625 140.101562 179.183594 139.53125 179.757812 C 138.957031 180.332031 138.335938 180.84375 137.664062 181.296875 C 136.988281 181.746094 136.28125 182.128906 135.53125 182.4375 C 134.785156 182.75 134.011719 182.984375 133.21875 183.140625 C 132.425781 183.300781 131.625 183.378906 130.816406 183.378906 Z M 130.816406 166.527344 C 130.519531 166.527344 130.230469 166.554688 129.941406 166.613281 C 129.652344 166.671875 129.371094 166.753906 129.097656 166.867188 C 128.828125 166.980469 128.570312 167.121094 128.324219 167.285156 C 128.078125 167.449219 127.851562 167.632812 127.644531 167.84375 C 127.4375 168.050781 127.25 168.277344 127.085938 168.523438 C 126.925781 168.769531 126.785156 169.027344 126.671875 169.300781 C 126.5625 169.574219 126.476562 169.855469 126.417969 170.144531 C 126.359375 170.433594 126.332031 170.726562 126.332031 171.019531 C 126.332031 171.316406 126.359375 171.609375 126.417969 171.898438 C 126.476562 172.1875 126.5625 172.46875 126.671875 172.738281 C 126.785156 173.011719 126.925781 173.273438 127.085938 173.515625 C 127.25 173.761719 127.4375 173.988281 127.644531 174.199219 C 127.851562 174.40625 128.078125 174.59375 128.324219 174.757812 C 128.570312 174.921875 128.828125 175.058594 129.097656 175.171875 C 129.371094 175.285156 129.652344 175.371094 129.941406 175.429688 C 130.230469 175.484375 130.519531 175.515625 130.816406 175.515625 C 131.109375 175.515625 131.402344 175.484375 131.6875 175.429688 C 131.976562 175.371094 132.257812 175.285156 132.53125 175.171875 C 132.800781 175.058594 133.058594 174.921875 133.304688 174.757812 C 133.550781 174.59375 133.777344 174.40625 133.984375 174.199219 C 134.191406 173.988281 134.378906 173.761719 134.542969 173.515625 C 134.707031 173.273438 134.84375 173.011719 134.957031 172.738281 C 135.070312 172.46875 135.152344 172.1875 135.210938 171.898438 C 135.269531 171.609375 135.296875 171.316406 135.296875 171.019531 C 135.296875 170.726562 135.265625 170.433594 135.210938 170.144531 C 135.152344 169.855469 135.066406 169.574219 134.953125 169.304688 C 134.839844 169.03125 134.703125 168.773438 134.539062 168.527344 C 134.375 168.285156 134.1875 168.058594 133.980469 167.851562 C 133.773438 167.640625 133.546875 167.457031 133.300781 167.292969 C 133.058594 167.128906 132.800781 166.992188 132.527344 166.878906 C 132.257812 166.765625 131.976562 166.679688 131.6875 166.625 C 131.398438 166.566406 131.109375 166.539062 130.816406 166.539062 Z M 130.816406 166.527344 " fill-opacity="1" fill-rule="nonzero"/><path fill="#000000" d="M 74.558594 180.6875 C 73.925781 180.6875 73.300781 180.625 72.679688 180.503906 C 72.058594 180.378906 71.453125 180.195312 70.871094 179.953125 C 70.285156 179.710938 69.730469 179.414062 69.203125 179.058594 C 68.679688 178.707031 68.191406 178.308594 67.742188 177.859375 C 67.296875 177.410156 66.898438 176.921875 66.546875 176.394531 C 66.195312 175.867188 65.898438 175.308594 65.65625 174.722656 C 65.414062 174.136719 65.230469 173.53125 65.105469 172.910156 C 64.984375 172.289062 64.921875 171.660156 64.921875 171.027344 C 64.921875 170.390625 64.984375 169.761719 65.105469 169.140625 C 65.230469 168.519531 65.414062 167.914062 65.65625 167.328125 C 65.898438 166.742188 66.195312 166.183594 66.546875 165.65625 C 66.898438 165.128906 67.296875 164.640625 67.742188 164.195312 C 68.191406 163.746094 68.679688 163.34375 69.203125 162.992188 C 69.730469 162.640625 70.285156 162.339844 70.871094 162.097656 C 71.453125 161.855469 72.058594 161.671875 72.679688 161.550781 C 73.300781 161.425781 73.925781 161.363281 74.558594 161.363281 C 75.191406 161.363281 75.816406 161.425781 76.4375 161.550781 C 77.058594 161.671875 77.660156 161.855469 78.246094 162.097656 C 78.832031 162.339844 79.386719 162.640625 79.914062 162.992188 C 80.4375 163.34375 80.925781 163.746094 81.375 164.195312 C 81.820312 164.640625 82.21875 165.128906 82.570312 165.65625 C 82.921875 166.183594 83.21875 166.742188 83.460938 167.328125 C 83.703125 167.914062 83.886719 168.519531 84.011719 169.140625 C 84.132812 169.761719 84.195312 170.390625 84.195312 171.027344 C 84.195312 171.660156 84.132812 172.289062 84.007812 172.910156 C 83.886719 173.53125 83.703125 174.136719 83.460938 174.722656 C 83.21875 175.308594 82.921875 175.863281 82.566406 176.390625 C 82.214844 176.917969 81.816406 177.40625 81.371094 177.855469 C 80.921875 178.304688 80.4375 178.703125 79.910156 179.054688 C 79.382812 179.410156 78.828125 179.707031 78.246094 179.949219 C 77.660156 180.191406 77.058594 180.375 76.4375 180.5 C 75.816406 180.625 75.191406 180.6875 74.558594 180.6875 Z M 74.558594 169.226562 C 74.320312 169.226562 74.09375 169.273438 73.871094 169.363281 C 73.652344 169.457031 73.457031 169.585938 73.289062 169.753906 C 73.121094 169.921875 72.992188 170.117188 72.902344 170.335938 C 72.8125 170.558594 72.765625 170.789062 72.765625 171.027344 C 72.765625 171.265625 72.8125 171.492188 72.902344 171.714844 C 72.992188 171.933594 73.121094 172.128906 73.289062 172.296875 C 73.457031 172.464844 73.652344 172.59375 73.871094 172.6875 C 74.09375 172.777344 74.320312 172.824219 74.558594 172.824219 C 74.796875 172.824219 75.023438 172.777344 75.246094 172.6875 C 75.464844 172.59375 75.660156 172.464844 75.828125 172.296875 C 75.996094 172.128906 76.125 171.933594 76.214844 171.714844 C 76.304688 171.492188 76.351562 171.265625 76.351562 171.027344 C 76.351562 170.789062 76.304688 170.558594 76.214844 170.339844 C 76.121094 170.117188 75.992188 169.925781 75.824219 169.757812 C 75.65625 169.589844 75.464844 169.457031 75.242188 169.367188 C 75.023438 169.273438 74.796875 169.230469 74.558594 169.226562 Z M 74.558594 169.226562 " fill-opacity="1" fill-rule="nonzero"/><path fill="#000000" d="M 187.070312 180.6875 C 186.4375 180.6875 185.8125 180.625 185.191406 180.503906 C 184.570312 180.378906 183.96875 180.195312 183.382812 179.953125 C 182.796875 179.710938 182.242188 179.414062 181.714844 179.058594 C 181.191406 178.707031 180.703125 178.308594 180.257812 177.859375 C 179.808594 177.410156 179.410156 176.921875 179.058594 176.394531 C 178.707031 175.867188 178.410156 175.308594 178.167969 174.722656 C 177.925781 174.136719 177.742188 173.53125 177.617188 172.910156 C 177.496094 172.289062 177.433594 171.660156 177.433594 171.027344 C 177.433594 170.390625 177.496094 169.761719 177.617188 169.140625 C 177.742188 168.519531 177.925781 167.914062 178.167969 167.328125 C 178.410156 166.742188 178.707031 166.183594 179.058594 165.65625 C 179.410156 165.128906 179.808594 164.640625 180.257812 164.195312 C 180.703125 163.746094 181.191406 163.34375 181.714844 162.992188 C 182.242188 162.640625 182.796875 162.339844 183.382812 162.097656 C 183.96875 161.855469 184.570312 161.671875 185.191406 161.550781 C 185.8125 161.425781 186.4375 161.363281 187.070312 161.363281 C 187.703125 161.363281 188.332031 161.425781 188.949219 161.550781 C 189.570312 161.671875 190.175781 161.855469 190.757812 162.097656 C 191.34375 162.339844 191.898438 162.640625 192.425781 162.992188 C 192.953125 163.34375 193.4375 163.746094 193.886719 164.195312 C 194.332031 164.640625 194.734375 165.128906 195.085938 165.65625 C 195.4375 166.183594 195.734375 166.742188 195.976562 167.328125 C 196.21875 167.914062 196.398438 168.519531 196.523438 169.140625 C 196.648438 169.761719 196.707031 170.390625 196.707031 171.027344 C 196.707031 171.660156 196.644531 172.289062 196.519531 172.910156 C 196.398438 173.53125 196.214844 174.136719 195.972656 174.722656 C 195.730469 175.308594 195.433594 175.863281 195.082031 176.390625 C 194.730469 176.917969 194.328125 177.40625 193.882812 177.855469 C 193.433594 178.304688 192.949219 178.703125 192.421875 179.054688 C 191.898438 179.410156 191.339844 179.707031 190.757812 179.949219 C 190.171875 180.191406 189.570312 180.375 188.949219 180.5 C 188.328125 180.625 187.703125 180.6875 187.070312 180.6875 Z M 187.070312 169.226562 C 186.832031 169.226562 186.605469 169.273438 186.382812 169.363281 C 186.164062 169.457031 185.972656 169.585938 185.804688 169.753906 C 185.636719 169.921875 185.503906 170.117188 185.414062 170.335938 C 185.324219 170.558594 185.277344 170.789062 185.277344 171.027344 C 185.277344 171.265625 185.324219 171.492188 185.414062 171.714844 C 185.503906 171.933594 185.636719 172.128906 185.804688 172.296875 C 185.972656 172.464844 186.164062 172.59375 186.382812 172.6875 C 186.605469 172.777344 186.832031 172.824219 187.070312 172.824219 C 187.308594 172.824219 187.539062 172.777344 187.757812 172.6875 C 187.976562 172.59375 188.171875 172.464844 188.339844 172.296875 C 188.507812 172.128906 188.636719 171.933594 188.726562 171.714844 C 188.816406 171.492188 188.863281 171.265625 188.863281 171.027344 C 188.863281 170.789062 188.816406 170.558594 188.726562 170.335938 C 188.636719 170.117188 188.507812 169.921875 188.339844 169.753906 C 188.171875 169.585938 187.976562 169.457031 187.757812 169.363281 C 187.539062 169.273438 187.308594 169.226562 187.070312 169.226562 Z M 187.070312 169.226562 " fill-opacity="1" fill-rule="nonzero"/><path fill="#000000" d="M 130.816406 166.539062 C 130.292969 166.539062 129.792969 166.4375 129.3125 166.238281 C 128.832031 166.039062 128.410156 165.753906 128.042969 165.386719 C 127.671875 165.015625 127.390625 164.589844 127.191406 164.109375 C 126.992188 163.628906 126.890625 163.125 126.890625 162.605469 L 126.890625 150 C 126.890625 149.476562 126.992188 148.976562 127.191406 148.492188 C 127.390625 148.011719 127.671875 147.585938 128.042969 147.21875 C 128.410156 146.851562 128.832031 146.566406 129.3125 146.367188 C 129.792969 146.167969 130.292969 146.066406 130.816406 146.066406 C 131.335938 146.066406 131.835938 146.167969 132.316406 146.367188 C 132.796875 146.566406 133.21875 146.851562 133.589844 147.21875 C 133.957031 147.585938 134.238281 148.011719 134.4375 148.492188 C 134.636719 148.976562 134.738281 149.476562 134.738281 150 L 134.738281 162.605469 C 134.738281 163.125 134.636719 163.628906 134.4375 164.109375 C 134.238281 164.589844 133.957031 165.015625 133.589844 165.386719 C 133.21875 165.753906 132.796875 166.039062 132.316406 166.238281 C 131.835938 166.4375 131.335938 166.539062 130.816406 166.539062 Z M 130.816406 166.539062 " fill-opacity="1" fill-rule="nonzero"/><g clip-path="url(#d50e0dccb4)"><path fill="#000000" d="M 232.792969 271.785156 L 28.835938 271.785156 C 28.316406 271.785156 27.816406 271.683594 27.335938 271.484375 C 26.855469 271.285156 26.429688 271 26.0625 270.632812 C 25.695312 270.261719 25.410156 269.839844 25.210938 269.355469 C 25.011719 268.875 24.914062 268.371094 24.914062 267.851562 L 24.914062 114.253906 C 24.914062 113.734375 25.011719 113.230469 25.210938 112.75 C 25.410156 112.265625 25.695312 111.84375 26.0625 111.472656 C 26.429688 111.105469 26.855469 110.820312 27.335938 110.621094 C 27.816406 110.421875 28.316406 110.320312 28.835938 110.320312 C 29.355469 110.320312 29.855469 110.421875 30.335938 110.621094 C 30.816406 110.820312 31.242188 111.105469 31.609375 111.472656 C 31.976562 111.84375 32.261719 112.265625 32.460938 112.75 C 32.660156 113.230469 32.757812 113.734375 32.757812 114.253906 L 32.757812 263.917969 L 228.871094 263.917969 L 228.871094 114.253906 C 228.871094 113.734375 228.96875 113.230469 229.167969 112.75 C 229.367188 112.265625 229.652344 111.84375 230.019531 111.472656 C 230.386719 111.105469 230.8125 110.820312 231.292969 110.621094 C 231.773438 110.421875 232.273438 110.320312 232.792969 110.320312 C 233.3125 110.320312 233.8125 110.421875 234.292969 110.621094 C 234.773438 110.820312 235.199219 111.105469 235.566406 111.472656 C 235.933594 111.84375 236.21875 112.265625 236.417969 112.75 C 236.617188 113.230469 236.714844 113.734375 236.714844 114.253906 L 236.714844 267.851562 C 236.714844 268.371094 236.617188 268.875 236.417969 269.355469 C 236.21875 269.839844 235.933594 270.261719 235.566406 270.632812 C 235.199219 271 234.773438 271.285156 234.292969 271.484375 C 233.8125 271.683594 233.3125 271.785156 232.792969 271.785156 Z M 232.792969 271.785156 " fill-opacity="1" fill-rule="nonzero"/></g><g clip-path="url(#748c82b160)"><path fill="#000000" d="M 249.660156 118.191406 L 11.972656 118.191406 C 11.570312 118.191406 11.183594 118.132812 10.800781 118.015625 C 10.417969 117.894531 10.066406 117.722656 9.738281 117.496094 C 9.410156 117.269531 9.121094 116.996094 8.875 116.683594 C 8.628906 116.367188 8.4375 116.023438 8.296875 115.648438 C 8.152344 115.273438 8.070312 114.886719 8.046875 114.488281 C 8.027344 114.089844 8.0625 113.695312 8.160156 113.308594 C 8.253906 112.917969 8.40625 112.554688 8.617188 112.214844 C 8.824219 111.871094 9.078125 111.570312 9.375 111.304688 L 128.226562 6.484375 C 128.582031 6.167969 128.984375 5.929688 129.429688 5.757812 C 129.878906 5.589844 130.339844 5.507812 130.816406 5.507812 C 131.289062 5.507812 131.753906 5.589844 132.199219 5.757812 C 132.644531 5.929688 133.046875 6.167969 133.402344 6.484375 L 252.253906 111.304688 C 252.550781 111.570312 252.804688 111.871094 253.015625 112.210938 C 253.222656 112.554688 253.375 112.917969 253.46875 113.308594 C 253.566406 113.695312 253.605469 114.089844 253.582031 114.488281 C 253.558594 114.886719 253.476562 115.273438 253.335938 115.648438 C 253.191406 116.023438 253 116.367188 252.753906 116.683594 C 252.507812 116.996094 252.222656 117.269531 251.894531 117.496094 C 251.5625 117.722656 251.210938 117.894531 250.828125 118.015625 C 250.449219 118.132812 250.058594 118.191406 249.660156 118.191406 Z M 22.363281 110.328125 L 239.265625 110.328125 L 130.816406 14.675781 Z M 22.363281 110.328125 " fill-opacity="1" fill-rule="nonzero"/></g><path fill="#000000" d="M 130.816406 93.472656 C 130.066406 93.472656 129.324219 93.4375 128.578125 93.363281 C 127.835938 93.289062 127.097656 93.179688 126.367188 93.035156 C 125.632812 92.890625 124.910156 92.707031 124.195312 92.488281 C 123.480469 92.273438 122.777344 92.019531 122.085938 91.734375 C 121.398438 91.449219 120.722656 91.128906 120.0625 90.773438 C 119.40625 90.421875 118.765625 90.035156 118.144531 89.621094 C 117.523438 89.203125 116.925781 88.757812 116.347656 88.285156 C 115.769531 87.808594 115.21875 87.308594 114.6875 86.777344 C 114.160156 86.25 113.660156 85.695312 113.1875 85.113281 C 112.710938 84.535156 112.269531 83.933594 111.851562 83.3125 C 111.4375 82.691406 111.054688 82.046875 110.703125 81.386719 C 110.351562 80.726562 110.03125 80.050781 109.746094 79.359375 C 109.460938 78.667969 109.207031 77.964844 108.992188 77.246094 C 108.773438 76.53125 108.59375 75.804688 108.449219 75.070312 C 108.300781 74.335938 108.191406 73.597656 108.121094 72.851562 C 108.046875 72.105469 108.007812 71.359375 108.007812 70.609375 C 108.007812 69.863281 108.046875 69.113281 108.121094 68.371094 C 108.191406 67.625 108.300781 66.882812 108.449219 66.148438 C 108.59375 65.414062 108.773438 64.691406 108.992188 63.972656 C 109.207031 63.257812 109.460938 62.550781 109.746094 61.859375 C 110.03125 61.167969 110.351562 60.492188 110.703125 59.832031 C 111.054688 59.171875 111.4375 58.53125 111.851562 57.90625 C 112.269531 57.285156 112.710938 56.683594 113.1875 56.105469 C 113.660156 55.527344 114.160156 54.972656 114.6875 54.441406 C 115.21875 53.914062 115.769531 53.410156 116.347656 52.9375 C 116.925781 52.460938 117.523438 52.015625 118.144531 51.601562 C 118.765625 51.183594 119.40625 50.800781 120.0625 50.445312 C 120.722656 50.09375 121.398438 49.773438 122.085938 49.488281 C 122.777344 49.199219 123.480469 48.949219 124.195312 48.730469 C 124.910156 48.515625 125.632812 48.332031 126.367188 48.1875 C 127.097656 48.039062 127.835938 47.929688 128.578125 47.855469 C 129.324219 47.785156 130.066406 47.746094 130.816406 47.746094 C 131.5625 47.746094 132.304688 47.785156 133.050781 47.855469 C 133.792969 47.929688 134.53125 48.039062 135.261719 48.1875 C 135.996094 48.332031 136.71875 48.515625 137.433594 48.730469 C 138.148438 48.949219 138.851562 49.199219 139.542969 49.488281 C 140.230469 49.773438 140.90625 50.09375 141.566406 50.445312 C 142.222656 50.800781 142.863281 51.183594 143.484375 51.601562 C 144.105469 52.015625 144.703125 52.460938 145.28125 52.9375 C 145.859375 53.410156 146.410156 53.914062 146.941406 54.441406 C 147.46875 54.972656 147.96875 55.527344 148.441406 56.105469 C 148.917969 56.683594 149.363281 57.285156 149.777344 57.90625 C 150.191406 58.53125 150.574219 59.171875 150.925781 59.832031 C 151.277344 60.492188 151.597656 61.167969 151.882812 61.859375 C 152.167969 62.550781 152.421875 63.257812 152.636719 63.972656 C 152.855469 64.691406 153.035156 65.414062 153.179688 66.148438 C 153.328125 66.882812 153.4375 67.625 153.511719 68.371094 C 153.582031 69.113281 153.621094 69.863281 153.621094 70.609375 C 153.617188 71.359375 153.582031 72.105469 153.507812 72.851562 C 153.433594 73.59375 153.324219 74.335938 153.175781 75.070312 C 153.03125 75.804688 152.847656 76.527344 152.632812 77.246094 C 152.414062 77.960938 152.164062 78.664062 151.875 79.355469 C 151.589844 80.046875 151.269531 80.722656 150.917969 81.382812 C 150.566406 82.042969 150.183594 82.683594 149.769531 83.304688 C 149.351562 83.929688 148.910156 84.527344 148.433594 85.109375 C 147.960938 85.6875 147.460938 86.238281 146.933594 86.769531 C 146.402344 87.296875 145.851562 87.800781 145.273438 88.277344 C 144.699219 88.75 144.097656 89.195312 143.476562 89.613281 C 142.855469 90.027344 142.21875 90.414062 141.558594 90.765625 C 140.902344 91.121094 140.226562 91.441406 139.539062 91.726562 C 138.847656 92.011719 138.144531 92.265625 137.429688 92.484375 C 136.71875 92.703125 135.992188 92.882812 135.261719 93.03125 C 134.53125 93.175781 133.792969 93.289062 133.050781 93.363281 C 132.304688 93.4375 131.5625 93.472656 130.816406 93.472656 Z M 130.816406 55.613281 C 129.832031 55.613281 128.859375 55.707031 127.894531 55.898438 C 126.933594 56.089844 125.996094 56.375 125.089844 56.753906 C 124.183594 57.128906 123.320312 57.59375 122.503906 58.140625 C 121.6875 58.6875 120.929688 59.308594 120.234375 60.003906 C 119.542969 60.699219 118.921875 61.457031 118.375 62.277344 C 117.828125 63.097656 117.367188 63.960938 116.992188 64.871094 C 116.617188 65.78125 116.332031 66.71875 116.140625 67.683594 C 115.949219 68.648438 115.855469 69.625 115.855469 70.609375 C 115.855469 71.59375 115.949219 72.570312 116.140625 73.535156 C 116.332031 74.503906 116.617188 75.441406 116.992188 76.351562 C 117.367188 77.261719 117.828125 78.125 118.375 78.945312 C 118.921875 79.761719 119.542969 80.519531 120.234375 81.214844 C 120.929688 81.914062 121.6875 82.535156 122.503906 83.082031 C 123.320312 83.628906 124.183594 84.089844 125.089844 84.46875 C 125.996094 84.84375 126.933594 85.128906 127.894531 85.320312 C 128.859375 85.511719 129.832031 85.609375 130.816406 85.609375 C 131.796875 85.609375 132.769531 85.511719 133.734375 85.320312 C 134.695312 85.128906 135.632812 84.84375 136.539062 84.46875 C 137.449219 84.089844 138.308594 83.628906 139.125 83.082031 C 139.941406 82.535156 140.699219 81.914062 141.394531 81.214844 C 142.089844 80.519531 142.707031 79.761719 143.253906 78.945312 C 143.800781 78.125 144.261719 77.261719 144.636719 76.351562 C 145.011719 75.441406 145.296875 74.503906 145.488281 73.535156 C 145.679688 72.570312 145.773438 71.59375 145.773438 70.609375 C 145.773438 69.625 145.675781 68.652344 145.484375 67.683594 C 145.292969 66.71875 145.007812 65.78125 144.632812 64.875 C 144.253906 63.964844 143.792969 63.101562 143.25 62.28125 C 142.703125 61.464844 142.082031 60.707031 141.386719 60.007812 C 140.695312 59.3125 139.9375 58.691406 139.121094 58.144531 C 138.304688 57.597656 137.445312 57.136719 136.539062 56.757812 C 135.628906 56.378906 134.695312 56.09375 133.730469 55.902344 C 132.769531 55.710938 131.796875 55.613281 130.816406 55.613281 Z M 130.816406 55.613281 " fill-opacity="1" fill-rule="nonzero"/></svg>