<svg xmlns="http://www.w3.org/2000/svg" xmlns:xlink="http://www.w3.org/1999/xlink" width="400" zoomAndPan="magnify" viewBox="0 0 300 374.999991" height="500" preserveAspectRatio="xMidYMid meet" version="1.0"><defs><clipPath id="5a65a38baf"><path d="M 6.367188 12.613281 L 290.617188 12.613281 L 290.617188 362.113281 L 6.367188 362.113281 Z M 6.367188 12.613281 " clip-rule="nonzero"/></clipPath></defs><g clip-path="url(#5a65a38baf)"><path fill="#000000" d="M 147.121094 211.09375 C 147.480469 211.09375 147.839844 211.058594 148.199219 210.988281 C 148.554688 210.917969 148.898438 210.8125 149.234375 210.675781 C 149.570312 210.535156 149.890625 210.367188 150.191406 210.164062 C 150.492188 209.960938 150.773438 209.734375 151.027344 209.476562 C 151.285156 209.21875 151.515625 208.941406 151.714844 208.640625 C 151.917969 208.339844 152.089844 208.019531 152.226562 207.683594 C 152.367188 207.351562 152.472656 207.003906 152.542969 206.648438 C 152.613281 206.292969 152.648438 205.933594 152.648438 205.570312 L 152.648438 161.546875 L 158.523438 166.734375 C 158.796875 166.976562 159.085938 167.1875 159.402344 167.367188 C 159.714844 167.550781 160.042969 167.699219 160.386719 167.816406 C 160.726562 167.933594 161.078125 168.019531 161.4375 168.066406 C 161.796875 168.113281 162.15625 168.128906 162.519531 168.105469 C 162.882812 168.082031 163.238281 168.023438 163.585938 167.933594 C 163.9375 167.839844 164.277344 167.714844 164.601562 167.554688 C 164.925781 167.394531 165.234375 167.207031 165.523438 166.988281 C 165.8125 166.769531 166.074219 166.523438 166.316406 166.25 C 166.554688 165.980469 166.765625 165.6875 166.949219 165.375 C 167.128906 165.0625 167.28125 164.734375 167.398438 164.390625 C 167.515625 164.050781 167.597656 163.699219 167.648438 163.339844 C 167.695312 162.980469 167.707031 162.621094 167.6875 162.257812 C 167.664062 161.898438 167.605469 161.542969 167.511719 161.191406 C 167.421875 160.84375 167.292969 160.503906 167.136719 160.179688 C 166.976562 159.855469 166.785156 159.546875 166.566406 159.257812 C 166.347656 158.972656 166.101562 158.707031 165.828125 158.46875 L 112.734375 111.550781 C 112.230469 111.101562 111.660156 110.761719 111.03125 110.523438 C 110.402344 110.285156 109.75 110.167969 109.074219 110.167969 C 108.402344 110.167969 107.75 110.285156 107.117188 110.523438 C 106.488281 110.761719 105.921875 111.101562 105.414062 111.550781 L 52.320312 158.46875 C 52.046875 158.707031 51.804688 158.972656 51.582031 159.257812 C 51.363281 159.546875 51.175781 159.855469 51.015625 160.179688 C 50.855469 160.503906 50.730469 160.84375 50.636719 161.191406 C 50.546875 161.542969 50.488281 161.898438 50.464844 162.257812 C 50.441406 162.621094 50.457031 162.980469 50.503906 163.339844 C 50.554688 163.699219 50.636719 164.046875 50.753906 164.390625 C 50.871094 164.734375 51.019531 165.0625 51.203125 165.375 C 51.386719 165.6875 51.597656 165.980469 51.835938 166.25 C 52.078125 166.519531 52.339844 166.765625 52.628906 166.984375 C 52.917969 167.207031 53.222656 167.394531 53.550781 167.554688 C 53.875 167.714844 54.210938 167.839844 54.5625 167.929688 C 54.914062 168.023438 55.269531 168.082031 55.628906 168.105469 C 55.992188 168.125 56.351562 168.113281 56.710938 168.066406 C 57.070312 168.015625 57.421875 167.933594 57.765625 167.816406 C 58.109375 167.699219 58.4375 167.550781 58.75 167.367188 C 59.0625 167.1875 59.355469 166.976562 59.625 166.734375 L 65.5 161.546875 L 65.5 205.570312 C 65.5 205.933594 65.535156 206.292969 65.609375 206.648438 C 65.679688 207.003906 65.785156 207.351562 65.921875 207.683594 C 66.0625 208.019531 66.230469 208.339844 66.433594 208.640625 C 66.636719 208.941406 66.863281 209.21875 67.121094 209.476562 C 67.378906 209.734375 67.65625 209.960938 67.957031 210.164062 C 68.261719 210.367188 68.578125 210.535156 68.914062 210.675781 C 69.25 210.8125 69.597656 210.917969 69.953125 210.988281 C 70.308594 211.058594 70.667969 211.09375 71.03125 211.09375 Z M 103.835938 200.003906 L 103.835938 180.835938 L 114.222656 180.835938 L 114.222656 200.003906 Z M 109.027344 123.046875 L 141.589844 151.792969 L 141.589844 200.058594 L 125.269531 200.058594 L 125.269531 175.3125 C 125.269531 174.953125 125.234375 174.59375 125.164062 174.238281 C 125.09375 173.882812 124.988281 173.535156 124.847656 173.199219 C 124.710938 172.867188 124.539062 172.546875 124.335938 172.246094 C 124.136719 171.945312 123.90625 171.664062 123.648438 171.410156 C 123.394531 171.152344 123.113281 170.921875 122.8125 170.722656 C 122.511719 170.519531 122.191406 170.351562 121.855469 170.210938 C 121.519531 170.074219 121.175781 169.96875 120.820312 169.898438 C 120.460938 169.828125 120.101562 169.792969 119.738281 169.792969 L 98.304688 169.792969 C 97.941406 169.792969 97.585938 169.828125 97.230469 169.898438 C 96.875 169.96875 96.527344 170.074219 96.191406 170.214844 C 95.859375 170.355469 95.539062 170.523438 95.238281 170.726562 C 94.9375 170.925781 94.660156 171.15625 94.402344 171.414062 C 94.148438 171.667969 93.917969 171.949219 93.71875 172.25 C 93.515625 172.550781 93.347656 172.867188 93.207031 173.203125 C 93.070312 173.539062 92.964844 173.882812 92.894531 174.238281 C 92.824219 174.59375 92.789062 174.953125 92.789062 175.3125 L 92.789062 200.058594 L 76.457031 200.058594 L 76.457031 151.792969 Z M 273.105469 52.488281 L 214.503906 52.488281 L 214.503906 46.054688 C 214.503906 45.511719 214.449219 44.972656 214.34375 44.4375 C 214.238281 43.90625 214.078125 43.390625 213.871094 42.886719 C 213.664062 42.386719 213.40625 41.910156 213.105469 41.457031 C 212.800781 41.003906 212.457031 40.585938 212.074219 40.203125 C 211.691406 39.820312 211.269531 39.476562 210.820312 39.171875 C 210.367188 38.871094 209.890625 38.617188 209.386719 38.40625 C 208.882812 38.199219 208.367188 38.042969 207.832031 37.933594 C 207.300781 37.828125 206.761719 37.773438 206.21875 37.773438 L 177.558594 37.773438 C 177.433594 36.910156 177.269531 36.050781 177.070312 35.199219 C 176.871094 34.347656 176.632812 33.507812 176.355469 32.679688 C 176.082031 31.847656 175.769531 31.03125 175.421875 30.230469 C 175.074219 29.429688 174.6875 28.644531 174.269531 27.875 C 173.851562 27.109375 173.398438 26.359375 172.914062 25.632812 C 172.425781 24.90625 171.910156 24.203125 171.363281 23.519531 C 170.8125 22.839844 170.234375 22.183594 169.628906 21.554688 C 169.019531 20.925781 168.386719 20.324219 167.726562 19.75 C 167.0625 19.179688 166.378906 18.636719 165.667969 18.125 C 164.960938 17.613281 164.226562 17.132812 163.476562 16.6875 C 162.722656 16.238281 161.953125 15.828125 161.164062 15.449219 C 160.375 15.074219 159.570312 14.730469 158.75 14.425781 C 157.929688 14.121094 157.097656 13.851562 156.253906 13.621094 C 155.410156 13.386719 154.554688 13.195312 153.695312 13.039062 C 152.835938 12.882812 151.96875 12.765625 151.097656 12.6875 C 150.222656 12.609375 149.351562 12.574219 148.476562 12.574219 C 147.601562 12.574219 146.726562 12.609375 145.855469 12.6875 C 144.984375 12.765625 144.117188 12.882812 143.253906 13.039062 C 142.394531 13.195312 141.542969 13.386719 140.699219 13.621094 C 139.855469 13.851562 139.023438 14.121094 138.203125 14.425781 C 137.382812 14.730469 136.578125 15.074219 135.789062 15.449219 C 135 15.828125 134.226562 16.238281 133.476562 16.6875 C 132.722656 17.132812 131.992188 17.613281 131.28125 18.125 C 130.574219 18.636719 129.886719 19.179688 129.226562 19.75 C 128.566406 20.324219 127.929688 20.925781 127.324219 21.554688 C 126.714844 22.183594 126.136719 22.839844 125.589844 23.519531 C 125.039062 24.203125 124.523438 24.90625 124.039062 25.632812 C 123.550781 26.359375 123.101562 27.109375 122.679688 27.875 C 122.261719 28.644531 121.878906 29.429688 121.53125 30.230469 C 121.179688 31.03125 120.871094 31.847656 120.59375 32.679688 C 120.316406 33.507812 120.082031 34.347656 119.878906 35.199219 C 119.679688 36.050781 119.515625 36.910156 119.394531 37.773438 L 90.746094 37.773438 C 90.203125 37.777344 89.664062 37.832031 89.132812 37.9375 C 88.601562 38.042969 88.082031 38.203125 87.582031 38.410156 C 87.082031 38.621094 86.605469 38.875 86.15625 39.179688 C 85.703125 39.480469 85.285156 39.824219 84.902344 40.207031 C 84.519531 40.59375 84.179688 41.011719 83.878906 41.460938 C 83.578125 41.914062 83.324219 42.390625 83.117188 42.890625 C 82.910156 43.394531 82.753906 43.910156 82.648438 44.441406 C 82.542969 44.972656 82.492188 45.511719 82.492188 46.054688 L 82.492188 52.464844 L 23.84375 52.464844 C 23.285156 52.464844 22.730469 52.492188 22.171875 52.550781 C 21.617188 52.605469 21.066406 52.6875 20.519531 52.796875 C 19.972656 52.90625 19.429688 53.042969 18.898438 53.203125 C 18.363281 53.367188 17.839844 53.554688 17.324219 53.769531 C 16.808594 53.984375 16.304688 54.222656 15.8125 54.484375 C 15.320312 54.746094 14.839844 55.035156 14.378906 55.34375 C 13.914062 55.65625 13.464844 55.988281 13.035156 56.339844 C 12.601562 56.695312 12.191406 57.070312 11.796875 57.464844 C 11.402344 57.859375 11.027344 58.273438 10.671875 58.703125 C 10.320312 59.136719 9.988281 59.582031 9.679688 60.046875 C 9.367188 60.511719 9.082031 60.988281 8.820312 61.480469 C 8.554688 61.972656 8.316406 62.476562 8.105469 62.992188 C 7.890625 63.507812 7.703125 64.03125 7.539062 64.5625 C 7.378906 65.097656 7.242188 65.636719 7.132812 66.183594 C 7.027344 66.730469 6.945312 67.285156 6.890625 67.839844 C 6.835938 68.394531 6.808594 68.949219 6.808594 69.507812 L 6.808594 345.09375 C 6.808594 345.652344 6.835938 346.207031 6.890625 346.761719 C 6.945312 347.316406 7.027344 347.867188 7.136719 348.414062 C 7.246094 348.960938 7.382812 349.5 7.546875 350.03125 C 7.707031 350.566406 7.898438 351.089844 8.109375 351.605469 C 8.324219 352.117188 8.5625 352.621094 8.824219 353.113281 C 9.089844 353.605469 9.375 354.082031 9.6875 354.542969 C 9.996094 355.007812 10.328125 355.453125 10.683594 355.886719 C 11.035156 356.316406 11.410156 356.726562 11.804688 357.121094 C 12.199219 357.515625 12.613281 357.890625 13.042969 358.242188 C 13.472656 358.597656 13.921875 358.929688 14.382812 359.238281 C 14.847656 359.546875 15.324219 359.835938 15.816406 360.097656 C 16.308594 360.359375 16.8125 360.597656 17.328125 360.8125 C 17.84375 361.027344 18.367188 361.214844 18.902344 361.375 C 19.433594 361.539062 19.976562 361.675781 20.523438 361.785156 C 21.070312 361.894531 21.621094 361.976562 22.175781 362.03125 C 22.730469 362.085938 23.285156 362.113281 23.84375 362.113281 L 273.164062 362.113281 C 273.722656 362.113281 274.277344 362.085938 274.832031 362.03125 C 275.386719 361.976562 275.941406 361.894531 276.488281 361.785156 C 277.035156 361.675781 277.574219 361.539062 278.105469 361.375 C 278.640625 361.214844 279.164062 361.027344 279.679688 360.8125 C 280.195312 360.597656 280.699219 360.359375 281.191406 360.097656 C 281.683594 359.835938 282.160156 359.546875 282.625 359.238281 C 283.085938 358.929688 283.535156 358.597656 283.964844 358.242188 C 284.398438 357.890625 284.808594 357.515625 285.203125 357.121094 C 285.597656 356.726562 285.972656 356.316406 286.328125 355.886719 C 286.679688 355.453125 287.011719 355.007812 287.324219 354.542969 C 287.632812 354.082031 287.917969 353.605469 288.183594 353.113281 C 288.445312 352.621094 288.683594 352.117188 288.898438 351.605469 C 289.113281 351.089844 289.300781 350.566406 289.460938 350.03125 C 289.625 349.5 289.761719 348.960938 289.871094 348.414062 C 289.980469 347.867188 290.0625 347.316406 290.117188 346.761719 C 290.171875 346.207031 290.199219 345.652344 290.203125 345.09375 L 290.203125 69.507812 C 290.199219 68.949219 290.171875 68.390625 290.117188 67.835938 C 290.0625 67.28125 289.976562 66.730469 289.867188 66.179688 C 289.757812 65.632812 289.621094 65.09375 289.460938 64.558594 C 289.296875 64.023438 289.105469 63.5 288.894531 62.984375 C 288.679688 62.46875 288.4375 61.964844 288.175781 61.472656 C 287.910156 60.980469 287.621094 60.503906 287.3125 60.039062 C 287 59.574219 286.667969 59.128906 286.3125 58.695312 C 285.957031 58.265625 285.578125 57.851562 285.183594 57.460938 C 284.789062 57.066406 284.375 56.691406 283.941406 56.335938 C 283.507812 55.984375 283.058594 55.652344 282.59375 55.34375 C 282.128906 55.035156 281.648438 54.746094 281.15625 54.484375 C 280.664062 54.222656 280.15625 53.984375 279.640625 53.773438 C 279.125 53.558594 278.597656 53.375 278.0625 53.210938 C 277.527344 53.050781 276.984375 52.917969 276.4375 52.808594 C 275.886719 52.699219 275.335938 52.621094 274.78125 52.566406 C 274.222656 52.511719 273.664062 52.488281 273.105469 52.488281 Z M 93.539062 48.84375 L 124.703125 48.84375 C 125.089844 48.835938 125.46875 48.789062 125.84375 48.707031 C 126.21875 48.621094 126.582031 48.496094 126.933594 48.335938 C 127.285156 48.175781 127.613281 47.984375 127.925781 47.757812 C 128.234375 47.527344 128.519531 47.273438 128.777344 46.984375 C 129.035156 46.699219 129.257812 46.390625 129.453125 46.058594 C 129.648438 45.726562 129.804688 45.378906 129.929688 45.011719 C 130.050781 44.648438 130.132812 44.273438 130.179688 43.890625 C 130.226562 43.511719 130.230469 43.128906 130.199219 42.746094 C 130.199219 42.492188 130.199219 42.25 130.199219 41.984375 C 130.199219 41.382812 130.226562 40.785156 130.285156 40.1875 C 130.34375 39.589844 130.433594 39 130.550781 38.410156 C 130.667969 37.824219 130.8125 37.242188 130.988281 36.667969 C 131.160156 36.09375 131.363281 35.53125 131.59375 34.976562 C 131.824219 34.421875 132.078125 33.878906 132.363281 33.351562 C 132.644531 32.824219 132.953125 32.308594 133.285156 31.808594 C 133.621094 31.3125 133.976562 30.832031 134.359375 30.367188 C 134.738281 29.902344 135.140625 29.460938 135.566406 29.035156 C 135.992188 28.613281 136.433594 28.210938 136.898438 27.828125 C 137.363281 27.449219 137.84375 27.089844 138.34375 26.757812 C 138.84375 26.425781 139.359375 26.117188 139.886719 25.835938 C 140.417969 25.550781 140.957031 25.296875 141.511719 25.066406 C 142.066406 24.835938 142.632812 24.636719 143.207031 24.460938 C 143.78125 24.285156 144.363281 24.140625 144.953125 24.023438 C 145.539062 23.90625 146.132812 23.820312 146.730469 23.761719 C 147.328125 23.703125 147.925781 23.671875 148.527344 23.671875 C 149.128906 23.671875 149.726562 23.703125 150.324219 23.761719 C 150.921875 23.820312 151.515625 23.90625 152.101562 24.023438 C 152.691406 24.140625 153.273438 24.285156 153.847656 24.460938 C 154.421875 24.636719 154.988281 24.835938 155.542969 25.066406 C 156.097656 25.296875 156.636719 25.550781 157.167969 25.835938 C 157.699219 26.117188 158.210938 26.425781 158.710938 26.757812 C 159.210938 27.089844 159.691406 27.449219 160.15625 27.828125 C 160.621094 28.210938 161.0625 28.613281 161.488281 29.035156 C 161.914062 29.460938 162.316406 29.902344 162.695312 30.367188 C 163.078125 30.832031 163.433594 31.3125 163.769531 31.808594 C 164.101562 32.308594 164.410156 32.824219 164.691406 33.351562 C 164.976562 33.878906 165.230469 34.421875 165.460938 34.976562 C 165.691406 35.53125 165.894531 36.09375 166.066406 36.667969 C 166.242188 37.242188 166.386719 37.824219 166.503906 38.410156 C 166.621094 39 166.710938 39.589844 166.769531 40.1875 C 166.828125 40.785156 166.855469 41.382812 166.855469 41.984375 C 166.855469 42.25 166.855469 42.492188 166.800781 42.847656 C 166.765625 43.230469 166.773438 43.609375 166.816406 43.988281 C 166.863281 44.367188 166.945312 44.738281 167.070312 45.101562 C 167.191406 45.460938 167.351562 45.808594 167.546875 46.136719 C 167.742188 46.464844 167.96875 46.773438 168.226562 47.054688 C 168.484375 47.335938 168.769531 47.589844 169.078125 47.8125 C 169.390625 48.035156 169.722656 48.222656 170.070312 48.375 C 170.421875 48.53125 170.785156 48.648438 171.15625 48.726562 C 171.53125 48.804688 171.910156 48.84375 172.292969 48.84375 L 203.457031 48.84375 L 203.457031 76.136719 L 93.539062 76.136719 Z M 279.097656 345.1875 C 279.097656 345.578125 279.058594 345.96875 278.980469 346.351562 C 278.902344 346.738281 278.789062 347.109375 278.636719 347.472656 C 278.488281 347.835938 278.300781 348.179688 278.082031 348.507812 C 277.863281 348.832031 277.617188 349.132812 277.339844 349.410156 C 277.058594 349.6875 276.757812 349.9375 276.429688 350.152344 C 276.105469 350.371094 275.757812 350.554688 275.394531 350.707031 C 275.035156 350.855469 274.660156 350.96875 274.273438 351.046875 C 273.886719 351.121094 273.5 351.160156 273.105469 351.160156 L 23.84375 351.160156 C 23.453125 351.160156 23.0625 351.121094 22.675781 351.046875 C 22.292969 350.96875 21.917969 350.855469 21.554688 350.707031 C 21.191406 350.554688 20.847656 350.371094 20.519531 350.152344 C 20.191406 349.9375 19.890625 349.6875 19.613281 349.410156 C 19.335938 349.132812 19.085938 348.832031 18.867188 348.507812 C 18.648438 348.179688 18.464844 347.835938 18.3125 347.472656 C 18.164062 347.109375 18.046875 346.738281 17.972656 346.351562 C 17.894531 345.96875 17.855469 345.578125 17.855469 345.1875 L 17.855469 69.601562 C 17.855469 69.207031 17.894531 68.816406 17.972656 68.433594 C 18.046875 68.046875 18.160156 67.675781 18.3125 67.3125 C 18.464844 66.949219 18.648438 66.605469 18.867188 66.277344 C 19.085938 65.949219 19.332031 65.648438 19.613281 65.371094 C 19.890625 65.09375 20.191406 64.84375 20.519531 64.628906 C 20.84375 64.410156 21.191406 64.222656 21.554688 64.074219 C 21.917969 63.921875 22.289062 63.808594 22.675781 63.730469 C 23.0625 63.65625 23.453125 63.617188 23.84375 63.613281 L 82.492188 63.613281 L 82.492188 78.941406 C 82.492188 79.480469 82.546875 80.015625 82.652344 80.546875 C 82.757812 81.078125 82.914062 81.59375 83.121094 82.09375 C 83.328125 82.59375 83.582031 83.070312 83.882812 83.519531 C 84.183594 83.96875 84.527344 84.386719 84.910156 84.769531 C 85.292969 85.152344 85.710938 85.492188 86.160156 85.792969 C 86.609375 86.09375 87.085938 86.347656 87.585938 86.554688 C 88.085938 86.765625 88.605469 86.921875 89.136719 87.027344 C 89.667969 87.132812 90.203125 87.183594 90.746094 87.183594 L 206.171875 87.183594 C 206.714844 87.183594 207.25 87.132812 207.785156 87.027344 C 208.316406 86.921875 208.835938 86.765625 209.335938 86.558594 C 209.839844 86.355469 210.316406 86.101562 210.765625 85.800781 C 211.21875 85.5 211.636719 85.15625 212.023438 84.773438 C 212.40625 84.390625 212.75 83.976562 213.054688 83.523438 C 213.355469 83.074219 213.613281 82.601562 213.820312 82.097656 C 214.03125 81.597656 214.1875 81.082031 214.296875 80.550781 C 214.402344 80.019531 214.457031 79.480469 214.457031 78.941406 L 214.457031 63.523438 L 273.058594 63.523438 C 273.453125 63.523438 273.84375 63.5625 274.226562 63.640625 C 274.613281 63.71875 274.988281 63.832031 275.351562 63.980469 C 275.714844 64.132812 276.058594 64.316406 276.386719 64.535156 C 276.710938 64.753906 277.015625 65 277.292969 65.277344 C 277.570312 65.558594 277.820312 65.859375 278.039062 66.183594 C 278.257812 66.511719 278.441406 66.855469 278.59375 67.21875 C 278.742188 67.582031 278.855469 67.957031 278.933594 68.339844 C 279.011719 68.726562 279.050781 69.113281 279.050781 69.507812 Z M 188.335938 133.457031 C 188.335938 133.09375 188.375 132.738281 188.445312 132.382812 C 188.515625 132.027344 188.621094 131.683594 188.757812 131.347656 C 188.894531 131.015625 189.066406 130.695312 189.269531 130.394531 C 189.46875 130.09375 189.699219 129.816406 189.953125 129.558594 C 190.210938 129.304688 190.488281 129.074219 190.789062 128.875 C 191.089844 128.671875 191.410156 128.503906 191.742188 128.367188 C 192.078125 128.226562 192.421875 128.121094 192.777344 128.050781 C 193.132812 127.980469 193.492188 127.945312 193.855469 127.945312 L 243.570312 127.945312 C 243.921875 127.960938 244.269531 128.011719 244.609375 128.09375 C 244.953125 128.175781 245.285156 128.289062 245.605469 128.4375 C 245.925781 128.582031 246.230469 128.757812 246.519531 128.960938 C 246.804688 129.164062 247.070312 129.394531 247.3125 129.648438 C 247.558594 129.902344 247.773438 130.179688 247.964844 130.472656 C 248.15625 130.769531 248.316406 131.082031 248.449219 131.40625 C 248.578125 131.734375 248.679688 132.070312 248.746094 132.417969 C 248.8125 132.761719 248.84375 133.109375 248.84375 133.464844 C 248.84375 133.816406 248.8125 134.164062 248.746094 134.511719 C 248.679688 134.855469 248.578125 135.191406 248.449219 135.519531 C 248.316406 135.84375 248.15625 136.15625 247.964844 136.453125 C 247.773438 136.75 247.558594 137.023438 247.3125 137.277344 C 247.070312 137.53125 246.804688 137.761719 246.519531 137.964844 C 246.230469 138.171875 245.925781 138.34375 245.605469 138.492188 C 245.285156 138.636719 244.953125 138.75 244.609375 138.832031 C 244.269531 138.914062 243.921875 138.964844 243.570312 138.980469 L 193.855469 138.980469 C 193.492188 138.980469 193.132812 138.945312 192.777344 138.875 C 192.421875 138.804688 192.078125 138.699219 191.742188 138.558594 C 191.40625 138.421875 191.085938 138.25 190.785156 138.050781 C 190.484375 137.847656 190.207031 137.617188 189.949219 137.363281 C 189.695312 137.105469 189.464844 136.828125 189.261719 136.523438 C 189.0625 136.222656 188.894531 135.90625 188.753906 135.570312 C 188.617188 135.234375 188.511719 134.890625 188.441406 134.535156 C 188.371094 134.179688 188.335938 133.820312 188.335938 133.457031 Z M 188.335938 165.90625 C 188.335938 165.542969 188.371094 165.183594 188.441406 164.828125 C 188.511719 164.472656 188.617188 164.128906 188.753906 163.792969 C 188.894531 163.457031 189.0625 163.140625 189.261719 162.835938 C 189.464844 162.535156 189.695312 162.257812 189.949219 162 C 190.207031 161.742188 190.484375 161.515625 190.785156 161.3125 C 191.085938 161.113281 191.40625 160.941406 191.742188 160.800781 C 192.074219 160.664062 192.421875 160.558594 192.777344 160.488281 C 193.132812 160.417969 193.492188 160.382812 193.855469 160.382812 L 243.570312 160.382812 C 243.921875 160.398438 244.269531 160.449219 244.609375 160.53125 C 244.953125 160.613281 245.285156 160.726562 245.605469 160.871094 C 245.925781 161.019531 246.230469 161.191406 246.519531 161.398438 C 246.804688 161.601562 247.070312 161.828125 247.3125 162.085938 C 247.558594 162.339844 247.773438 162.613281 247.964844 162.910156 C 248.15625 163.207031 248.316406 163.515625 248.449219 163.84375 C 248.578125 164.171875 248.679688 164.507812 248.746094 164.851562 C 248.8125 165.199219 248.84375 165.546875 248.84375 165.898438 C 248.84375 166.25 248.8125 166.601562 248.746094 166.945312 C 248.679688 167.292969 248.578125 167.628906 248.449219 167.953125 C 248.316406 168.28125 248.15625 168.59375 247.964844 168.890625 C 247.773438 169.183594 247.558594 169.460938 247.3125 169.714844 C 247.070312 169.96875 246.804688 170.199219 246.519531 170.402344 C 246.230469 170.605469 245.925781 170.78125 245.605469 170.925781 C 245.285156 171.074219 244.953125 171.1875 244.609375 171.269531 C 244.269531 171.351562 243.921875 171.402344 243.570312 171.417969 L 193.855469 171.417969 C 193.492188 171.417969 193.132812 171.382812 192.777344 171.3125 C 192.421875 171.242188 192.078125 171.136719 191.742188 170.996094 C 191.410156 170.859375 191.089844 170.6875 190.789062 170.488281 C 190.488281 170.285156 190.210938 170.058594 189.953125 169.800781 C 189.699219 169.546875 189.46875 169.269531 189.269531 168.96875 C 189.066406 168.667969 188.894531 168.347656 188.757812 168.015625 C 188.621094 167.679688 188.515625 167.335938 188.445312 166.980469 C 188.375 166.625 188.335938 166.265625 188.335938 165.90625 Z M 188.335938 198.339844 C 188.335938 197.980469 188.375 197.621094 188.445312 197.265625 C 188.515625 196.910156 188.621094 196.566406 188.757812 196.230469 C 188.894531 195.898438 189.066406 195.582031 189.269531 195.28125 C 189.46875 194.976562 189.699219 194.699219 189.953125 194.445312 C 190.210938 194.1875 190.488281 193.960938 190.789062 193.757812 C 191.089844 193.558594 191.410156 193.386719 191.742188 193.25 C 192.078125 193.109375 192.421875 193.007812 192.777344 192.9375 C 193.132812 192.863281 193.492188 192.828125 193.855469 192.828125 L 243.570312 192.828125 C 243.921875 192.847656 244.269531 192.894531 244.609375 192.976562 C 244.953125 193.058594 245.285156 193.175781 245.605469 193.320312 C 245.925781 193.464844 246.230469 193.640625 246.519531 193.84375 C 246.804688 194.046875 247.070312 194.277344 247.3125 194.53125 C 247.558594 194.785156 247.773438 195.0625 247.964844 195.359375 C 248.15625 195.652344 248.316406 195.964844 248.449219 196.292969 C 248.578125 196.617188 248.679688 196.953125 248.746094 197.300781 C 248.8125 197.644531 248.84375 197.996094 248.84375 198.347656 C 248.84375 198.699219 248.8125 199.046875 248.746094 199.394531 C 248.679688 199.738281 248.578125 200.074219 248.449219 200.402344 C 248.316406 200.730469 248.15625 201.039062 247.964844 201.335938 C 247.773438 201.632812 247.558594 201.90625 247.3125 202.164062 C 247.070312 202.417969 246.804688 202.644531 246.519531 202.851562 C 246.230469 203.054688 245.925781 203.230469 245.605469 203.375 C 245.285156 203.519531 244.953125 203.632812 244.609375 203.71875 C 244.269531 203.800781 243.921875 203.847656 243.570312 203.863281 L 193.855469 203.863281 C 193.492188 203.863281 193.132812 203.828125 192.777344 203.757812 C 192.421875 203.6875 192.078125 203.582031 191.742188 203.445312 C 191.40625 203.304688 191.085938 203.136719 190.785156 202.933594 C 190.484375 202.730469 190.207031 202.503906 189.949219 202.246094 C 189.695312 201.988281 189.464844 201.710938 189.261719 201.410156 C 189.0625 201.109375 188.894531 200.789062 188.753906 200.453125 C 188.617188 200.121094 188.511719 199.773438 188.441406 199.417969 C 188.371094 199.0625 188.335938 198.703125 188.335938 198.339844 Z M 251.140625 243.230469 C 251.140625 243.59375 251.105469 243.953125 251.035156 244.308594 C 250.964844 244.664062 250.863281 245.011719 250.722656 245.347656 C 250.585938 245.683594 250.414062 246 250.210938 246.300781 C 250.011719 246.605469 249.78125 246.882812 249.523438 247.140625 C 249.269531 247.398438 248.988281 247.625 248.6875 247.828125 C 248.382812 248.027344 248.066406 248.199219 247.730469 248.335938 C 247.394531 248.476562 247.046875 248.578125 246.691406 248.648438 C 246.335938 248.71875 245.976562 248.753906 245.613281 248.753906 L 73.453125 248.753906 C 73.082031 248.769531 72.710938 248.75 72.339844 248.691406 C 71.972656 248.632812 71.613281 248.539062 71.261719 248.410156 C 70.914062 248.277344 70.578125 248.113281 70.261719 247.914062 C 69.945312 247.714844 69.652344 247.488281 69.382812 247.230469 C 69.113281 246.972656 68.871094 246.691406 68.65625 246.382812 C 68.445312 246.078125 68.265625 245.753906 68.117188 245.410156 C 67.972656 245.066406 67.859375 244.710938 67.785156 244.34375 C 67.710938 243.980469 67.671875 243.609375 67.671875 243.238281 C 67.671875 242.863281 67.710938 242.492188 67.785156 242.128906 C 67.859375 241.761719 67.972656 241.410156 68.117188 241.066406 C 68.265625 240.722656 68.445312 240.398438 68.65625 240.089844 C 68.871094 239.785156 69.113281 239.5 69.382812 239.242188 C 69.652344 238.984375 69.945312 238.757812 70.261719 238.558594 C 70.578125 238.359375 70.914062 238.195312 71.261719 238.066406 C 71.613281 237.933594 71.972656 237.839844 72.339844 237.78125 C 72.710938 237.722656 73.082031 237.703125 73.453125 237.71875 L 245.613281 237.71875 C 245.976562 237.71875 246.335938 237.753906 246.691406 237.824219 C 247.046875 237.894531 247.390625 237.996094 247.726562 238.136719 C 248.0625 238.273438 248.382812 238.441406 248.683594 238.644531 C 248.984375 238.84375 249.265625 239.074219 249.519531 239.328125 C 249.777344 239.585938 250.007812 239.863281 250.207031 240.164062 C 250.410156 240.464844 250.582031 240.785156 250.71875 241.121094 C 250.859375 241.453125 250.964844 241.800781 251.035156 242.15625 C 251.105469 242.511719 251.140625 242.867188 251.140625 243.230469 Z M 55.285156 239.300781 C 55.800781 239.816406 56.199219 240.414062 56.476562 241.089844 C 56.757812 241.765625 56.898438 242.464844 56.902344 243.195312 C 56.902344 243.566406 56.867188 243.929688 56.785156 244.292969 C 56.636719 245.011719 56.355469 245.675781 55.945312 246.285156 C 55.753906 246.589844 55.535156 246.871094 55.285156 247.128906 C 55.03125 247.382812 54.75 247.613281 54.449219 247.816406 C 54.148438 248.015625 53.828125 248.183594 53.492188 248.324219 C 53.160156 248.460938 52.8125 248.566406 52.457031 248.636719 C 52.101562 248.707031 51.742188 248.742188 51.378906 248.742188 C 51.015625 248.742188 50.65625 248.707031 50.300781 248.636719 C 49.945312 248.566406 49.601562 248.460938 49.265625 248.324219 C 48.929688 248.183594 48.609375 248.015625 48.308594 247.816406 C 48.007812 247.613281 47.730469 247.382812 47.472656 247.128906 C 46.957031 246.601562 46.5625 246 46.28125 245.320312 C 46.003906 244.640625 45.859375 243.933594 45.855469 243.195312 C 45.859375 242.464844 46 241.765625 46.28125 241.089844 C 46.558594 240.414062 46.957031 239.816406 47.472656 239.300781 C 47.734375 239.054688 48.019531 238.839844 48.324219 238.652344 C 48.628906 238.460938 48.949219 238.300781 49.28125 238.171875 C 49.617188 238.039062 49.960938 237.941406 50.3125 237.875 C 50.664062 237.808594 51.019531 237.777344 51.378906 237.777344 C 51.738281 237.777344 52.09375 237.808594 52.445312 237.875 C 52.796875 237.941406 53.140625 238.039062 53.476562 238.171875 C 53.808594 238.300781 54.128906 238.460938 54.433594 238.652344 C 54.738281 238.839844 55.023438 239.054688 55.285156 239.300781 Z M 251.164062 280.695312 C 251.164062 281.058594 251.128906 281.417969 251.058594 281.773438 C 250.988281 282.128906 250.886719 282.476562 250.746094 282.808594 C 250.609375 283.144531 250.4375 283.464844 250.234375 283.765625 C 250.035156 284.066406 249.804688 284.347656 249.546875 284.605469 C 249.292969 284.859375 249.011719 285.089844 248.710938 285.289062 C 248.40625 285.492188 248.089844 285.664062 247.753906 285.800781 C 247.417969 285.9375 247.070312 286.042969 246.714844 286.113281 C 246.359375 286.183594 246 286.21875 245.636719 286.21875 L 73.453125 286.21875 C 73.082031 286.234375 72.710938 286.214844 72.339844 286.15625 C 71.972656 286.097656 71.613281 286.003906 71.261719 285.871094 C 70.914062 285.742188 70.578125 285.578125 70.261719 285.378906 C 69.945312 285.179688 69.652344 284.953125 69.382812 284.695312 C 69.113281 284.4375 68.871094 284.152344 68.65625 283.847656 C 68.445312 283.539062 68.265625 283.214844 68.117188 282.871094 C 67.972656 282.527344 67.859375 282.175781 67.785156 281.808594 C 67.710938 281.445312 67.671875 281.074219 67.671875 280.699219 C 67.671875 280.328125 67.710938 279.957031 67.785156 279.59375 C 67.859375 279.226562 67.972656 278.871094 68.117188 278.527344 C 68.265625 278.183594 68.445312 277.859375 68.65625 277.554688 C 68.871094 277.246094 69.113281 276.964844 69.382812 276.707031 C 69.652344 276.449219 69.945312 276.222656 70.261719 276.023438 C 70.578125 275.824219 70.914062 275.660156 71.261719 275.527344 C 71.613281 275.398438 71.972656 275.304688 72.339844 275.246094 C 72.710938 275.1875 73.082031 275.167969 73.453125 275.183594 L 245.613281 275.183594 C 245.976562 275.183594 246.335938 275.21875 246.691406 275.285156 C 247.046875 275.355469 247.390625 275.460938 247.726562 275.597656 C 248.0625 275.738281 248.382812 275.90625 248.683594 276.109375 C 248.984375 276.308594 249.265625 276.539062 249.519531 276.792969 C 249.777344 277.050781 250.007812 277.328125 250.207031 277.628906 C 250.410156 277.929688 250.582031 278.25 250.71875 278.582031 C 250.859375 278.917969 250.964844 279.261719 251.035156 279.617188 C 251.105469 279.972656 251.140625 280.332031 251.140625 280.695312 Z M 56.785156 279.621094 C 56.863281 279.972656 56.902344 280.324219 56.902344 280.683594 C 56.90625 281.414062 56.769531 282.117188 56.488281 282.792969 C 56.207031 283.472656 55.808594 284.066406 55.285156 284.582031 C 54.769531 285.097656 54.171875 285.496094 53.496094 285.777344 C 52.820312 286.058594 52.117188 286.203125 51.386719 286.207031 C 51 286.203125 50.613281 286.175781 50.230469 286.125 C 49.875 286.050781 49.527344 285.941406 49.191406 285.804688 C 48.863281 285.65625 48.546875 285.484375 48.246094 285.285156 C 47.945312 285.082031 47.671875 284.847656 47.425781 284.582031 C 46.90625 284.0625 46.507812 283.46875 46.230469 282.792969 C 45.949219 282.117188 45.808594 281.414062 45.808594 280.683594 C 45.8125 279.953125 45.957031 279.25 46.234375 278.578125 C 46.515625 277.902344 46.914062 277.304688 47.425781 276.785156 C 47.691406 276.542969 47.972656 276.328125 48.277344 276.136719 C 48.582031 275.949219 48.902344 275.789062 49.234375 275.65625 C 49.570312 275.527344 49.914062 275.429688 50.265625 275.363281 C 50.617188 275.296875 50.972656 275.265625 51.332031 275.265625 C 51.691406 275.265625 52.046875 275.296875 52.398438 275.363281 C 52.753906 275.429688 53.09375 275.527344 53.429688 275.65625 C 53.765625 275.789062 54.082031 275.949219 54.386719 276.136719 C 54.691406 276.328125 54.976562 276.542969 55.238281 276.785156 C 55.488281 277.042969 55.707031 277.324219 55.898438 277.628906 C 56.101562 277.929688 56.277344 278.25 56.417969 278.585938 C 56.570312 278.917969 56.6875 279.265625 56.765625 279.621094 Z M 251.140625 318.179688 C 251.140625 318.542969 251.105469 318.902344 251.035156 319.261719 C 250.964844 319.617188 250.863281 319.960938 250.722656 320.296875 C 250.585938 320.632812 250.414062 320.949219 250.210938 321.253906 C 250.011719 321.554688 249.78125 321.832031 249.523438 322.089844 C 249.269531 322.347656 248.988281 322.578125 248.6875 322.777344 C 248.382812 322.980469 248.066406 323.148438 247.730469 323.289062 C 247.394531 323.425781 247.046875 323.53125 246.691406 323.601562 C 246.335938 323.671875 245.976562 323.707031 245.613281 323.703125 L 73.453125 323.703125 C 73.082031 323.722656 72.710938 323.703125 72.339844 323.644531 C 71.972656 323.585938 71.613281 323.492188 71.261719 323.359375 C 70.914062 323.230469 70.578125 323.0625 70.261719 322.867188 C 69.945312 322.667969 69.652344 322.4375 69.382812 322.179688 C 69.113281 321.921875 68.871094 321.640625 68.660156 321.335938 C 68.445312 321.027344 68.265625 320.703125 68.117188 320.359375 C 67.972656 320.015625 67.859375 319.660156 67.785156 319.296875 C 67.710938 318.929688 67.671875 318.5625 67.671875 318.1875 C 67.671875 317.8125 67.710938 317.445312 67.785156 317.078125 C 67.859375 316.714844 67.972656 316.359375 68.117188 316.015625 C 68.265625 315.671875 68.445312 315.347656 68.660156 315.039062 C 68.871094 314.734375 69.113281 314.453125 69.382812 314.195312 C 69.652344 313.9375 69.945312 313.707031 70.261719 313.507812 C 70.578125 313.3125 70.914062 313.144531 71.261719 313.015625 C 71.613281 312.882812 71.972656 312.789062 72.339844 312.730469 C 72.710938 312.671875 73.082031 312.652344 73.453125 312.667969 L 245.613281 312.667969 C 245.976562 312.667969 246.335938 312.703125 246.691406 312.773438 C 247.046875 312.84375 247.390625 312.949219 247.726562 313.085938 C 248.0625 313.222656 248.382812 313.394531 248.683594 313.59375 C 248.984375 313.796875 249.265625 314.023438 249.519531 314.28125 C 249.777344 314.535156 250.007812 314.816406 250.207031 315.117188 C 250.410156 315.417969 250.582031 315.734375 250.71875 316.070312 C 250.859375 316.40625 250.964844 316.75 251.035156 317.105469 C 251.105469 317.460938 251.140625 317.820312 251.140625 318.179688 Z M 55.285156 314.273438 C 55.800781 314.792969 56.195312 315.394531 56.476562 316.070312 C 56.757812 316.746094 56.898438 317.449219 56.902344 318.179688 C 56.902344 318.914062 56.757812 319.613281 56.480469 320.289062 C 56.199219 320.964844 55.800781 321.5625 55.285156 322.078125 C 55.027344 322.320312 54.746094 322.535156 54.445312 322.722656 C 54.144531 322.910156 53.828125 323.070312 53.496094 323.195312 C 53.164062 323.324219 52.824219 323.417969 52.476562 323.480469 C 52.125 323.542969 51.773438 323.570312 51.417969 323.5625 C 51.0625 323.554688 50.714844 323.515625 50.367188 323.441406 C 50.019531 323.371094 49.679688 323.261719 49.355469 323.125 C 49.027344 322.984375 48.71875 322.816406 48.421875 322.621094 C 48.128906 322.421875 47.855469 322.195312 47.605469 321.945312 C 47.355469 321.695312 47.128906 321.421875 46.929688 321.128906 C 46.734375 320.835938 46.5625 320.523438 46.425781 320.199219 C 46.285156 319.871094 46.179688 319.535156 46.105469 319.1875 C 46.03125 318.839844 45.992188 318.492188 45.988281 318.136719 C 45.980469 317.78125 46.007812 317.429688 46.070312 317.082031 C 46.132812 316.730469 46.226562 316.390625 46.351562 316.058594 C 46.480469 315.730469 46.636719 315.414062 46.828125 315.113281 C 47.015625 314.8125 47.230469 314.53125 47.472656 314.273438 C 47.734375 314.03125 48.019531 313.8125 48.324219 313.625 C 48.628906 313.433594 48.949219 313.273438 49.28125 313.144531 C 49.617188 313.015625 49.960938 312.917969 50.3125 312.851562 C 50.664062 312.785156 51.019531 312.75 51.378906 312.75 C 51.738281 312.75 52.09375 312.785156 52.445312 312.851562 C 52.796875 312.917969 53.140625 313.015625 53.476562 313.144531 C 53.808594 313.273438 54.128906 313.433594 54.433594 313.625 C 54.738281 313.8125 55.023438 314.03125 55.285156 314.273438 Z M 55.285156 314.273438 " fill-opacity="1" fill-rule="nonzero"/></g></svg>