<svg xmlns="http://www.w3.org/2000/svg" xmlns:xlink="http://www.w3.org/1999/xlink" width="400" zoomAndPan="magnify" viewBox="0 0 300 374.999991" height="500" preserveAspectRatio="xMidYMid meet" version="1.0"><defs><clipPath id="7ecbbce0d1"><path d="M 27 14.359375 L 273 14.359375 L 273 360.859375 L 27 360.859375 Z M 27 14.359375 " clip-rule="nonzero"/></clipPath></defs><g clip-path="url(#7ecbbce0d1)"><path fill="#000000" d="M 234.058594 360.859375 L 66.394531 360.859375 C 45.058594 360.859375 27.578125 343.585938 27.578125 322.246094 L 27.578125 52.972656 C 27.578125 31.632812 45.058594 14.359375 66.394531 14.359375 L 234.058594 14.359375 C 255.394531 14.359375 272.667969 31.632812 272.667969 52.972656 L 272.667969 322.246094 C 272.667969 343.585938 255.394531 360.859375 234.058594 360.859375 Z M 66.394531 21.066406 C 48.714844 21.066406 34.488281 35.292969 34.488281 52.972656 L 34.488281 322.246094 C 34.488281 339.722656 48.714844 354.152344 66.394531 354.152344 L 234.058594 354.152344 C 251.535156 354.152344 265.964844 339.722656 265.964844 322.246094 L 265.964844 52.972656 C 265.964844 35.292969 251.535156 21.066406 234.058594 21.066406 Z M 66.394531 21.066406 " fill-opacity="1" fill-rule="evenodd"/></g><path fill="#000000" d="M 234.058594 341.351562 L 66.394531 341.351562 C 55.828125 341.351562 47.089844 332.816406 47.089844 322.246094 L 47.089844 52.972656 C 47.089844 42.40625 55.828125 33.667969 66.394531 33.667969 L 234.058594 33.667969 C 244.421875 33.667969 253.160156 42.609375 253.160156 52.972656 L 253.160156 322.246094 C 253.160156 332.613281 244.421875 341.351562 234.058594 341.351562 Z M 66.394531 40.574219 C 59.484375 40.574219 54 46.0625 54 52.972656 L 54 322.246094 C 54 328.953125 59.484375 334.644531 66.394531 334.644531 L 234.058594 334.644531 C 240.761719 334.644531 246.453125 328.953125 246.453125 322.246094 L 246.453125 52.972656 C 246.453125 46.265625 240.761719 40.574219 234.058594 40.574219 Z M 66.394531 40.574219 " fill-opacity="1" fill-rule="evenodd"/><path fill="#000000" d="M 55.21875 91.585938 C 53.59375 91.585938 51.964844 91.585938 50.136719 91.382812 C 48.308594 90.976562 46.886719 89.351562 47.292969 87.519531 C 47.496094 85.691406 49.121094 84.269531 50.949219 84.472656 C 52.371094 84.675781 53.59375 84.675781 55.21875 84.675781 C 78.996094 84.675781 98.300781 65.574219 98.300781 41.796875 C 98.300781 40.371094 98.300781 38.746094 98.097656 37.527344 C 97.894531 35.699219 99.113281 34.074219 101.148438 33.871094 C 102.976562 33.464844 104.601562 34.886719 104.804688 36.714844 C 105.210938 38.339844 105.210938 40.167969 105.210938 41.796875 C 105.210938 69.230469 82.652344 91.585938 55.21875 91.585938 Z M 55.21875 91.585938 " fill-opacity="1" fill-rule="evenodd"/><path fill="#000000" d="M 72.492188 70.042969 C 66.394531 70.042969 61.316406 64.964844 61.316406 58.867188 C 61.316406 52.769531 66.191406 47.890625 72.492188 47.890625 C 78.589844 47.890625 83.464844 52.972656 83.464844 58.867188 C 83.464844 64.964844 78.589844 70.042969 72.492188 70.042969 Z M 72.492188 54.800781 C 70.054688 54.800781 68.222656 56.632812 68.222656 58.867188 C 68.222656 61.304688 70.054688 63.132812 72.492188 63.132812 C 74.726562 63.132812 76.558594 61.304688 76.558594 58.867188 C 76.558594 56.632812 74.726562 54.800781 72.492188 54.800781 Z M 72.492188 54.800781 " fill-opacity="1" fill-rule="evenodd"/><path fill="#000000" d="M 249.910156 300.09375 L 50.542969 300.09375 C 48.714844 300.09375 47.089844 298.671875 47.089844 296.84375 C 47.089844 294.8125 48.714844 293.390625 50.542969 293.390625 L 249.910156 293.390625 C 251.738281 293.390625 253.160156 294.8125 253.160156 296.84375 C 253.160156 298.671875 251.738281 300.09375 249.910156 300.09375 Z M 249.910156 300.09375 " fill-opacity="1" fill-rule="evenodd"/><path fill="#000000" d="M 163.539062 320.621094 L 136.710938 320.621094 C 134.882812 320.621094 133.257812 319.199219 133.257812 317.371094 C 133.257812 315.335938 134.882812 313.914062 136.710938 313.914062 L 163.539062 313.914062 C 165.367188 313.914062 166.789062 315.335938 166.789062 317.371094 C 166.789062 319.199219 165.367188 320.621094 163.539062 320.621094 Z M 163.539062 320.621094 " fill-opacity="1" fill-rule="evenodd"/><path fill="#000000" d="M 31.035156 119.019531 L 22.703125 119.019531 C 16.199219 119.019531 10.914062 113.738281 10.914062 107.234375 L 10.914062 88.945312 C 10.914062 82.441406 16.199219 77.15625 22.703125 77.15625 L 31.035156 77.15625 C 32.863281 77.15625 34.488281 78.78125 34.488281 80.613281 C 34.488281 82.441406 32.863281 84.066406 31.035156 84.066406 L 22.703125 84.066406 C 19.855469 84.066406 17.824219 86.097656 17.824219 88.945312 L 17.824219 107.234375 C 17.824219 110.078125 19.855469 112.113281 22.703125 112.113281 L 31.035156 112.113281 C 32.863281 112.113281 34.488281 113.738281 34.488281 115.566406 C 34.488281 117.394531 32.863281 119.019531 31.035156 119.019531 Z M 31.035156 119.019531 " fill-opacity="1" fill-rule="evenodd"/><path fill="#000000" d="M 31.035156 154.179688 L 22.703125 154.179688 C 16.199219 154.179688 10.914062 148.894531 10.914062 142.390625 L 10.914062 124.101562 C 10.914062 117.597656 16.199219 112.113281 22.703125 112.113281 C 24.53125 112.113281 26.15625 113.738281 26.15625 115.566406 C 26.15625 117.394531 24.53125 119.019531 22.703125 119.019531 C 20.058594 119.019531 17.824219 121.257812 17.824219 124.101562 L 17.824219 142.390625 C 17.824219 145.238281 19.855469 147.269531 22.703125 147.269531 L 31.035156 147.269531 C 32.863281 147.269531 34.488281 148.894531 34.488281 150.722656 C 34.488281 152.554688 32.863281 154.179688 31.035156 154.179688 Z M 31.035156 154.179688 " fill-opacity="1" fill-rule="evenodd"/><path fill="#000000" d="M 277.75 136.703125 L 269.417969 136.703125 C 267.386719 136.703125 265.964844 135.074219 265.964844 133.246094 C 265.964844 131.417969 267.386719 129.792969 269.417969 129.792969 L 277.75 129.792969 C 280.1875 129.792969 282.628906 127.558594 282.628906 124.914062 L 282.628906 106.421875 C 282.628906 103.777344 280.1875 101.542969 277.75 101.542969 L 269.417969 101.542969 C 267.386719 101.542969 265.964844 99.917969 265.964844 98.089844 C 265.964844 96.261719 267.386719 94.632812 269.417969 94.632812 L 277.75 94.632812 C 284.050781 94.632812 289.335938 100.121094 289.335938 106.421875 L 289.335938 124.914062 C 289.335938 131.214844 284.050781 136.703125 277.75 136.703125 Z M 277.75 136.703125 " fill-opacity="1" fill-rule="evenodd"/><path fill="#000000" d="M 177.964844 94.226562 L 149.921875 94.226562 C 148.09375 94.226562 146.464844 92.601562 146.464844 90.773438 L 146.464844 66.386719 C 146.464844 64.558594 148.09375 62.929688 149.921875 62.929688 L 177.964844 62.929688 C 179.796875 62.929688 181.21875 64.558594 181.21875 66.386719 L 181.21875 73.296875 C 181.21875 75.125 179.796875 76.75 177.964844 76.75 C 176.136719 76.75 174.511719 75.125 174.511719 73.296875 L 174.511719 69.839844 L 153.375 69.839844 L 153.375 87.316406 L 177.964844 87.316406 C 179.796875 87.316406 181.21875 88.945312 181.21875 90.773438 C 181.21875 92.601562 179.796875 94.226562 177.964844 94.226562 Z M 177.964844 94.226562 " fill-opacity="1" fill-rule="evenodd"/><path fill="#000000" d="M 177.964844 118.816406 L 149.921875 118.816406 C 148.09375 118.816406 146.464844 117.191406 146.464844 115.363281 L 146.464844 108.25 C 146.464844 106.421875 148.09375 104.796875 149.921875 104.796875 C 151.75 104.796875 153.171875 106.421875 153.171875 108.25 L 153.171875 111.910156 L 174.511719 111.910156 L 174.511719 90.773438 C 174.511719 88.945312 176.136719 87.316406 177.964844 87.316406 C 179.796875 87.316406 181.21875 88.945312 181.21875 90.773438 L 181.21875 115.363281 C 181.21875 117.191406 179.796875 118.816406 177.964844 118.816406 Z M 177.964844 118.816406 " fill-opacity="1" fill-rule="evenodd"/><path fill="#000000" d="M 163.945312 126.945312 C 162.113281 126.945312 160.488281 125.320312 160.488281 123.492188 L 160.488281 115.363281 C 160.488281 113.535156 162.113281 111.910156 163.945312 111.910156 C 165.773438 111.910156 167.195312 113.535156 167.195312 115.363281 L 167.195312 123.492188 C 167.195312 125.320312 165.773438 126.945312 163.945312 126.945312 Z M 163.945312 126.945312 " fill-opacity="1" fill-rule="evenodd"/><path fill="#000000" d="M 163.945312 69.839844 C 162.113281 69.839844 160.488281 68.214844 160.488281 66.386719 L 160.488281 58.257812 C 160.488281 56.425781 162.113281 54.800781 163.945312 54.800781 C 165.773438 54.800781 167.195312 56.425781 167.195312 58.257812 L 167.195312 66.386719 C 167.195312 68.214844 165.773438 69.839844 163.945312 69.839844 Z M 163.945312 69.839844 " fill-opacity="1" fill-rule="evenodd"/><path fill="#000000" d="M 216.578125 153.773438 L 72.492188 153.773438 C 70.664062 153.773438 69.039062 152.148438 69.039062 150.316406 C 69.039062 148.488281 70.664062 146.863281 72.492188 146.863281 L 216.578125 146.863281 C 218.410156 146.863281 219.832031 148.488281 219.832031 150.316406 C 219.832031 152.148438 218.410156 153.773438 216.578125 153.773438 Z M 216.578125 153.773438 " fill-opacity="1" fill-rule="evenodd"/><path fill="#000000" d="M 170.242188 180.394531 L 72.492188 180.394531 C 70.664062 180.394531 69.039062 178.769531 69.039062 176.941406 C 69.039062 175.113281 70.664062 173.484375 72.492188 173.484375 L 170.242188 173.484375 C 172.074219 173.484375 173.496094 175.113281 173.496094 176.941406 C 173.496094 178.769531 172.074219 180.394531 170.242188 180.394531 Z M 170.242188 180.394531 " fill-opacity="1" fill-rule="evenodd"/><path fill="#000000" d="M 203.167969 207.019531 L 72.492188 207.019531 C 70.664062 207.019531 69.039062 205.59375 69.039062 203.765625 C 69.039062 201.9375 70.664062 200.3125 72.492188 200.3125 L 203.167969 200.3125 C 204.996094 200.3125 206.417969 201.9375 206.417969 203.765625 C 206.417969 205.59375 204.996094 207.019531 203.167969 207.019531 Z M 203.167969 207.019531 " fill-opacity="1" fill-rule="evenodd"/><path fill="#000000" d="M 216.578125 233.84375 L 72.492188 233.84375 C 70.664062 233.84375 69.039062 232.421875 69.039062 230.59375 C 69.039062 228.761719 70.664062 227.136719 72.492188 227.136719 L 216.578125 227.136719 C 218.410156 227.136719 219.832031 228.761719 219.832031 230.59375 C 219.832031 232.421875 218.410156 233.84375 216.578125 233.84375 Z M 216.578125 233.84375 " fill-opacity="1" fill-rule="evenodd"/><path fill="#000000" d="M 187.316406 278.960938 L 113.136719 278.960938 C 105.617188 278.960938 99.316406 272.863281 99.316406 265.34375 C 99.316406 257.621094 105.617188 251.523438 113.136719 251.523438 L 187.316406 251.523438 C 194.835938 251.523438 200.929688 257.621094 200.929688 265.34375 C 200.929688 272.863281 194.835938 278.960938 187.316406 278.960938 Z M 113.136719 258.230469 C 109.277344 258.230469 106.226562 261.484375 106.226562 265.34375 C 106.226562 269.207031 109.277344 272.253906 113.136719 272.253906 L 187.316406 272.253906 C 191.175781 272.253906 194.222656 269.207031 194.222656 265.34375 C 194.222656 261.484375 191.175781 258.230469 187.316406 258.230469 Z M 113.136719 258.230469 " fill-opacity="1" fill-rule="evenodd"/></svg>