<svg xmlns="http://www.w3.org/2000/svg" xmlns:xlink="http://www.w3.org/1999/xlink" width="350" zoomAndPan="magnify" viewBox="0 0 262.5 225" height="300" preserveAspectRatio="xMidYMid meet" version="1.0"><defs><clipPath id="6812b1732d"><path d="M 10 3.808594 L 247 3.808594 L 247 97 L 10 97 Z M 10 3.808594 " clip-rule="nonzero"/></clipPath><clipPath id="ee071cc956"><path d="M 29 96 L 228 96 L 228 220.894531 L 29 220.894531 Z M 29 96 " clip-rule="nonzero"/></clipPath><clipPath id="91cf565642"><path d="M 164 180 L 209 180 L 209 220.894531 L 164 220.894531 Z M 164 180 " clip-rule="nonzero"/></clipPath><clipPath id="c5c7d366a4"><path d="M 91 173 L 165 173 L 165 220.894531 L 91 220.894531 Z M 91 173 " clip-rule="nonzero"/></clipPath><clipPath id="c8114ccca1"><path d="M 47 180 L 93 180 L 93 220.894531 L 47 220.894531 Z M 47 180 " clip-rule="nonzero"/></clipPath></defs><g clip-path="url(#6812b1732d)"><path fill="#000000" d="M 235.65625 96.34375 C 236.425781 96.34375 237.230469 96.269531 238 96.085938 C 240.855469 95.464844 243.304688 93.785156 244.917969 91.300781 C 248.171875 86.21875 246.710938 79.421875 241.621094 76.167969 L 130.335938 4.464844 C 129.128906 3.699219 127.589844 3.699219 126.382812 4.464844 L 15.09375 76.167969 C 10.007812 79.421875 8.542969 86.21875 11.800781 91.300781 C 13.375 93.75 15.828125 95.464844 18.71875 96.085938 C 21.609375 96.707031 24.535156 96.160156 26.988281 94.589844 L 128.359375 29.28125 L 229.730469 94.589844 C 231.523438 95.757812 233.570312 96.34375 235.65625 96.34375 Z M 241.84375 89.324219 Z M 128.359375 21.277344 C 127.664062 21.277344 126.96875 21.460938 126.382812 21.859375 L 23.035156 88.414062 C 22.230469 88.925781 21.242188 89.105469 20.292969 88.925781 C 19.339844 88.703125 18.535156 88.15625 17.984375 87.351562 C 16.886719 85.671875 17.402344 83.40625 19.085938 82.308594 L 128.359375 11.882812 L 237.632812 82.308594 C 239.316406 83.40625 239.828125 85.671875 238.730469 87.351562 C 238.21875 88.15625 237.378906 88.742188 236.425781 88.925781 C 235.476562 89.144531 234.488281 88.925781 233.683594 88.414062 L 130.335938 21.859375 C 129.714844 21.460938 129.054688 21.277344 128.359375 21.277344 Z M 128.359375 21.277344 " fill-opacity="1" fill-rule="nonzero"/></g><path fill="#000000" d="M 146.65625 103.945312 L 110.0625 103.945312 C 108.046875 103.945312 106.402344 102.300781 106.402344 100.289062 L 106.402344 63.742188 C 106.402344 61.734375 108.046875 60.089844 110.0625 60.089844 L 146.65625 60.089844 C 148.667969 60.089844 150.316406 61.734375 150.316406 63.742188 L 150.316406 100.289062 C 150.316406 102.300781 148.667969 103.945312 146.65625 103.945312 Z M 113.722656 96.636719 L 142.996094 96.636719 L 142.996094 67.398438 L 113.722656 67.398438 Z M 113.722656 96.636719 " fill-opacity="1" fill-rule="nonzero"/><path fill="#000000" d="M 128.359375 103.945312 C 126.347656 103.945312 124.699219 102.300781 124.699219 100.289062 L 124.699219 63.742188 C 124.699219 61.734375 126.347656 60.089844 128.359375 60.089844 C 130.371094 60.089844 132.019531 61.734375 132.019531 63.742188 L 132.019531 100.289062 C 132.019531 102.300781 130.371094 103.945312 128.359375 103.945312 Z M 128.359375 103.945312 " fill-opacity="1" fill-rule="nonzero"/><path fill="#000000" d="M 146.65625 85.671875 L 110.0625 85.671875 C 108.046875 85.671875 106.402344 84.027344 106.402344 82.015625 C 106.402344 80.007812 108.046875 78.363281 110.0625 78.363281 L 146.65625 78.363281 C 148.667969 78.363281 150.316406 80.007812 150.316406 82.015625 C 150.316406 84.027344 148.667969 85.671875 146.65625 85.671875 Z M 146.65625 85.671875 " fill-opacity="1" fill-rule="nonzero"/><g clip-path="url(#ee071cc956)"><path fill="#000000" d="M 225.742188 100.726562 L 219.847656 96.925781 L 219.847656 213.585938 L 36.871094 213.585938 L 36.871094 96.925781 L 30.976562 100.726562 C 30.503906 101.019531 30.027344 101.3125 29.550781 101.53125 L 29.550781 217.238281 C 29.550781 219.25 31.199219 220.894531 33.210938 220.894531 L 223.507812 220.894531 C 225.519531 220.894531 227.167969 219.25 227.167969 217.238281 L 227.167969 101.53125 C 226.691406 101.3125 226.214844 101.019531 225.742188 100.726562 Z M 225.742188 100.726562 " fill-opacity="1" fill-rule="nonzero"/></g><g clip-path="url(#91cf565642)"><path fill="#000000" d="M 178.019531 180.691406 L 170.1875 180.691406 C 168.285156 180.691406 166.382812 180.875 164.550781 181.242188 C 164.734375 181.460938 164.917969 181.679688 165.066406 181.898438 C 166.492188 183.835938 167.699219 185.917969 168.6875 188.074219 C 169.199219 188 169.675781 188 170.1875 188 L 178.019531 188 C 191.011719 188 201.550781 198.527344 201.550781 211.5 L 201.550781 213.585938 L 172.273438 213.585938 L 172.273438 216.324219 C 172.273438 217.933594 171.945312 219.503906 171.359375 220.894531 L 204.296875 220.894531 C 206.820312 220.894531 208.871094 218.847656 208.871094 216.324219 L 208.871094 211.5 C 208.871094 194.507812 195.035156 180.691406 178.019531 180.691406 Z M 178.019531 180.691406 " fill-opacity="1" fill-rule="nonzero"/></g><g clip-path="url(#c5c7d366a4)"><path fill="#000000" d="M 160.378906 220.894531 L 96.335938 220.894531 C 93.8125 220.894531 91.761719 218.847656 91.761719 216.324219 L 91.761719 204.191406 C 91.761719 197.613281 93.777344 191.402344 97.617188 186.136719 C 103.328125 178.171875 112.695312 173.382812 122.613281 173.382812 L 134.105469 173.382812 C 144.023438 173.382812 153.355469 178.171875 159.097656 186.175781 C 162.90625 191.402344 164.953125 197.648438 164.953125 204.191406 L 164.953125 216.324219 C 164.953125 218.847656 162.90625 220.894531 160.378906 220.894531 Z M 99.082031 213.585938 L 157.636719 213.585938 L 157.636719 204.191406 C 157.636719 199.183594 156.097656 194.433594 153.171875 190.449219 C 148.78125 184.347656 141.644531 180.691406 134.105469 180.691406 L 122.613281 180.691406 C 115.039062 180.691406 107.9375 184.347656 103.546875 190.414062 C 100.621094 194.433594 99.082031 199.183594 99.082031 204.191406 Z M 99.082031 213.585938 " fill-opacity="1" fill-rule="nonzero"/></g><g clip-path="url(#c8114ccca1)"><path fill="#000000" d="M 86.53125 180.691406 L 78.699219 180.691406 C 61.679688 180.691406 47.847656 194.507812 47.847656 211.5 L 47.847656 216.324219 C 47.847656 218.847656 49.898438 220.894531 52.421875 220.894531 L 85.359375 220.894531 C 84.773438 219.503906 84.445312 217.933594 84.445312 216.324219 L 84.445312 213.585938 L 55.167969 213.585938 L 55.167969 211.5 C 55.167969 198.527344 65.707031 188 78.699219 188 L 86.53125 188 C 87.042969 188 87.519531 188 88.03125 188.074219 C 89.054688 185.882812 90.261719 183.796875 91.726562 181.824219 C 91.875 181.605469 92.019531 181.421875 92.164062 181.242188 C 90.335938 180.875 88.433594 180.691406 86.53125 180.691406 Z M 86.53125 180.691406 " fill-opacity="1" fill-rule="nonzero"/></g><path fill="#000000" d="M 128.359375 169.726562 C 118.257812 169.726562 110.0625 161.542969 110.0625 151.457031 C 110.0625 141.367188 118.257812 133.183594 128.359375 133.183594 C 138.460938 133.183594 146.65625 141.367188 146.65625 151.457031 C 146.65625 161.542969 138.460938 169.726562 128.359375 169.726562 Z M 128.359375 140.492188 C 122.320312 140.492188 117.378906 145.425781 117.378906 151.457031 C 117.378906 157.484375 122.320312 162.417969 128.359375 162.417969 C 134.398438 162.417969 139.335938 157.484375 139.335938 151.457031 C 139.335938 145.425781 134.398438 140.492188 128.359375 140.492188 Z M 128.359375 140.492188 " fill-opacity="1" fill-rule="nonzero"/><path fill="#000000" d="M 174.105469 177.039062 C 166.015625 177.039062 159.464844 170.496094 159.464844 162.417969 C 159.464844 154.34375 166.015625 147.800781 174.105469 147.800781 C 182.191406 147.800781 188.742188 154.34375 188.742188 162.417969 C 188.742188 170.496094 182.191406 177.039062 174.105469 177.039062 Z M 174.105469 155.109375 C 170.078125 155.109375 166.785156 158.398438 166.785156 162.417969 C 166.785156 166.4375 170.078125 169.726562 174.105469 169.726562 C 178.128906 169.726562 181.421875 166.4375 181.421875 162.417969 C 181.421875 158.398438 178.128906 155.109375 174.105469 155.109375 Z M 174.105469 155.109375 " fill-opacity="1" fill-rule="nonzero"/><path fill="#000000" d="M 82.613281 177.039062 C 74.527344 177.039062 67.976562 170.496094 67.976562 162.417969 C 67.976562 154.34375 74.527344 147.800781 82.613281 147.800781 C 90.703125 147.800781 97.253906 154.34375 97.253906 162.417969 C 97.253906 170.496094 90.703125 177.039062 82.613281 177.039062 Z M 82.613281 155.109375 C 78.589844 155.109375 75.296875 158.398438 75.296875 162.417969 C 75.296875 166.4375 78.589844 169.726562 82.613281 169.726562 C 86.640625 169.726562 89.933594 166.4375 89.933594 162.417969 C 89.933594 158.398438 86.640625 155.109375 82.613281 155.109375 Z M 82.613281 155.109375 " fill-opacity="1" fill-rule="nonzero"/></svg>