<svg xmlns="http://www.w3.org/2000/svg" xmlns:xlink="http://www.w3.org/1999/xlink" width="400" zoomAndPan="magnify" viewBox="0 0 300 299.999988" height="400" preserveAspectRatio="xMidYMid meet" version="1.0"><defs><clipPath id="483598275e"><path d="M 8.375 5.164062 L 226 5.164062 L 226 290.914062 L 8.375 290.914062 Z M 8.375 5.164062 " clip-rule="nonzero"/></clipPath></defs><g clip-path="url(#483598275e)"><path fill="#000000" d="M 203.007812 290.914062 L 30.988281 290.914062 C 18.761719 290.914062 8.878906 281.035156 8.878906 268.972656 L 8.878906 26.605469 C 8.878906 14.714844 18.59375 5.164062 30.316406 5.164062 L 203.675781 5.164062 C 215.402344 5.164062 225.117188 14.714844 225.117188 26.605469 L 225.117188 157.421875 C 225.117188 159.933594 223.105469 161.941406 220.59375 161.941406 C 218.082031 161.941406 216.074219 159.933594 216.074219 157.421875 L 216.074219 26.605469 C 216.074219 19.738281 210.542969 14.042969 203.675781 14.042969 L 30.316406 14.042969 C 23.449219 14.042969 17.921875 19.738281 17.921875 26.605469 L 17.921875 268.972656 C 17.921875 276.175781 23.785156 282.039062 30.988281 282.039062 L 203.007812 282.039062 C 210.210938 282.039062 216.074219 276.175781 216.074219 268.972656 L 216.074219 266.964844 C 216.074219 264.453125 218.082031 262.441406 220.59375 262.441406 C 223.105469 262.441406 225.117188 264.453125 225.117188 266.964844 L 225.117188 268.972656 C 225.117188 281.035156 215.234375 290.914062 203.007812 290.914062 Z M 203.007812 290.914062 " fill-opacity="1" fill-rule="evenodd"/></g><path fill="#000000" d="M 51.085938 250.382812 C 39.699219 250.382812 30.484375 241.167969 30.484375 229.78125 C 30.484375 218.390625 39.699219 209.175781 51.085938 209.175781 C 62.476562 209.175781 71.691406 218.390625 71.691406 229.78125 C 71.691406 241.167969 62.476562 250.382812 51.085938 250.382812 Z M 51.085938 195.273438 C 39.699219 195.273438 30.484375 186.0625 30.484375 174.671875 C 30.484375 163.28125 39.699219 154.070312 51.085938 154.070312 C 62.476562 154.070312 71.691406 163.28125 71.691406 174.671875 C 71.691406 186.0625 62.476562 195.273438 51.085938 195.273438 Z M 51.085938 140.167969 C 39.699219 140.167969 30.484375 130.957031 30.484375 119.566406 C 30.484375 108.175781 39.699219 98.964844 51.085938 98.964844 C 62.476562 98.964844 71.691406 108.175781 71.691406 119.566406 C 71.691406 130.957031 62.476562 140.167969 51.085938 140.167969 Z M 51.085938 86.90625 C 39.699219 86.90625 30.484375 77.691406 30.484375 66.300781 C 30.484375 54.914062 39.699219 45.699219 51.085938 45.699219 C 62.476562 45.699219 71.691406 54.914062 71.691406 66.300781 C 71.691406 77.691406 62.476562 86.90625 51.085938 86.90625 Z M 51.085938 86.90625 " fill-opacity="1" fill-rule="evenodd"/><path fill="#000000" d="M 156.109375 225.257812 L 88.941406 225.257812 C 86.429688 225.257812 84.417969 223.246094 84.417969 220.734375 C 84.417969 218.222656 86.429688 216.210938 88.941406 216.210938 L 156.109375 216.210938 C 158.453125 216.210938 160.464844 218.222656 160.464844 220.734375 C 160.464844 223.246094 158.453125 225.257812 156.109375 225.257812 Z M 156.109375 225.257812 " fill-opacity="1" fill-rule="evenodd"/><path fill="#000000" d="M 185.085938 245.859375 L 88.941406 245.859375 C 86.429688 245.859375 84.417969 243.847656 84.417969 241.335938 C 84.417969 238.824219 86.429688 236.8125 88.941406 236.8125 L 185.085938 236.8125 C 187.597656 236.8125 189.441406 238.824219 189.441406 241.335938 C 189.441406 243.847656 187.597656 245.859375 185.085938 245.859375 Z M 185.085938 245.859375 " fill-opacity="1" fill-rule="evenodd"/><path fill="#000000" d="M 156.109375 170.152344 L 88.941406 170.152344 C 86.429688 170.152344 84.417969 168.140625 84.417969 165.628906 C 84.417969 163.117188 86.429688 161.105469 88.941406 161.105469 L 156.109375 161.105469 C 158.453125 161.105469 160.464844 163.117188 160.464844 165.628906 C 160.464844 168.140625 158.453125 170.152344 156.109375 170.152344 Z M 156.109375 170.152344 " fill-opacity="1" fill-rule="evenodd"/><path fill="#000000" d="M 183.242188 190.753906 L 88.941406 190.753906 C 86.429688 190.753906 84.417969 188.742188 84.417969 186.230469 C 84.417969 183.71875 86.429688 181.707031 88.941406 181.707031 L 183.242188 181.707031 C 185.753906 181.707031 187.765625 183.71875 187.765625 186.230469 C 187.765625 188.742188 185.753906 190.753906 183.242188 190.753906 Z M 183.242188 190.753906 " fill-opacity="1" fill-rule="evenodd"/><path fill="#000000" d="M 156.109375 114.875 L 88.941406 114.875 C 86.429688 114.875 84.417969 112.867188 84.417969 110.523438 C 84.417969 108.007812 86.429688 106 88.941406 106 L 156.109375 106 C 158.453125 106 160.464844 108.007812 160.464844 110.523438 C 160.464844 112.867188 158.453125 114.875 156.109375 114.875 Z M 156.109375 114.875 " fill-opacity="1" fill-rule="evenodd"/><path fill="#000000" d="M 199.15625 135.480469 L 88.941406 135.480469 C 86.429688 135.480469 84.417969 133.46875 84.417969 131.125 C 84.417969 128.609375 86.429688 126.601562 88.941406 126.601562 L 199.15625 126.601562 C 201.5 126.601562 203.511719 128.609375 203.511719 131.125 C 203.511719 133.46875 201.5 135.480469 199.15625 135.480469 Z M 199.15625 135.480469 " fill-opacity="1" fill-rule="evenodd"/><path fill="#000000" d="M 156.109375 61.613281 L 88.941406 61.613281 C 86.429688 61.613281 84.417969 59.601562 84.417969 57.257812 C 84.417969 54.746094 86.429688 52.734375 88.941406 52.734375 L 156.109375 52.734375 C 158.453125 52.734375 160.464844 54.746094 160.464844 57.257812 C 160.464844 59.601562 158.453125 61.613281 156.109375 61.613281 Z M 156.109375 61.613281 " fill-opacity="1" fill-rule="evenodd"/><path fill="#000000" d="M 199.15625 82.214844 L 88.941406 82.214844 C 86.429688 82.214844 84.417969 80.203125 84.417969 77.859375 C 84.417969 75.347656 86.429688 73.335938 88.941406 73.335938 L 199.15625 73.335938 C 201.5 73.335938 203.511719 75.347656 203.511719 77.859375 C 203.511719 80.203125 201.5 82.214844 199.15625 82.214844 Z M 199.15625 82.214844 " fill-opacity="1" fill-rule="evenodd"/><path fill="#000000" d="M 232.988281 272.824219 C 199.65625 272.824219 172.523438 245.523438 172.523438 212.191406 C 172.523438 178.859375 199.65625 151.558594 232.988281 151.558594 C 266.488281 151.558594 293.625 178.859375 293.625 212.191406 C 293.625 245.523438 266.488281 272.824219 232.988281 272.824219 Z M 250.578125 234.132812 C 249.402344 234.132812 248.230469 233.632812 247.394531 232.792969 L 229.972656 215.375 C 229.136719 214.539062 228.46875 213.53125 228.46875 212.191406 L 228.46875 174.171875 C 228.46875 171.824219 230.476562 169.816406 232.988281 169.816406 C 235.5 169.816406 237.511719 171.824219 237.511719 174.171875 L 237.511719 210.351562 L 253.589844 226.597656 C 255.433594 228.273438 255.433594 231.121094 253.589844 232.792969 C 252.753906 233.632812 251.582031 234.132812 250.578125 234.132812 Z M 250.578125 234.132812 " fill-opacity="1" fill-rule="evenodd"/></svg>