<svg width="14" height="14" viewBox="0 0 14 14" fill="none" xmlns="http://www.w3.org/2000/svg">
<g clip-path="url(#clip0_1867_9235)">
<path d="M3.73346 7.00001L6.53346 9.33334L10.2668 4.66667M7.00013 13.5333C6.14216 13.5333 5.29259 13.3644 4.49993 13.036C3.70727 12.7077 2.98704 12.2264 2.38037 11.6198C1.77369 11.0131 1.29245 10.2929 0.964117 9.50021C0.635787 8.70755 0.466797 7.85798 0.466797 7.00001C0.466797 6.14204 0.635787 5.29247 0.964117 4.49981C1.29245 3.70715 1.77369 2.98692 2.38037 2.38024C2.98704 1.77357 3.70727 1.29233 4.49993 0.963995C5.29259 0.635664 6.14216 0.466675 7.00013 0.466675C8.73288 0.466675 10.3947 1.15501 11.6199 2.38024C12.8451 3.60548 13.5335 5.26726 13.5335 7.00001C13.5335 8.73276 12.8451 10.3945 11.6199 11.6198C10.3947 12.845 8.73288 13.5333 7.00013 13.5333Z" stroke="#1A1A1A" stroke-opacity="0.5" stroke-width="0.933333"/>
</g>
<defs>
<clipPath id="clip0_1867_9235">
<rect width="14" height="14" fill="white"/>
</clipPath>
</defs>
</svg>
