<svg xmlns="http://www.w3.org/2000/svg" xmlns:xlink="http://www.w3.org/1999/xlink" width="500" zoomAndPan="magnify" viewBox="0 0 375 374.999991" height="500" preserveAspectRatio="xMidYMid meet" version="1.0"><defs><clipPath id="d6353ae9df"><path d="M 28.390625 2.402344 L 308 2.402344 L 308 372.902344 L 28.390625 372.902344 Z M 28.390625 2.402344 " clip-rule="nonzero"/></clipPath><clipPath id="7bbadd582e"><path d="M 230 2.402344 L 308 2.402344 L 308 80 L 230 80 Z M 230 2.402344 " clip-rule="nonzero"/></clipPath><clipPath id="81a5bd28b9"><path d="M 217 142 L 365.890625 142 L 365.890625 291 L 217 291 Z M 217 142 " clip-rule="nonzero"/></clipPath></defs><g clip-path="url(#d6353ae9df)"><path fill="#000000" d="M 280.664062 372.902344 L 55.324219 372.902344 C 40.519531 372.902344 28.464844 360.828125 28.464844 346 L 28.464844 29.308594 C 28.464844 14.480469 40.519531 2.402344 55.324219 2.402344 L 235.929688 2.402344 C 237.261719 2.402344 238.507812 2.902344 239.421875 3.902344 L 306.027344 70.625 C 306.941406 71.539062 307.523438 72.871094 307.523438 74.121094 L 307.523438 178.410156 C 307.523438 179.742188 307.023438 180.992188 306.027344 181.988281 L 245.742188 241.546875 L 231.441406 276.699219 L 267.945312 263.371094 L 298.960938 232.132812 C 300.371094 230.71875 302.535156 230.300781 304.363281 231.050781 C 306.195312 231.800781 307.441406 233.632812 307.441406 235.632812 L 307.441406 346 C 307.523438 360.828125 295.46875 372.902344 280.664062 372.902344 Z M 55.324219 12.398438 C 46.007812 12.398438 38.441406 19.980469 38.441406 29.308594 L 38.441406 346 C 38.441406 355.328125 46.007812 362.910156 55.324219 362.910156 L 280.664062 362.910156 C 289.980469 362.910156 297.546875 355.328125 297.546875 346 L 297.546875 247.710938 L 274.261719 271.117188 C 273.765625 271.617188 273.097656 272.03125 272.433594 272.28125 L 224.289062 289.773438 C 222.460938 290.441406 220.378906 289.941406 218.964844 288.527344 C 217.554688 287.109375 217.21875 285.027344 217.96875 283.195312 L 236.84375 236.714844 C 237.09375 236.050781 237.507812 235.550781 237.925781 235.050781 L 297.460938 176.242188 L 297.460938 76.203125 L 233.769531 12.398438 Z M 55.324219 12.398438 " fill-opacity="1" fill-rule="nonzero"/></g><g clip-path="url(#7bbadd582e)"><path fill="#000000" d="M 302.535156 79.121094 L 253.722656 79.121094 C 241.167969 79.121094 230.941406 68.875 230.941406 56.296875 L 230.941406 7.402344 C 230.941406 5.402344 232.1875 3.570312 234.015625 2.820312 C 235.847656 2.070312 238.007812 2.488281 239.421875 3.902344 L 306.027344 70.625 C 307.441406 72.039062 307.855469 74.207031 307.109375 76.039062 C 306.359375 77.871094 304.53125 79.121094 302.535156 79.121094 Z M 240.917969 19.480469 L 240.917969 56.296875 C 240.917969 63.375 246.65625 69.125 253.722656 69.125 L 290.476562 69.125 Z M 240.917969 19.480469 " fill-opacity="1" fill-rule="nonzero"/></g><path fill="#000000" d="M 123.675781 104.691406 C 109.871094 104.691406 98.644531 93.445312 98.644531 79.621094 C 98.644531 65.792969 109.871094 54.546875 123.675781 54.546875 C 137.476562 54.546875 148.703125 65.792969 148.703125 79.621094 C 148.703125 93.445312 137.394531 104.691406 123.675781 104.691406 Z M 123.675781 64.542969 C 115.359375 64.542969 108.625 71.289062 108.625 79.621094 C 108.625 87.949219 115.359375 94.695312 123.675781 94.695312 C 131.988281 94.695312 138.722656 87.949219 138.722656 79.621094 C 138.722656 71.289062 131.90625 64.542969 123.675781 64.542969 Z M 123.675781 64.542969 " fill-opacity="1" fill-rule="nonzero"/><path fill="#000000" d="M 136.894531 136.011719 L 110.285156 136.011719 C 107.542969 136.011719 105.296875 133.761719 105.296875 131.011719 L 105.296875 124.097656 C 105.214844 124.097656 105.128906 124.015625 105.046875 124.015625 L 100.226562 128.847656 C 98.3125 130.761719 95.152344 130.761719 93.15625 128.847656 L 74.363281 110.023438 C 73.449219 109.105469 72.867188 107.773438 72.867188 106.523438 C 72.867188 105.273438 73.367188 103.941406 74.363281 103.027344 L 79.1875 98.195312 C 79.1875 98.109375 79.105469 98.027344 79.105469 97.945312 L 72.203125 97.945312 C 69.457031 97.945312 67.214844 95.695312 67.214844 92.945312 L 67.214844 66.292969 C 67.214844 63.542969 69.457031 61.292969 72.203125 61.292969 L 79.105469 61.292969 C 79.105469 61.210938 79.1875 61.128906 79.1875 61.042969 L 74.363281 56.214844 C 72.453125 54.296875 72.453125 51.132812 74.363281 49.132812 L 93.238281 30.308594 C 95.152344 28.390625 98.3125 28.390625 100.308594 30.308594 L 105.128906 35.140625 C 105.214844 35.140625 105.296875 35.054688 105.378906 35.054688 L 105.378906 28.140625 C 105.378906 25.394531 107.625 23.144531 110.371094 23.144531 L 136.976562 23.144531 C 139.722656 23.144531 141.96875 25.394531 141.96875 28.140625 L 141.96875 35.054688 C 142.050781 35.054688 142.132812 35.140625 142.21875 35.140625 L 147.039062 30.308594 C 147.953125 29.390625 149.285156 28.808594 150.53125 28.808594 C 151.78125 28.808594 153.109375 29.308594 154.023438 30.308594 L 172.816406 49.132812 C 174.730469 51.050781 174.730469 54.214844 172.816406 56.214844 L 167.996094 61.042969 C 167.996094 61.128906 168.078125 61.210938 168.078125 61.292969 L 174.980469 61.292969 C 177.722656 61.292969 179.96875 63.542969 179.96875 66.292969 L 179.96875 92.945312 C 179.96875 95.695312 177.722656 97.945312 174.980469 97.945312 L 168.078125 97.945312 C 168.078125 98.027344 167.996094 98.109375 167.996094 98.195312 L 172.816406 103.027344 C 174.730469 104.941406 174.730469 108.105469 172.816406 110.105469 L 154.023438 128.929688 C 152.113281 130.847656 148.953125 130.847656 146.957031 128.929688 L 142.132812 124.097656 C 142.050781 124.097656 141.96875 124.183594 141.882812 124.183594 L 141.882812 131.097656 C 141.882812 133.761719 139.722656 136.011719 136.894531 136.011719 Z M 115.359375 126.015625 L 131.988281 126.015625 L 131.988281 120.683594 C 131.988281 118.519531 133.402344 116.601562 135.398438 115.9375 C 137.3125 115.351562 139.140625 114.519531 140.96875 113.605469 C 142.882812 112.605469 145.210938 113.019531 146.789062 114.519531 L 150.617188 118.351562 L 162.339844 106.605469 L 158.515625 102.777344 C 157.019531 101.277344 156.601562 98.859375 157.601562 96.945312 C 158.515625 95.113281 159.261719 93.28125 159.929688 91.363281 C 160.59375 89.28125 162.507812 87.949219 164.667969 87.949219 L 169.988281 87.949219 L 169.988281 71.289062 L 164.667969 71.289062 C 162.507812 71.289062 160.59375 69.875 159.929688 67.875 C 159.347656 65.957031 158.515625 64.125 157.601562 62.292969 C 156.601562 60.378906 157.019531 58.046875 158.515625 56.464844 L 162.257812 52.714844 L 150.53125 40.96875 L 146.707031 44.800781 C 145.210938 46.300781 142.800781 46.71875 140.886719 45.71875 C 139.058594 44.800781 137.226562 44.050781 135.316406 43.386719 C 133.238281 42.71875 131.90625 40.804688 131.90625 38.636719 L 131.90625 33.308594 L 115.277344 33.308594 L 115.277344 38.554688 C 115.277344 40.71875 113.863281 42.636719 111.867188 43.300781 C 109.953125 43.886719 108.125 44.71875 106.296875 45.632812 C 104.382812 46.632812 102.054688 46.21875 100.472656 44.71875 L 96.648438 40.886719 L 85.007812 52.714844 L 88.832031 56.546875 C 90.328125 58.046875 90.746094 60.460938 89.746094 62.378906 C 88.832031 64.210938 88.085938 66.042969 87.417969 67.957031 C 86.753906 70.039062 84.839844 71.375 82.679688 71.375 L 77.359375 71.375 L 77.359375 88.03125 L 82.679688 88.03125 C 84.839844 88.03125 86.753906 89.449219 87.417969 91.449219 C 88 93.363281 88.832031 95.195312 89.746094 97.027344 C 90.746094 98.945312 90.328125 101.277344 88.832031 102.859375 L 85.007812 106.691406 L 96.734375 118.433594 L 100.558594 114.605469 C 102.054688 113.105469 104.464844 112.6875 106.378906 113.6875 C 108.207031 114.605469 110.035156 115.351562 111.949219 116.019531 C 114.027344 116.6875 115.359375 118.601562 115.359375 120.765625 Z M 115.359375 126.015625 " fill-opacity="1" fill-rule="nonzero"/><path fill="#000000" d="M 111.78125 210.476562 L 64.21875 210.476562 C 61.476562 210.476562 59.230469 208.226562 59.230469 205.480469 L 59.230469 157.835938 C 59.230469 155.085938 61.476562 152.835938 64.21875 152.835938 L 111.78125 152.835938 C 114.527344 152.835938 116.773438 155.085938 116.773438 157.835938 L 116.773438 205.480469 C 116.773438 208.226562 114.609375 210.476562 111.78125 210.476562 Z M 69.207031 200.480469 L 106.792969 200.480469 L 106.792969 162.832031 L 69.207031 162.832031 Z M 69.207031 200.480469 " fill-opacity="1" fill-rule="nonzero"/><path fill="#000000" d="M 89.414062 197.148438 C 87.917969 197.148438 86.585938 196.484375 85.589844 195.402344 L 73.78125 181.574219 C 71.953125 179.492188 72.203125 176.324219 74.363281 174.492188 C 76.441406 172.660156 79.601562 172.910156 81.433594 175.078125 L 89.332031 184.40625 L 114.777344 153.585938 C 116.523438 151.421875 119.683594 151.171875 121.761719 152.917969 C 123.921875 154.667969 124.171875 157.835938 122.425781 159.917969 L 93.15625 195.316406 C 92.324219 196.484375 90.996094 197.148438 89.414062 197.148438 C 89.5 197.148438 89.5 197.148438 89.414062 197.148438 Z M 89.414062 197.148438 " fill-opacity="1" fill-rule="nonzero"/><path fill="#000000" d="M 241.5 165.832031 L 136.5625 165.832031 C 133.820312 165.832031 131.574219 163.582031 131.574219 160.832031 C 131.574219 158.085938 133.820312 155.835938 136.5625 155.835938 L 241.585938 155.835938 C 244.328125 155.835938 246.574219 158.085938 246.574219 160.832031 C 246.574219 163.582031 244.246094 165.832031 241.5 165.832031 Z M 241.5 165.832031 " fill-opacity="1" fill-rule="nonzero"/><path fill="#000000" d="M 231.105469 186.320312 L 139.222656 186.320312 C 136.480469 186.320312 134.234375 184.074219 134.234375 181.324219 C 134.234375 178.574219 136.480469 176.324219 139.222656 176.324219 L 231.105469 176.324219 C 233.851562 176.324219 236.097656 178.574219 236.097656 181.324219 C 236.097656 184.074219 233.851562 186.320312 231.105469 186.320312 Z M 231.105469 186.320312 " fill-opacity="1" fill-rule="nonzero"/><path fill="#000000" d="M 111.78125 282.195312 L 64.21875 282.195312 C 61.476562 282.195312 59.230469 279.945312 59.230469 277.195312 L 59.230469 229.550781 C 59.230469 226.804688 61.476562 224.554688 64.21875 224.554688 L 111.78125 224.554688 C 114.527344 224.554688 116.773438 226.804688 116.773438 229.550781 L 116.773438 277.195312 C 116.773438 279.945312 114.609375 282.195312 111.78125 282.195312 Z M 69.207031 272.199219 L 106.792969 272.199219 L 106.792969 234.550781 L 69.207031 234.550781 Z M 69.207031 272.199219 " fill-opacity="1" fill-rule="nonzero"/><path fill="#000000" d="M 89.414062 268.867188 C 87.917969 268.867188 86.585938 268.203125 85.589844 267.117188 L 73.78125 253.292969 C 71.953125 251.207031 72.203125 248.042969 74.363281 246.210938 C 76.441406 244.378906 79.601562 244.628906 81.433594 246.792969 L 89.332031 256.125 L 114.777344 225.304688 C 116.523438 223.136719 119.683594 222.886719 121.761719 224.636719 C 123.839844 226.386719 124.171875 229.550781 122.425781 231.632812 L 93.15625 267.035156 C 92.324219 268.203125 90.996094 268.867188 89.414062 268.867188 C 89.5 268.867188 89.5 268.867188 89.414062 268.867188 Z M 89.414062 268.867188 " fill-opacity="1" fill-rule="nonzero"/><path fill="#000000" d="M 219.964844 237.546875 L 136.5625 237.546875 C 133.820312 237.546875 131.574219 235.300781 131.574219 232.550781 C 131.574219 229.800781 133.820312 227.554688 136.5625 227.554688 L 219.964844 227.554688 C 222.707031 227.554688 224.953125 229.800781 224.953125 232.550781 C 224.953125 235.300781 222.707031 237.546875 219.964844 237.546875 Z M 219.964844 237.546875 " fill-opacity="1" fill-rule="nonzero"/><path fill="#000000" d="M 211.730469 258.121094 L 138.722656 258.121094 C 135.980469 258.121094 133.734375 255.875 133.734375 253.125 C 133.734375 250.375 135.980469 248.125 138.722656 248.125 L 211.730469 248.125 C 214.476562 248.125 216.722656 250.375 216.722656 253.125 C 216.722656 255.875 214.476562 258.121094 211.730469 258.121094 Z M 211.730469 258.121094 " fill-opacity="1" fill-rule="nonzero"/><path fill="#000000" d="M 111.78125 353.996094 L 64.21875 353.996094 C 61.476562 353.996094 59.230469 351.746094 59.230469 349 L 59.230469 301.351562 C 59.230469 298.605469 61.476562 296.355469 64.21875 296.355469 L 111.78125 296.355469 C 114.527344 296.355469 116.773438 298.605469 116.773438 301.351562 L 116.773438 349 C 116.773438 351.746094 114.609375 353.996094 111.78125 353.996094 Z M 69.207031 344 L 106.792969 344 L 106.792969 306.351562 L 69.207031 306.351562 Z M 69.207031 344 " fill-opacity="1" fill-rule="nonzero"/><path fill="#000000" d="M 89.414062 340.667969 C 87.917969 340.667969 86.585938 340.003906 85.589844 338.917969 L 73.867188 325.09375 C 72.035156 323.011719 72.285156 319.84375 74.449219 318.011719 C 76.527344 316.179688 79.6875 316.429688 81.515625 318.59375 L 89.414062 327.925781 L 114.859375 297.105469 C 116.605469 294.9375 119.765625 294.6875 121.84375 296.4375 C 123.921875 298.1875 124.257812 301.351562 122.507812 303.433594 L 93.238281 338.835938 C 92.324219 340.003906 90.996094 340.667969 89.414062 340.667969 C 89.5 340.667969 89.5 340.667969 89.414062 340.667969 Z M 89.414062 340.667969 " fill-opacity="1" fill-rule="nonzero"/><path fill="#000000" d="M 241.5 309.347656 L 136.5625 309.347656 C 133.820312 309.347656 131.574219 307.101562 131.574219 304.351562 C 131.574219 301.601562 133.820312 299.355469 136.5625 299.355469 L 241.585938 299.355469 C 244.328125 299.355469 246.574219 301.601562 246.574219 304.351562 C 246.574219 307.101562 244.246094 309.347656 241.5 309.347656 Z M 241.5 309.347656 " fill-opacity="1" fill-rule="nonzero"/><path fill="#000000" d="M 231.105469 329.921875 L 139.222656 329.921875 C 136.480469 329.921875 134.234375 327.675781 134.234375 324.925781 C 134.234375 322.175781 136.480469 319.929688 139.222656 319.929688 L 231.105469 319.929688 C 233.851562 319.929688 236.097656 322.175781 236.097656 324.925781 C 236.097656 327.675781 233.851562 329.921875 231.105469 329.921875 Z M 231.105469 329.921875 " fill-opacity="1" fill-rule="nonzero"/><g clip-path="url(#81a5bd28b9)"><path fill="#000000" d="M 222.625 290.109375 C 221.296875 290.109375 219.964844 289.609375 219.050781 288.609375 C 217.71875 287.191406 217.304688 285.109375 218.050781 283.277344 L 236.925781 236.796875 C 237.175781 236.132812 237.59375 235.632812 238.007812 235.132812 L 328.480469 145.757812 C 330.640625 143.589844 333.632812 142.425781 336.710938 142.507812 C 339.789062 142.589844 342.699219 144.007812 344.691406 146.257812 L 362.988281 166.832031 C 366.894531 171.246094 366.730469 177.992188 362.570312 182.238281 L 274.261719 271.117188 C 273.765625 271.617188 273.097656 272.03125 272.433594 272.28125 L 224.289062 289.773438 C 223.789062 290.023438 223.207031 290.109375 222.625 290.109375 Z M 245.742188 241.464844 L 231.441406 276.613281 L 267.945312 263.285156 L 355.503906 175.078125 C 355.917969 174.578125 356.003906 173.828125 355.503906 173.410156 L 337.210938 152.835938 C 336.878906 152.503906 336.542969 152.421875 336.292969 152.421875 C 336.046875 152.421875 335.710938 152.503906 335.378906 152.753906 Z M 359.078125 178.65625 Z M 359.078125 178.65625 " fill-opacity="1" fill-rule="nonzero"/></g><path fill="#000000" d="M 269.191406 270.449219 C 267.945312 270.449219 266.695312 270.035156 265.78125 269.035156 L 238.839844 243.460938 C 236.84375 241.546875 236.761719 238.382812 238.671875 236.382812 C 240.585938 234.382812 243.746094 234.300781 245.742188 236.214844 L 272.683594 261.789062 C 274.679688 263.703125 274.761719 266.867188 272.847656 268.867188 C 271.769531 269.949219 270.519531 270.449219 269.191406 270.449219 Z M 269.191406 270.449219 " fill-opacity="1" fill-rule="nonzero"/><path fill="#000000" d="M 341.617188 197.734375 C 340.371094 197.734375 339.207031 197.316406 338.207031 196.398438 L 312.679688 172.578125 C 310.683594 170.660156 310.519531 167.496094 312.429688 165.496094 C 314.34375 163.5 317.503906 163.332031 319.5 165.246094 L 345.027344 189.070312 C 347.023438 190.984375 347.1875 194.152344 345.277344 196.148438 C 344.277344 197.148438 342.945312 197.734375 341.617188 197.734375 Z M 341.617188 197.734375 " fill-opacity="1" fill-rule="nonzero"/></svg>