<svg width="21" height="21" viewBox="0 0 21 21" fill="none" xmlns="http://www.w3.org/2000/svg">
<path d="M15.0938 17.0568V2.95312C15.093 2.69229 14.989 2.44235 14.8046 2.2579C14.6202 2.07346 14.3702 1.96951 14.1094 1.96875H2.95312C2.69229 1.96951 2.44235 2.07346 2.2579 2.2579C2.07346 2.44235 1.96951 2.69229 1.96875 2.95312V17.3906C1.97005 17.8253 2.14332 18.2419 2.45071 18.5493C2.75811 18.8567 3.17465 19.03 3.60938 19.0312H17.0625" stroke="#1A1A1A" stroke-linejoin="round"/>
<path d="M17.0625 19.0312C16.5404 19.0312 16.0396 18.8238 15.6704 18.4546C15.3012 18.0854 15.0938 17.5846 15.0938 17.0625V5.25H18.0469C18.3079 5.25 18.5583 5.35371 18.7429 5.53832C18.9275 5.72292 19.0312 5.9733 19.0312 6.23438V17.0625C19.0312 17.5846 18.8238 18.0854 18.4546 18.4546C18.0854 18.8238 17.5846 19.0312 17.0625 19.0312Z" stroke="#1A1A1A" stroke-linejoin="round"/>
<path d="M9.84375 5.25H12.4688M9.84375 7.875H12.4688M4.59375 10.5H12.4688M4.59375 13.125H12.4688M4.59375 15.75H12.4688" stroke="#1A1A1A" stroke-linecap="round" stroke-linejoin="round"/>
<path d="M7.21875 8.53125H4.59375C4.4197 8.53125 4.25278 8.46211 4.12971 8.33904C4.00664 8.21597 3.9375 8.04905 3.9375 7.875V5.25C3.9375 5.07595 4.00664 4.90903 4.12971 4.78596C4.25278 4.66289 4.4197 4.59375 4.59375 4.59375H7.21875C7.3928 4.59375 7.55972 4.66289 7.68279 4.78596C7.80586 4.90903 7.875 5.07595 7.875 5.25V7.875C7.875 8.04905 7.80586 8.21597 7.68279 8.33904C7.55972 8.46211 7.3928 8.53125 7.21875 8.53125Z" fill="#1A1A1A"/>
</svg>
