<svg width="24" height="24" viewBox="0 0 24 24" fill="none" xmlns="http://www.w3.org/2000/svg">
<path d="M8.39961 13.2002C8.71787 13.2002 9.02309 13.0737 9.24814 12.8487C9.47318 12.6236 9.59961 12.3184 9.59961 12.0002C9.59961 11.6819 9.47318 11.3767 9.24814 11.1516C9.02309 10.9266 8.71787 10.8002 8.39961 10.8002C8.08135 10.8002 7.77613 10.9266 7.55108 11.1516C7.32604 11.3767 7.19961 11.6819 7.19961 12.0002C7.19961 12.3184 7.32604 12.6236 7.55108 12.8487C7.77613 13.0737 8.08135 13.2002 8.39961 13.2002ZM11.9996 13.2002C12.3179 13.2002 12.6231 13.0737 12.8481 12.8487C13.0732 12.6236 13.1996 12.3184 13.1996 12.0002C13.1996 11.6819 13.0732 11.3767 12.8481 11.1516C12.6231 10.9266 12.3179 10.8002 11.9996 10.8002C11.6813 10.8002 11.3761 10.9266 11.1511 11.1516C10.926 11.3767 10.7996 11.6819 10.7996 12.0002C10.7996 12.3184 10.926 12.6236 11.1511 12.8487C11.3761 13.0737 11.6813 13.2002 11.9996 13.2002ZM16.7996 12.0002C16.7996 12.3184 16.6732 12.6236 16.4481 12.8487C16.2231 13.0737 15.9179 13.2002 15.5996 13.2002C15.2814 13.2002 14.9761 13.0737 14.7511 12.8487C14.526 12.6236 14.3996 12.3184 14.3996 12.0002C14.3996 11.6819 14.526 11.3767 14.7511 11.1516C14.9761 10.9266 15.2814 10.8002 15.5996 10.8002C15.9179 10.8002 16.2231 10.9266 16.4481 11.1516C16.6732 11.3767 16.7996 11.6819 16.7996 12.0002ZM8.39961 16.8002C8.71787 16.8002 9.02309 16.6737 9.24814 16.4487C9.47318 16.2236 9.59961 15.9184 9.59961 15.6002C9.59961 15.2819 9.47318 14.9767 9.24814 14.7516C9.02309 14.5266 8.71787 14.4002 8.39961 14.4002C8.08135 14.4002 7.77613 14.5266 7.55108 14.7516C7.32604 14.9767 7.19961 15.2819 7.19961 15.6002C7.19961 15.9184 7.32604 16.2236 7.55108 16.4487C7.77613 16.6737 8.08135 16.8002 8.39961 16.8002ZM13.1996 15.6002C13.1996 15.9184 13.0732 16.2236 12.8481 16.4487C12.6231 16.6737 12.3179 16.8002 11.9996 16.8002C11.6813 16.8002 11.3761 16.6737 11.1511 16.4487C10.926 16.2236 10.7996 15.9184 10.7996 15.6002C10.7996 15.2819 10.926 14.9767 11.1511 14.7516C11.3761 14.5266 11.6813 14.4002 11.9996 14.4002C12.3179 14.4002 12.6231 14.5266 12.8481 14.7516C13.0732 14.9767 13.1996 15.2819 13.1996 15.6002ZM15.5996 16.8002C15.9179 16.8002 16.2231 16.6737 16.4481 16.4487C16.6732 16.2236 16.7996 15.9184 16.7996 15.6002C16.7996 15.2819 16.6732 14.9767 16.4481 14.7516C16.2231 14.5266 15.9179 14.4002 15.5996 14.4002C15.2814 14.4002 14.9761 14.5266 14.7511 14.7516C14.526 14.9767 14.3996 15.2819 14.3996 15.6002C14.3996 15.9184 14.526 16.2236 14.7511 16.4487C14.9761 16.6737 15.2814 16.8002 15.5996 16.8002ZM10.7972 2.86095C11.1276 2.56411 11.5561 2.3999 12.0002 2.3999C12.4444 2.3999 12.8728 2.56411 13.2032 2.86095L19.8032 8.79255C19.991 8.96144 20.1412 9.16796 20.2439 9.39868C20.3467 9.62941 20.3997 9.87918 20.3996 10.1318V18.6002C20.3996 19.0775 20.21 19.5354 19.8724 19.8729C19.5348 20.2105 19.077 20.4002 18.5996 20.4002H5.39961C4.92222 20.4002 4.46438 20.2105 4.12682 19.8729C3.78925 19.5354 3.59961 19.0775 3.59961 18.6002V10.1318C3.59961 9.62175 3.81561 9.13455 4.19721 8.79255L10.7972 2.86095ZM12.4004 3.75375C12.2903 3.65492 12.1476 3.60025 11.9996 3.60025C11.8517 3.60025 11.7089 3.65492 11.5988 3.75375L4.99881 9.68535C4.93614 9.74161 4.88601 9.81043 4.85169 9.88734C4.81737 9.96426 4.79962 10.0475 4.79961 10.1318V18.6002C4.79961 18.7593 4.86282 18.9119 4.97535 19.0244C5.08787 19.1369 5.24048 19.2002 5.39961 19.2002H18.5996C18.7587 19.2002 18.9114 19.1369 19.0239 19.0244C19.1364 18.9119 19.1996 18.7593 19.1996 18.6002V10.1318C19.1996 10.0475 19.1819 9.96426 19.1475 9.88734C19.1132 9.81043 19.0631 9.74161 19.0004 9.68535L12.4004 3.75375Z" fill="#1A1A1A"/>
</svg>
