<svg width="14" height="14" viewBox="0 0 14 14" fill="none" xmlns="http://www.w3.org/2000/svg">
<path d="M5.25 2.04167V11.9583M11.9583 5.54167H2.04167M1.75 5.48333C1.75 4.17667 1.75 3.52333 2.00433 3.024C2.22803 2.58497 2.58497 2.22803 3.024 2.00433C3.52333 1.75 4.17667 1.75 5.48333 1.75L8.51667 1.75C9.82333 1.75 10.4767 1.75 10.976 2.00433C11.415 2.22803 11.772 2.58497 11.9957 3.024C12.25 3.52333 12.25 4.17667 12.25 5.48333V8.51667C12.25 9.82333 12.25 10.4767 11.9957 10.976C11.772 11.415 11.415 11.772 10.976 11.9957C10.4767 12.25 9.82333 12.25 8.51667 12.25H5.48333C4.17667 12.25 3.52333 12.25 3.024 11.9957C2.58497 11.772 2.22803 11.415 2.00433 10.976C1.75 10.4767 1.75 9.82333 1.75 8.51667L1.75 5.48333Z" stroke="#1A1A1A" stroke-opacity="0.5" stroke-width="0.875" stroke-linecap="round" stroke-linejoin="round"/>
</svg>
