<svg width="24" height="24" viewBox="0 0 24 24" fill="none" xmlns="http://www.w3.org/2000/svg">
<path fill-rule="evenodd" clip-rule="evenodd" d="M16.6222 15.1721L20.8662 19.4161L19.4522 20.8311L15.2122 16.5911C13.7986 17.6557 12.0341 18.1454 10.274 17.9617C8.5139 17.7779 6.88872 16.9343 5.72552 15.6005C4.56232 14.2668 3.94744 12.5421 4.00464 10.7733C4.06183 9.00452 4.78684 7.32306 6.03377 6.06729C7.2807 4.81152 8.957 4.07464 10.7253 4.00495C12.4936 3.93526 14.2227 4.53792 15.5646 5.69167C16.9065 6.84542 17.7616 8.4646 17.9578 10.2234C18.154 11.9822 17.6768 13.75 16.6222 15.1711V15.1721ZM16.0002 11.0001C16.0002 9.67402 15.4734 8.40225 14.5357 7.46456C13.598 6.52688 12.3263 6.0001 11.0002 6.0001C9.6741 6.0001 8.40233 6.52688 7.46465 7.46456C6.52697 8.40225 6.00018 9.67402 6.00018 11.0001C6.00018 12.3262 6.52697 13.5979 7.46465 14.5356C8.40233 15.4733 9.6741 16.0001 11.0002 16.0001C12.3263 16.0001 13.598 15.4733 14.5357 14.5356C15.4734 13.5979 16.0002 12.3262 16.0002 11.0001Z" fill="#1A1A1A"/>
</svg>
