<svg xmlns="http://www.w3.org/2000/svg" xmlns:xlink="http://www.w3.org/1999/xlink" width="500" zoomAndPan="magnify" viewBox="0 0 375 374.999991" height="500" preserveAspectRatio="xMidYMid meet" version="1.0"><defs><clipPath id="a71a942117"><path d="M 14 121 L 361.972656 121 L 361.972656 360.589844 L 14 360.589844 Z M 14 121 " clip-rule="nonzero"/></clipPath><clipPath id="bd09945886"><path d="M 21 14.839844 L 288 14.839844 L 288 129 L 21 129 Z M 21 14.839844 " clip-rule="nonzero"/></clipPath></defs><g clip-path="url(#a71a942117)"><path fill="#000000" d="M 54.746094 185.128906 L 54.746094 181.5625 C 54.746094 164.363281 54.746094 147.160156 54.746094 129.960938 C 54.746094 129.222656 54.703125 128.480469 54.765625 127.742188 C 54.777344 127.324219 54.824219 126.910156 54.914062 126.5 C 55.003906 126.089844 55.132812 125.695312 55.296875 125.308594 C 55.464844 124.925781 55.664062 124.558594 55.902344 124.210938 C 56.140625 123.867188 56.40625 123.546875 56.707031 123.25 C 57.003906 122.957031 57.328125 122.695312 57.679688 122.460938 C 58.027344 122.230469 58.398438 122.035156 58.785156 121.875 C 59.171875 121.710938 59.570312 121.589844 59.984375 121.507812 C 60.394531 121.421875 60.808594 121.378906 61.230469 121.375 C 61.648438 121.371094 62.066406 121.40625 62.476562 121.484375 C 62.890625 121.558594 63.292969 121.675781 63.683594 121.828125 C 64.074219 121.984375 64.445312 122.171875 64.796875 122.398438 C 65.152344 122.625 65.480469 122.882812 65.785156 123.171875 C 66.089844 123.460938 66.363281 123.773438 66.605469 124.117188 C 66.847656 124.457031 67.058594 124.820312 67.230469 125.203125 C 67.402344 125.585938 67.539062 125.980469 67.632812 126.386719 C 67.730469 126.792969 67.789062 127.207031 67.804688 127.625 C 67.882812 128.453125 67.835938 129.289062 67.835938 130.121094 C 67.835938 151.578125 67.863281 173.03125 67.792969 194.484375 C 67.753906 195.402344 67.910156 196.285156 68.265625 197.132812 C 68.617188 197.980469 69.136719 198.710938 69.816406 199.328125 C 79.828125 209.203125 89.746094 219.171875 99.703125 229.105469 C 100.339844 229.742188 101.015625 230.34375 101.933594 231.207031 C 102.253906 230.347656 102.480469 229.804688 102.664062 229.253906 C 103.140625 227.6875 103.738281 226.175781 104.460938 224.710938 C 105.183594 223.246094 106.019531 221.847656 106.972656 220.515625 C 107.921875 219.1875 108.972656 217.941406 110.125 216.785156 C 111.277344 215.625 112.519531 214.566406 113.84375 213.609375 C 115.167969 212.652344 116.5625 211.804688 118.023438 211.074219 C 119.488281 210.34375 121 209.734375 122.5625 209.25 C 124.125 208.761719 125.714844 208.40625 127.335938 208.179688 C 128.953125 207.949219 130.582031 207.855469 132.21875 207.890625 C 151.199219 207.84375 170.183594 207.902344 189.164062 207.835938 C 190.738281 207.835938 192.234375 207.5 193.652344 206.820312 C 200.835938 203.132812 208.328125 200.25 216.132812 198.167969 C 223.9375 196.089844 231.871094 194.867188 239.941406 194.492188 C 240.300781 194.476562 240.65625 194.390625 241.445312 194.269531 L 241.445312 191.066406 C 241.445312 170.441406 241.441406 149.820312 241.429688 129.203125 C 241.429688 126.34375 242.109375 123.859375 244.710938 122.320312 C 249.265625 119.632812 254.429688 122.78125 254.515625 128.371094 C 254.613281 134.84375 254.539062 141.316406 254.539062 147.792969 C 254.539062 162.679688 254.585938 177.570312 254.492188 192.457031 C 254.476562 194.679688 255.148438 195.355469 257.359375 195.730469 C 276.628906 199 292.417969 208.554688 305.523438 222.808594 C 306.589844 223.964844 307.613281 225.160156 308.636719 226.359375 C 309.597656 227.472656 310.535156 228.605469 311.449219 229.6875 C 313.292969 228.230469 315.230469 226.917969 317.265625 225.75 C 317.945312 225.394531 318.648438 225.09375 319.375 224.84375 C 320.097656 224.59375 320.835938 224.398438 321.589844 224.253906 C 322.34375 224.113281 323.101562 224.023438 323.871094 223.992188 C 324.636719 223.960938 325.398438 223.984375 326.164062 224.066406 C 326.925781 224.144531 327.679688 224.28125 328.421875 224.472656 C 329.164062 224.660156 329.886719 224.902344 330.59375 225.199219 C 331.304688 225.496094 331.984375 225.839844 332.640625 226.238281 C 333.296875 226.632812 333.921875 227.074219 334.515625 227.558594 C 342.375 233.425781 350.136719 239.417969 357.914062 245.390625 C 361.53125 248.164062 362.203125 251.886719 359.765625 255.019531 C 357.351562 258.113281 353.636719 258.34375 349.945312 255.550781 C 342.566406 249.972656 335.214844 244.351562 327.847656 238.757812 C 324.449219 236.179688 323.027344 236.390625 320.589844 239.824219 C 300.671875 267.871094 280.757812 295.917969 260.84375 323.96875 C 258.328125 327.519531 258.472656 328.613281 261.96875 331.285156 C 269.605469 337.136719 277.257812 342.972656 284.917969 348.792969 C 285.472656 349.144531 285.957031 349.570312 286.378906 350.070312 C 286.800781 350.570312 287.140625 351.121094 287.390625 351.726562 C 287.644531 352.328125 287.800781 352.957031 287.863281 353.605469 C 287.921875 354.257812 287.882812 354.902344 287.746094 355.542969 C 287.660156 356.171875 287.476562 356.773438 287.195312 357.339844 C 286.910156 357.910156 286.539062 358.414062 286.085938 358.859375 C 285.632812 359.304688 285.121094 359.667969 284.546875 359.941406 C 283.972656 360.214844 283.367188 360.386719 282.738281 360.460938 C 280.792969 360.648438 278.992188 360.21875 277.34375 359.171875 C 268.910156 353 260.585938 346.675781 252.371094 340.203125 C 251.585938 339.585938 250.863281 338.902344 250.207031 338.152344 C 249.546875 337.402344 248.960938 336.597656 248.449219 335.742188 C 247.941406 334.882812 247.511719 333.984375 247.167969 333.050781 C 246.824219 332.113281 246.570312 331.152344 246.402344 330.167969 C 246.234375 329.183594 246.160156 328.195312 246.175781 327.195312 C 246.191406 326.199219 246.300781 325.210938 246.5 324.234375 C 246.699219 323.253906 246.984375 322.304688 247.359375 321.378906 C 247.734375 320.453125 248.191406 319.570312 248.730469 318.730469 C 249.097656 318.109375 249.425781 317.460938 250.140625 316.15625 C 245.398438 314.542969 240.984375 312.707031 236.386719 311.53125 C 222.195312 307.902344 207.660156 307.605469 193.113281 307.488281 C 175.988281 307.351562 158.859375 307.273438 141.734375 306.953125 C 129.882812 306.730469 118.085938 305.792969 106.710938 301.960938 C 96.164062 298.410156 87.675781 291.757812 79.9375 284.09375 C 60.671875 265.023438 41.480469 245.871094 22.367188 226.636719 C 21.292969 225.5625 20.316406 224.40625 19.445312 223.160156 C 18.570312 221.917969 17.8125 220.605469 17.167969 219.230469 C 16.523438 217.851562 16.003906 216.429688 15.609375 214.964844 C 15.210938 213.496094 14.945312 212.007812 14.8125 210.492188 C 14.675781 208.980469 14.671875 207.464844 14.800781 205.953125 C 14.929688 204.4375 15.191406 202.949219 15.582031 201.480469 C 15.96875 200.011719 16.484375 198.585938 17.125 197.207031 C 17.761719 195.828125 18.515625 194.515625 19.382812 193.265625 C 20.234375 192.027344 21.1875 190.867188 22.238281 189.785156 C 23.289062 188.707031 24.421875 187.726562 25.640625 186.839844 C 26.859375 185.953125 28.144531 185.175781 29.496094 184.511719 C 30.847656 183.84375 32.246094 183.296875 33.6875 182.867188 C 35.132812 182.4375 36.605469 182.136719 38.101562 181.957031 C 39.597656 181.78125 41.097656 181.730469 42.601562 181.808594 C 44.109375 181.886719 45.597656 182.089844 47.066406 182.421875 C 48.535156 182.753906 49.96875 183.207031 51.359375 183.78125 C 52.382812 184.183594 53.382812 184.585938 54.746094 185.128906 Z M 162.261719 254.496094 C 172.722656 254.496094 183.183594 254.476562 193.648438 254.496094 C 198.144531 254.503906 201.128906 257.074219 201.210938 260.894531 C 201.292969 264.824219 198.242188 267.554688 193.628906 267.558594 C 173.074219 267.574219 152.523438 267.570312 131.96875 267.546875 C 129.027344 267.679688 126.140625 267.332031 123.3125 266.511719 C 120.480469 265.691406 117.859375 264.441406 115.445312 262.753906 C 111.917969 259.796875 108.601562 256.621094 105.496094 253.222656 C 98.996094 246.769531 92.511719 240.300781 86.046875 233.816406 C 74.460938 222.246094 62.875 210.675781 51.289062 199.105469 C 50.835938 198.59375 50.34375 198.117188 49.8125 197.679688 C 49.285156 197.246094 48.722656 196.851562 48.132812 196.503906 C 47.542969 196.152344 46.925781 195.851562 46.289062 195.597656 C 45.652344 195.34375 44.996094 195.140625 44.328125 194.992188 C 43.65625 194.839844 42.980469 194.738281 42.296875 194.695312 C 41.609375 194.648438 40.925781 194.65625 40.242188 194.71875 C 39.558594 194.777344 38.882812 194.890625 38.21875 195.058594 C 37.550781 195.222656 36.902344 195.441406 36.269531 195.707031 C 35.753906 195.90625 35.257812 196.136719 34.769531 196.398438 C 34.285156 196.65625 33.820312 196.945312 33.371094 197.265625 C 32.921875 197.582031 32.492188 197.925781 32.085938 198.296875 C 31.679688 198.667969 31.296875 199.0625 30.9375 199.480469 C 30.582031 199.898438 30.25 200.339844 29.945312 200.796875 C 29.644531 201.257812 29.371094 201.730469 29.125 202.222656 C 28.878906 202.71875 28.667969 203.222656 28.484375 203.742188 C 28.304688 204.261719 28.152344 204.789062 28.039062 205.328125 C 27.921875 205.863281 27.835938 206.40625 27.789062 206.953125 C 27.738281 207.503906 27.722656 208.050781 27.742188 208.601562 C 27.761719 209.152344 27.8125 209.695312 27.898438 210.242188 C 27.984375 210.785156 28.105469 211.320312 28.257812 211.847656 C 28.410156 212.375 28.59375 212.894531 28.8125 213.398438 C 29.027344 213.90625 29.273438 214.394531 29.550781 214.871094 C 29.828125 215.34375 30.132812 215.800781 30.46875 216.238281 C 30.800781 216.675781 31.160156 217.089844 31.546875 217.484375 C 35.410156 221.59375 39.480469 225.507812 43.484375 229.488281 C 59.695312 245.585938 75.863281 261.726562 92.160156 277.738281 C 100.519531 285.949219 110.488281 291.300781 122.300781 292.289062 C 134.269531 293.292969 146.28125 294.035156 158.285156 294.355469 C 175.496094 294.816406 192.726562 294.515625 209.925781 295.058594 C 225.902344 295.566406 241.648438 297.652344 256.199219 305.066406 C 256.671875 305.164062 257.140625 305.148438 257.601562 305.011719 C 258.066406 304.875 258.46875 304.640625 258.8125 304.300781 C 260.992188 301.546875 262.945312 298.621094 264.976562 295.757812 C 277.347656 278.34375 289.730469 260.9375 302.128906 243.546875 C 303.433594 241.726562 303.578125 240.476562 302.058594 238.816406 C 299.757812 236.285156 297.742188 233.496094 295.410156 230.996094 C 282.816406 217.5 267.582031 209.085938 248.9375 207.71875 C 230.804688 206.386719 213.929688 210.878906 197.921875 219.226562 C 195.863281 220.289062 193.671875 220.84375 191.355469 220.890625 C 171.632812 221.015625 151.914062 220.914062 132.195312 221.023438 C 129.589844 220.984375 127.070312 221.433594 124.640625 222.375 C 123.757812 222.753906 122.914062 223.207031 122.109375 223.730469 C 121.304688 224.253906 120.550781 224.84375 119.851562 225.5 C 119.148438 226.152344 118.503906 226.863281 117.925781 227.625 C 117.34375 228.390625 116.832031 229.199219 116.390625 230.050781 C 115.949219 230.902344 115.585938 231.785156 115.296875 232.699219 C 115.003906 233.613281 114.796875 234.546875 114.667969 235.496094 C 114.539062 236.445312 114.492188 237.402344 114.527344 238.359375 C 114.5625 239.316406 114.679688 240.265625 114.878906 241.203125 C 115.078125 242.144531 115.355469 243.058594 115.710938 243.949219 C 116.066406 244.839844 116.496094 245.695312 117 246.511719 C 117.5 247.328125 118.070312 248.097656 118.707031 248.816406 C 119.34375 249.535156 120.035156 250.195312 120.78125 250.792969 C 121.53125 251.394531 122.328125 251.925781 123.167969 252.390625 C 124.007812 252.855469 124.882812 253.246094 125.789062 253.558594 C 126.695312 253.871094 127.625 254.109375 128.574219 254.261719 C 129.519531 254.417969 130.476562 254.488281 131.433594 254.480469 C 141.714844 254.527344 151.992188 254.492188 162.269531 254.496094 Z M 162.261719 254.496094 " fill-opacity="1" fill-rule="nonzero"/></g><g clip-path="url(#bd09945886)"><path fill="#000000" d="M 201.441406 46.785156 C 201.441406 42.671875 201.429688 39.277344 201.441406 35.882812 C 201.472656 27.019531 206.976562 21.453125 215.785156 21.429688 C 223.933594 21.40625 232.085938 21.40625 240.230469 21.429688 C 248.867188 21.457031 254.519531 27.054688 254.535156 35.664062 C 254.5625 53.046875 254.609375 70.433594 254.472656 87.816406 C 254.4375 88.402344 254.476562 88.980469 254.585938 89.554688 C 254.699219 90.128906 254.878906 90.679688 255.132812 91.210938 C 255.382812 91.738281 255.699219 92.226562 256.074219 92.675781 C 256.449219 93.125 256.875 93.519531 257.351562 93.859375 C 266.515625 101.363281 275.539062 109.035156 284.628906 116.625 C 286.8125 118.453125 288.351562 120.574219 287.664062 123.566406 C 286.496094 128.695312 281.035156 130.453125 276.828125 126.96875 C 267.058594 118.894531 257.367188 110.722656 247.652344 102.582031 C 219.148438 78.691406 190.640625 54.800781 162.136719 30.910156 C 157.054688 26.652344 152.121094 26.761719 146.898438 31.132812 C 109.035156 62.875 71.171875 94.609375 33.300781 126.332031 C 28.523438 130.332031 23.109375 129.148438 21.683594 123.777344 C 20.855469 120.65625 22.441406 118.484375 24.707031 116.59375 C 35.5 107.578125 46.277344 98.546875 57.046875 89.5 C 84 66.921875 110.949219 44.347656 137.898438 21.773438 C 149.066406 12.417969 160.242188 12.429688 171.425781 21.808594 C 180.503906 29.410156 189.585938 37.011719 198.667969 44.613281 C 199.375 45.1875 200.105469 45.730469 201.441406 46.785156 Z M 241.328125 34.675781 L 214.535156 34.675781 C 214.535156 41.65625 214.585938 48.464844 214.503906 55.273438 C 214.4375 56.097656 214.574219 56.886719 214.914062 57.640625 C 215.253906 58.398438 215.753906 59.023438 216.414062 59.523438 C 224.121094 65.855469 231.722656 72.308594 239.375 78.710938 C 240.003906 79.167969 240.65625 79.59375 241.328125 79.980469 Z M 241.328125 34.675781 " fill-opacity="1" fill-rule="nonzero"/></g><path fill="#000000" d="M 197.382812 88.152344 C 196.59375 89.863281 195.683594 91.507812 194.648438 93.082031 C 178.503906 114.15625 162.335938 135.210938 146.140625 156.234375 C 138.976562 165.546875 131.816406 174.855469 124.660156 184.167969 C 122.785156 186.609375 120.550781 188.242188 117.308594 187.367188 C 117.042969 187.308594 116.78125 187.234375 116.523438 187.140625 C 116.265625 187.050781 116.011719 186.941406 115.769531 186.820312 C 115.527344 186.695312 115.292969 186.554688 115.066406 186.402344 C 114.839844 186.25 114.625 186.082031 114.421875 185.898438 C 114.21875 185.714844 114.027344 185.523438 113.847656 185.316406 C 113.667969 185.109375 113.503906 184.890625 113.351562 184.664062 C 113.203125 184.4375 113.066406 184.199219 112.945312 183.953125 C 112.828125 183.707031 112.722656 183.457031 112.636719 183.199219 C 112.546875 182.9375 112.476562 182.675781 112.421875 182.40625 C 112.371094 182.140625 112.335938 181.871094 112.316406 181.597656 C 112.296875 181.324219 112.296875 181.054688 112.3125 180.78125 C 112.328125 180.507812 112.363281 180.238281 112.417969 179.96875 C 112.46875 179.699219 112.535156 179.4375 112.621094 179.179688 C 112.707031 178.917969 112.8125 178.667969 112.929688 178.421875 C 113.046875 178.175781 113.183594 177.9375 113.332031 177.707031 C 113.480469 177.480469 113.644531 177.261719 113.820312 177.054688 C 119.472656 169.5 125.269531 162.058594 131.019531 154.578125 C 148.832031 131.410156 166.648438 108.242188 184.46875 85.078125 C 187.179688 81.5625 189.84375 80.585938 193.035156 82 C 193.640625 82.269531 194.203125 82.613281 194.714844 83.035156 C 195.226562 83.457031 195.675781 83.9375 196.058594 84.476562 C 196.441406 85.019531 196.746094 85.601562 196.96875 86.226562 C 197.195312 86.851562 197.332031 87.492188 197.382812 88.152344 Z M 197.382812 88.152344 " fill-opacity="1" fill-rule="nonzero"/><path fill="#000000" d="M 143.410156 107.730469 C 142.839844 121.222656 134.175781 132.089844 121.539062 134.039062 C 113.386719 135.296875 106.628906 132.097656 101.355469 125.96875 C 100.3125 124.714844 99.382812 123.382812 98.570312 121.96875 C 97.757812 120.554688 97.070312 119.082031 96.511719 117.550781 C 95.953125 116.019531 95.53125 114.449219 95.242188 112.84375 C 94.957031 111.238281 94.808594 109.621094 94.800781 107.992188 C 94.789062 106.363281 94.921875 104.742188 95.191406 103.136719 C 95.464844 101.527344 95.871094 99.953125 96.414062 98.417969 C 96.957031 96.878906 97.628906 95.398438 98.425781 93.976562 C 99.222656 92.554688 100.136719 91.210938 101.167969 89.949219 C 112.3125 76.488281 132.988281 79.539062 140.058594 95.839844 C 141.453125 99.726562 142.570312 103.691406 143.410156 107.730469 Z M 107.164062 107.753906 C 107.9375 110.667969 108.980469 113.488281 110.285156 116.207031 C 114.410156 123.070312 123.011719 123.003906 127.378906 116.296875 C 128.171875 115.015625 128.773438 113.648438 129.183594 112.199219 C 129.589844 110.746094 129.789062 109.269531 129.777344 107.761719 C 129.765625 106.253906 129.542969 104.777344 129.113281 103.335938 C 128.683594 101.890625 128.0625 100.535156 127.246094 99.265625 C 122.90625 92.839844 114.59375 92.722656 110.464844 99.277344 C 109.089844 101.996094 107.988281 104.824219 107.164062 107.753906 Z M 107.164062 107.753906 " fill-opacity="1" fill-rule="nonzero"/><path fill="#000000" d="M 215.117188 161.117188 C 214.4375 174.644531 205.769531 185.441406 193.105469 187.335938 C 185.078125 188.535156 178.382812 185.382812 173.136719 179.363281 C 172.609375 178.730469 172.105469 178.078125 171.632812 177.398438 C 171.164062 176.722656 170.722656 176.027344 170.308594 175.3125 C 169.898438 174.597656 169.519531 173.867188 169.171875 173.117188 C 168.820312 172.371094 168.507812 171.609375 168.226562 170.832031 C 167.945312 170.058594 167.695312 169.273438 167.484375 168.476562 C 167.269531 167.679688 167.089844 166.875 166.949219 166.0625 C 166.804688 165.25 166.699219 164.433594 166.625 163.613281 C 166.554688 162.789062 166.515625 161.96875 166.515625 161.144531 C 166.515625 160.320312 166.550781 159.496094 166.621094 158.675781 C 166.691406 157.851562 166.800781 157.035156 166.941406 156.222656 C 167.082031 155.410156 167.261719 154.605469 167.472656 153.808594 C 167.683594 153.011719 167.929688 152.226562 168.210938 151.449219 C 168.492188 150.675781 168.804688 149.914062 169.152344 149.164062 C 169.5 148.417969 169.878906 147.683594 170.289062 146.96875 C 170.699219 146.253906 171.140625 145.558594 171.609375 144.878906 C 172.082031 144.203125 172.582031 143.546875 173.109375 142.914062 C 173.421875 142.539062 173.75 142.175781 174.085938 141.824219 C 174.421875 141.46875 174.773438 141.128906 175.132812 140.796875 C 175.492188 140.464844 175.859375 140.148438 176.242188 139.839844 C 176.621094 139.535156 177.007812 139.238281 177.410156 138.957031 C 177.808594 138.675781 178.214844 138.40625 178.632812 138.152344 C 179.046875 137.894531 179.472656 137.652344 179.902344 137.425781 C 180.335938 137.195312 180.773438 136.984375 181.21875 136.78125 C 181.664062 136.582031 182.117188 136.398438 182.574219 136.226562 C 183.03125 136.054688 183.492188 135.898438 183.960938 135.757812 C 184.429688 135.613281 184.902344 135.488281 185.375 135.378906 C 185.851562 135.265625 186.332031 135.171875 186.8125 135.089844 C 187.296875 135.007812 187.777344 134.945312 188.265625 134.894531 C 188.75 134.847656 189.238281 134.8125 189.726562 134.792969 C 190.214844 134.777344 190.703125 134.773438 191.191406 134.789062 C 191.679688 134.800781 192.167969 134.828125 192.65625 134.875 C 193.140625 134.917969 193.625 134.980469 194.109375 135.054688 C 194.589844 135.132812 195.070312 135.222656 195.546875 135.328125 C 196.023438 135.4375 196.496094 135.558594 196.964844 135.695312 C 197.433594 135.832031 197.898438 135.984375 198.359375 136.152344 C 198.816406 136.316406 199.269531 136.5 199.71875 136.695312 C 200.164062 136.890625 200.605469 137.101562 201.039062 137.324219 C 201.472656 137.550781 201.902344 137.789062 202.320312 138.039062 C 202.738281 138.292969 203.148438 138.554688 203.550781 138.835938 C 203.949219 139.113281 204.34375 139.402344 204.726562 139.707031 C 205.109375 140.007812 205.480469 140.324219 205.84375 140.652344 C 206.207031 140.980469 206.558594 141.316406 206.898438 141.667969 C 207.238281 142.015625 207.570312 142.378906 207.886719 142.746094 C 208.203125 143.117188 208.507812 143.5 208.800781 143.890625 C 209.09375 144.28125 209.375 144.679688 209.640625 145.089844 C 209.910156 145.496094 210.164062 145.914062 210.402344 146.339844 C 210.644531 146.761719 210.871094 147.195312 211.082031 147.636719 C 211.292969 148.074219 211.492188 148.519531 211.675781 148.972656 C 213.117188 152.9375 214.261719 156.988281 215.117188 161.117188 Z M 178.898438 160.695312 L 179.34375 160.980469 C 179.566406 162.710938 179.875 164.425781 180.273438 166.125 C 180.558594 167.226562 181 168.265625 181.597656 169.234375 C 182.191406 170.203125 182.917969 171.0625 183.773438 171.816406 C 184.628906 172.566406 185.578125 173.179688 186.617188 173.648438 C 187.65625 174.113281 188.738281 174.421875 189.871094 174.5625 C 190.425781 174.582031 190.980469 174.554688 191.535156 174.484375 C 192.085938 174.417969 192.628906 174.304688 193.164062 174.148438 C 193.699219 173.992188 194.214844 173.792969 194.71875 173.554688 C 195.222656 173.316406 195.703125 173.039062 196.164062 172.726562 C 196.621094 172.410156 197.054688 172.0625 197.457031 171.679688 C 197.859375 171.296875 198.230469 170.882812 198.570312 170.441406 C 198.90625 170 199.207031 169.535156 199.472656 169.046875 C 199.738281 168.554688 199.960938 168.050781 200.144531 167.523438 C 200.699219 166.320312 201.09375 165.066406 201.320312 163.761719 C 201.550781 162.457031 201.609375 161.144531 201.496094 159.824219 C 201.382812 158.503906 201.101562 157.21875 200.65625 155.972656 C 200.207031 154.722656 199.605469 153.554688 198.855469 152.464844 C 194.609375 146.121094 186.414062 146.007812 182.25 152.40625 C 180.855469 155.058594 179.738281 157.824219 178.898438 160.695312 Z M 178.898438 160.695312 " fill-opacity="1" fill-rule="nonzero"/></svg>