<svg width="20" height="20" viewBox="0 0 20 20" fill="none" xmlns="http://www.w3.org/2000/svg">
<path d="M9.99967 18.3332C8.06912 17.8471 6.47523 16.7393 5.21801 15.0098C3.96079 13.2804 3.33245 11.3604 3.33301 9.24984V4.1665L9.99967 1.6665L16.6663 4.1665V9.24984C16.6663 11.3609 16.038 13.2812 14.7813 15.0107C13.5247 16.7401 11.9308 17.8476 9.99967 18.3332ZM9.99967 16.5832C11.4441 16.1248 12.6386 15.2082 13.583 13.8332C14.5275 12.4582 14.9997 10.9304 14.9997 9.24984V5.31234L9.99967 3.43734L4.99967 5.31234V9.24984C4.99967 10.9304 5.4719 12.4582 6.41634 13.8332C7.36079 15.2082 8.55523 16.1248 9.99967 16.5832Z" fill="#5B5B5B"/>
</svg>
