<svg width="20" height="20" viewBox="0 0 20 20" fill="none" xmlns="http://www.w3.org/2000/svg">
<path d="M7.37527 14.0207L10.0003 12.4373L12.6253 14.0415L11.9378 11.0415L14.2503 9.0415L11.2086 8.77067L10.0003 5.93734L8.79194 8.74984L5.75027 9.02067L8.06277 11.0415L7.37527 14.0207ZM10.0003 14.3957L6.54194 16.479C6.38916 16.5762 6.22944 16.6179 6.06277 16.604C5.89611 16.5901 5.75027 16.5346 5.62527 16.4373C5.50027 16.3401 5.40305 16.2187 5.33361 16.0732C5.26416 15.9276 5.25027 15.7643 5.29194 15.5832L6.20861 11.6457L3.14611 8.99984C3.00722 8.87484 2.92055 8.73234 2.88611 8.57234C2.85166 8.41234 2.86194 8.25623 2.91694 8.104C2.97194 7.95178 3.05527 7.82678 3.16694 7.729C3.27861 7.63123 3.43139 7.56873 3.62527 7.5415L7.66694 7.18734L9.22944 3.479C9.29888 3.31234 9.40666 3.18734 9.55277 3.104C9.69889 3.02067 9.84805 2.979 10.0003 2.979C10.1525 2.979 10.3017 3.02067 10.4478 3.104C10.5939 3.18734 10.7017 3.31234 10.7711 3.479L12.3336 7.18734L16.3753 7.5415C16.5697 7.56928 16.7225 7.63178 16.8336 7.729C16.9447 7.82623 17.0281 7.95123 17.0836 8.104C17.1392 8.25678 17.1497 8.41317 17.1153 8.57317C17.0808 8.73317 16.9939 8.87539 16.8544 8.99984L13.7919 11.6457L14.7086 15.5832C14.7503 15.7637 14.7364 15.9271 14.6669 16.0732C14.5975 16.2193 14.5003 16.3407 14.3753 16.4373C14.2503 16.534 14.1044 16.5896 13.9378 16.604C13.7711 16.6184 13.6114 16.5768 13.4586 16.479L10.0003 14.3957Z" fill="white"/>
</svg>
