<svg width="27" height="27" viewBox="0 0 27 27" fill="none" xmlns="http://www.w3.org/2000/svg">
<path d="M16.6836 7.06354C16.6836 7.06354 17.2878 7.6677 17.892 8.87604C17.892 8.87604 19.812 5.8552 21.517 5.25104M10.6601 1.02791C7.64046 0.901038 5.30838 1.24783 5.30838 1.24783C3.83542 1.35416 1.01396 2.17825 1.01396 7.00191C1.01396 11.7821 0.982546 17.6763 1.01396 20.0265C1.01396 21.462 1.90209 24.8115 4.97851 24.9904C8.7183 25.2079 15.4548 25.255 18.5457 24.9904C19.3722 24.9432 22.1272 24.2944 22.4752 21.2977C22.8377 18.1923 22.7652 16.0354 22.7652 15.5219" stroke="#2FED9A" stroke-width="2" stroke-linecap="round" stroke-linejoin="round"/>
<path d="M7.0166 14.3136H11.8499M7.0166 19.147H16.6833M25.1658 7.06364C25.1658 10.3999 22.4591 13.1053 19.1181 13.1053C18.3242 13.1061 17.5379 12.9504 16.8042 12.6472C16.0705 12.3439 15.4037 11.899 14.8421 11.3379C14.2804 10.7768 13.8348 10.1105 13.5308 9.37708C13.2268 8.64368 13.0704 7.85755 13.0704 7.06364C13.0704 3.72623 15.7782 1.02198 19.1181 1.02198C19.912 1.02118 20.6983 1.17687 21.432 1.48014C22.1657 1.7834 22.8324 2.2283 23.3941 2.7894C23.9557 3.3505 24.4013 4.0168 24.7053 4.7502C25.0093 5.4836 25.1658 6.26973 25.1658 7.06364Z" stroke="#2FED9A" stroke-width="2" stroke-linecap="round"/>
</svg>
