<svg width="21" height="21" viewBox="0 0 21 21" fill="none" xmlns="http://www.w3.org/2000/svg">
<path d="M10.5 1.3125C12.9367 1.3125 15.2736 2.28047 16.9965 4.00346C18.7195 5.72645 19.6875 8.06332 19.6875 10.5C19.6875 12.9367 18.7195 15.2736 16.9965 16.9965C15.2736 18.7195 12.9367 19.6875 10.5 19.6875C8.06332 19.6875 5.72645 18.7195 4.00346 16.9965C2.28047 15.2736 1.3125 12.9367 1.3125 10.5C1.3125 8.06332 2.28047 5.72645 4.00346 4.00346C5.72645 2.28047 8.06332 1.3125 10.5 1.3125ZM10.5 2.625C9.46584 2.625 8.44181 2.82869 7.48637 3.22445C6.53093 3.6202 5.6628 4.20027 4.93153 4.93153C4.20027 5.6628 3.6202 6.53093 3.22445 7.48637C2.82869 8.44181 2.625 9.46584 2.625 10.5C2.625 11.5342 2.82869 12.5582 3.22445 13.5136C3.6202 14.4691 4.20027 15.3372 4.93153 16.0685C5.6628 16.7997 6.53093 17.3798 7.48637 17.7756C8.44181 18.1713 9.46584 18.375 10.5 18.375C12.5886 18.375 14.5916 17.5453 16.0685 16.0685C17.5453 14.5916 18.375 12.5886 18.375 10.5C18.375 8.41142 17.5453 6.40838 16.0685 4.93153C14.5916 3.45468 12.5886 2.625 10.5 2.625ZM10.3307 4.60556C10.6171 4.5651 10.9088 4.62137 11.1596 4.76544C11.4104 4.90951 11.606 5.13315 11.7154 5.40094L12.978 8.42756L12.9819 8.43806L13.1027 8.72944C13.5752 9.86213 13.5752 11.1366 13.1027 12.2692L11.7141 15.5991C11.2652 16.6753 9.74006 16.6753 9.29119 15.5991L7.90125 12.2692C7.66714 11.7085 7.5466 11.107 7.5466 10.4993C7.5466 9.89173 7.66714 9.29015 7.90125 8.72944L9.2925 5.40094C9.37873 5.18746 9.52067 5.00105 9.70352 4.86114C9.88636 4.72124 10.1034 4.63297 10.332 4.60556M8.99062 11.4122C9.02387 11.5312 9.06413 11.6484 9.11137 11.7639L10.5026 15.0924L11.8913 11.7639C11.9376 11.6493 11.9774 11.5325 12.0107 11.4135C11.8269 11.5286 11.6282 11.6178 11.4201 11.6786C10.8209 11.8531 10.1844 11.8531 9.58519 11.6786C9.37519 11.6178 9.17597 11.5281 8.99062 11.4122Z" fill="#1A1A1A"/>
</svg>
