<svg width="48" height="48" viewBox="0 0 48 48" fill="none" xmlns="http://www.w3.org/2000/svg">
<path d="M24.002 4C35.048 4 44.002 12.954 44.002 24C44.002 35.046 35.048 44 24.002 44C20.4675 44.0061 16.9951 43.0707 13.942 41.29L4.00998 44L6.71398 34.064C4.9319 31.0099 3.99579 27.536 4.00198 24C4.00198 12.954 12.956 4 24.002 4ZM17.186 14.6L16.786 14.616C16.5274 14.6338 16.2747 14.7017 16.042 14.816C15.8251 14.939 15.6271 15.0926 15.454 15.272C15.214 15.498 15.078 15.694 14.932 15.884C14.1922 16.8458 13.7939 18.0266 13.8 19.24C13.804 20.22 14.06 21.174 14.46 22.066C15.278 23.87 16.624 25.78 18.4 27.55C18.828 27.976 19.248 28.404 19.7 28.802C21.9068 30.7448 24.5365 32.1459 27.38 32.894L28.516 33.068C28.886 33.088 29.256 33.06 29.628 33.042C30.2104 33.0113 30.779 32.8536 31.294 32.58C31.5557 32.4447 31.8113 32.2979 32.06 32.14C32.06 32.14 32.1447 32.0827 32.31 31.96C32.58 31.76 32.746 31.618 32.97 31.384C33.138 31.2107 33.278 31.0093 33.39 30.78C33.546 30.454 33.702 29.832 33.766 29.314C33.814 28.918 33.8 28.702 33.794 28.568C33.786 28.354 33.608 28.132 33.414 28.038L32.25 27.516C32.25 27.516 30.51 26.758 29.446 26.274C29.3346 26.2255 29.2153 26.1977 29.094 26.192C28.9571 26.1777 28.8188 26.193 28.6884 26.2368C28.5579 26.2806 28.4384 26.352 28.338 26.446C28.328 26.442 28.194 26.556 26.748 28.308C26.665 28.4195 26.5507 28.5038 26.4196 28.5501C26.2885 28.5964 26.1466 28.6026 26.012 28.568C25.8816 28.5333 25.754 28.4891 25.63 28.436C25.382 28.332 25.296 28.292 25.126 28.22C23.9777 27.7198 22.9149 27.043 21.976 26.214C21.724 25.994 21.49 25.754 21.25 25.522C20.4632 24.7684 19.7775 23.916 19.21 22.986L19.092 22.796C19.0085 22.6676 18.9401 22.53 18.888 22.386C18.812 22.092 19.01 21.856 19.01 21.856C19.01 21.856 19.496 21.324 19.722 21.036C19.942 20.756 20.128 20.484 20.248 20.29C20.484 19.91 20.558 19.52 20.434 19.218C19.874 17.85 19.2953 16.4893 18.698 15.136C18.58 14.868 18.23 14.676 17.912 14.638C17.804 14.6247 17.696 14.614 17.588 14.606C17.3194 14.5906 17.0502 14.5933 16.782 14.614L17.186 14.6Z" fill="black"/>
</svg>
